<ttFont>
        <CharString name=".notdef">
          -380 endchar
        </CharString>
        <CharString name="A">
          47 21 -21 162.5 81.5 297 101 hstem
          11 557 vstem
          568 hmoveto
          -207 642 rlineto
          -121 hlineto
          -229 -642 rlineto
          103 hlineto
          16 77 30 84 123 3 136 -3 28 -89 15 -72 rlineto
          -69 245 rmoveto
          -103 -2 -101 2 105 296 rlineto
          7 hlineto
          endchar
        </CharString>
        <CharString name="AE">
          274 0 82 477 83 -9 9 hstemhm
          -17 818 hintmask 11010000
          801 79 rmoveto
          -7 9 -164 -6 rlineto
          -109 hlineto
          -25 185 211 46 -7 73 -8 7 -206 -47 -29 213 rlineto
          92 hlineto
          160 -5 rlineto
          hintmask 10110000
          8 79 -6 9 rlineto
          hintmask 11010000
          -402 hlineto
          -326 -642 rlineto
          105 hlineto
          27 77 57 111 227 56 24 -172 5 -72 rlineto
          365 hlineto
          -405 323 rmoveto
          -168 -40 131 258 rlineto
          7 hlineto
          endchar
        </CharString>
        <CharString name="AEacute">
          274 0 82 477 83 -9 9 hstemhm
          -16 818 hintmask 11010000
          424 723 rmoveto
          11 -4 67 26 65 25 71 31 rlinecurve
          4 10 -27 61 -10 2 -68 -40 -64 -33 -66 -34 rlinecurve
          395 -688 rmoveto
          -7 9 -164 -6 rlineto
          -109 hlineto
          -25 185 210 46 -7 73 -8 7 -206 -47 -29 213 rlineto
          93 hlineto
          159 -5 rlineto
          hintmask 10110000
          9 79 -7 9 rlineto
          hintmask 11010000
          -401 hlineto
          -326 -642 rlineto
          104 hlineto
          28 77 57 111 227 56 24 -172 5 -72 rlineto
          365 hlineto
          -405 323 rmoveto
          -168 -40 131 258 rlineto
          6 hlineto
          endchar
        </CharString>
        <CharString name="Aacute">
          47 21 -21 162.5 81.5 297 101 hstem
          11 556 vstem
          220 723 rmoveto
          11 -4 67 26 65 25 71 31 rlinecurve
          4 10 -27 61 -10 2 -68 -40 -64 -33 -66 -34 rlinecurve
          364 -767 rmoveto
          -206 642 rlineto
          -122 hlineto
          -228 -642 rlineto
          103 hlineto
          16 77 29 84 124 3 136 -3 28 -89 15 -72 rlineto
          -69 245 rmoveto
          -102 -2 -102 2 104 296 rlineto
          8 hlineto
          endchar
        </CharString>
        <CharString name="Abreve">
          47 21 -21 162.5 81.5 297 101 81 72 hstem
          11 556 vstem
          293 723 rmoveto
          66 50 35 62 22 hvcurveto
          -25 33 rlineto
          -15 hlineto
          -37 -16 -33 -21 -46 hhcurveto
          -47 -35 21 37 -15 hvcurveto
          -15 hlineto
          -26 -33 rlineto
          -62 21 47 -35 67 hhcurveto
          274 -723 rmoveto
          -206 642 rlineto
          -122 hlineto
          -228 -642 rlineto
          103 hlineto
          16 77 29 84 124 3 136 -3 28 -89 15 -72 rlineto
          -69 245 rmoveto
          -102 -2 -102 2 104 296 rlineto
          8 hlineto
          endchar
        </CharString>
        <CharString name="Abreveacute">
          47 21 -21 162.5 81.5 297 101 61 72 hstem
          11 556 vstem
          284 825 rmoveto
          9 2 36 34 34 33 34 35 rlinecurve
          -1 9 -47 32 -9 -2 -29 -40 -30 -38 -30 -37 rlinecurve
          42 -150 rmoveto
          66 50 35 62 22 hvcurveto
          -25 33 rlineto
          -15 hlineto
          -37 -16 -33 -21 -46 hhcurveto
          -47 -35 21 37 -15 hvcurveto
          -15 hlineto
          -26 -33 rlineto
          -62 21 47 -35 67 hhcurveto
          274 -703 rmoveto
          -206 642 rlineto
          -122 hlineto
          -228 -642 rlineto
          103 hlineto
          16 77 29 84 124 3 136 -3 28 -89 15 -72 rlineto
          -69 245 rmoveto
          -102 -2 -102 2 104 296 rlineto
          8 hlineto
          endchar
        </CharString>
        <CharString name="Abrevedotbelow">
          47 -176 114 83 -21 162.5 81.5 297 101 80 72 hstem
          234 111 vstem
          292 722 rmoveto
          67 50 35 62 22 hvcurveto
          -26 33 rlineto
          -15 hlineto
          -37 -16 -33 -21 -45 hhcurveto
          -48 -34 21 37 -15 hvcurveto
          -15 hlineto
          -26 -33 rlineto
          -62 21 47 -35 66 hhcurveto
          275 -722 rmoveto
          -206 642 rlineto
          -122 hlineto
          -228 -642 rlineto
          103 hlineto
          16 77 29 84 124 3 136 -3 28 -89 15 -72 rlineto
          -69 245 rmoveto
          -102 -2 -102 2 104 296 rlineto
          8 hlineto
          -9 -603 rmoveto
          -36 -22 -23 -35 -35 20 -21 35 34 22 23 36 34 -19 21 -34 hvcurveto
          endchar
        </CharString>
        <CharString name="Abrevegrave">
          47 21 -21 162.5 81.5 297 101 61 72 hstem
          11 556 vstem
          304 825 rmoveto
          34 28 -32 37 -28 38 -30 40 rlinecurve
          -8 2 -48 -32 rlineto
          -9 vlineto
          33 -35 35 -33 34 -34 rrcurveto
          -1 -124 rmoveto
          66 50 35 62 22 hvcurveto
          -25 33 rlineto
          -15 hlineto
          -37 -16 -33 -21 -46 hhcurveto
          -47 -35 21 37 -15 hvcurveto
          -15 hlineto
          -26 -33 rlineto
          -62 21 47 -35 67 hhcurveto
          274 -703 rmoveto
          -206 642 rlineto
          -122 hlineto
          -228 -642 rlineto
          103 hlineto
          16 77 29 84 124 3 136 -3 28 -89 15 -72 rlineto
          -69 245 rmoveto
          -102 -2 -102 2 104 296 rlineto
          8 hlineto
          endchar
        </CharString>
        <CharString name="Abrevehookabove">
          47 21 -21 162.5 81.5 297 101 61 72 195 52 hstem
          306 58 vstem
          278 970 rmoveto
          16 12 -7 -14 -18 -19 -26 -32 -24 hvcurveto
          36 -59 40 22 -21 37 rlineto
          38 31 16 21 26 vvcurveto
          36 -31 27 -40 -32 -34 -18 -28 -28 vhcurveto
          19 -30 rlineto
          16 20 22 8 18 hhcurveto
          15 -267 rmoveto
          66 50 35 62 22 hvcurveto
          -25 33 rlineto
          -15 hlineto
          -37 -16 -33 -21 -46 hhcurveto
          -47 -35 21 37 -15 hvcurveto
          -15 hlineto
          -26 -33 rlineto
          -62 21 47 -35 67 hhcurveto
          274 -703 rmoveto
          -206 642 rlineto
          -122 hlineto
          -228 -642 rlineto
          103 hlineto
          16 77 29 84 124 3 136 -3 28 -89 15 -72 rlineto
          -69 245 rmoveto
          -102 -2 -102 2 104 296 rlineto
          8 hlineto
          endchar
        </CharString>
        <CharString name="Abrevetilde">
          47 21 -21 162.5 81.5 297 101 62 69 hstem
          11 556 vstem
          173 861 rmoveto
          9 hlineto
          25 23 16 22 16 hhcurveto
          24 80 -30 -5 40 hvcurveto
          11 4 60 74 rlineto
          9 vlineto
          -28 30 rlineto
          -9 hlineto
          -25 -24 -15 -22 -17 hhcurveto
          -23 -80 30 5 -41 hvcurveto
          -10 -4 -61 -74 rlineto
          -9 vlineto
          155 -118 rmoveto
          -46 -33 21 36 -15 hvcurveto
          -15 hlineto
          -24 -33 rlineto
          -60 19 46 -33 65 hhcurveto
          64 48 33 60 22 hvcurveto
          -25 33 rlineto
          -15 hlineto
          -36 -15 -32 -21 -44 hhcurveto
          268 -773 rmoveto
          -206 642 rlineto
          -122 hlineto
          -228 -642 rlineto
          103 hlineto
          16 77 29 84 124 3 136 -3 28 -89 15 -72 rlineto
          -69 245 rmoveto
          -102 -2 -102 2 104 296 rlineto
          8 hlineto
          endchar
        </CharString>
        <CharString name="Acaron">
          47 21 -21 162.5 81.5 297 101 hstem
          11 556 vstem
          308 721 rmoveto
          38 34 41 32 45 30 -20 43 rcurveline
          -11 hlineto
          -36 -22 -35 -21 -34 -23 -35 23 -35 21 -36 22 rrcurveto
          -11 hlineto
          -19 -43 44 -30 42 -32 38 -34 rlinecurve
          283 -721 rmoveto
          -206 642 rlineto
          -122 hlineto
          -228 -642 rlineto
          103 hlineto
          16 77 29 84 124 3 136 -3 28 -89 15 -72 rlineto
          -69 245 rmoveto
          -102 -2 -102 2 104 296 rlineto
          8 hlineto
          endchar
        </CharString>
        <CharString name="Acircumflex">
          47 21 -21 162.5 81.5 297 101 hstem
          11 556 vstem
          179 731 rmoveto
          11 hlineto
          36 22 35 21 34 23 35 -23 35 -21 36 -22 rrcurveto
          11 hlineto
          19 43 -44 30 -42 32 -38 34 rlinecurve
          -24 hlineto
          -38 -34 -41 -32 -45 -30 rrcurveto
          408 -774 rmoveto
          -206 642 rlineto
          -122 hlineto
          -228 -642 rlineto
          103 hlineto
          16 77 29 84 124 3 136 -3 28 -89 15 -72 rlineto
          -69 245 rmoveto
          -102 -2 -102 2 104 296 rlineto
          8 hlineto
          endchar
        </CharString>
        <CharString name="Acircumflexacute">
          47 21 -21 162.5 81.5 297 101 hstem
          11 556 vstem
          384 825 rmoveto
          8 hlineto
          87 109 -1 9 -51 24 -8 -3 -70 -111 rlineto
          -171 -142 rmoveto
          11 hlineto
          36 22 35 21 34 23 35 -23 35 -21 36 -22 rrcurveto
          11 hlineto
          19 43 -44 30 -42 32 -38 34 rlinecurve
          -24 hlineto
          -38 -34 -41 -32 -45 -30 rrcurveto
          409 -754 rmoveto
          -206 642 rlineto
          -122 hlineto
          -228 -642 rlineto
          103 hlineto
          16 77 29 84 124 3 136 -3 28 -89 15 -72 rlineto
          -69 245 rmoveto
          -102 -2 -102 2 104 296 rlineto
          8 hlineto
          endchar
        </CharString>
        <CharString name="Acircumflexdotbelow">
          47 -176 114 83 -21 162.5 81.5 297 101 hstem
          234 111 vstem
          177 730 rmoveto
          11 hlineto
          36 22 35 21 34 23 35 -23 35 -21 36 -22 rrcurveto
          11 hlineto
          19 43 -44 30 -42 32 -38 34 rlinecurve
          -24 hlineto
          -38 -34 -41 -32 -45 -30 rrcurveto
          410 -773 rmoveto
          -206 642 rlineto
          -122 hlineto
          -228 -642 rlineto
          103 hlineto
          16 77 29 84 124 3 136 -3 28 -89 15 -72 rlineto
          -69 245 rmoveto
          -102 -2 -102 2 104 296 rlineto
          8 hlineto
          -9 -603 rmoveto
          -36 -22 -23 -35 -35 20 -21 35 34 22 23 36 34 -19 21 -34 hvcurveto
          endchar
        </CharString>
        <CharString name="Acircumflexgrave">
          47 21 -21 162.5 81.5 297 101 hstem
          11 556 vstem
          399 825 rmoveto
          8 hlineto
          35 28 -70 111 -7 3 -52 -24 -1 -9 rlineto
          -134 -223 rmoveto
          11 hlineto
          36 22 35 21 34 23 35 -23 35 -21 36 -22 rrcurveto
          11 hlineto
          19 43 -44 30 -42 32 -38 34 rlinecurve
          -24 hlineto
          -38 -34 -41 -32 -45 -30 rrcurveto
          409 -754 rmoveto
          -206 642 rlineto
          -122 hlineto
          -228 -642 rlineto
          103 hlineto
          16 77 29 84 124 3 136 -3 28 -89 15 -72 rlineto
          -69 245 rmoveto
          -102 -2 -102 2 104 296 rlineto
          8 hlineto
          endchar
        </CharString>
        <CharString name="Acircumflexhookabove">
          47 21 -21 162.5 81.5 297 101 317 49 hstem
          404 55 vstem
          378 959 rmoveto
          15 11 -7 -14 -16 -18 -25 -30 -23 hvcurveto
          34 -57 38 22 -20 35 rlineto
          36 30 15 20 24 vvcurveto
          35 -29 25 -38 -31 -32 -17 -27 -26 vhcurveto
          18 -28 rlineto
          15 18 22 8 17 hhcurveto
          -200 -248 rmoveto
          11 hlineto
          36 22 35 21 34 23 35 -23 35 -21 36 -22 rrcurveto
          11 hlineto
          19 43 -44 30 -42 32 -38 34 rlinecurve
          -24 hlineto
          -38 -34 -41 -32 -45 -30 rrcurveto
          409 -754 rmoveto
          -206 642 rlineto
          -122 hlineto
          -228 -642 rlineto
          103 hlineto
          16 77 29 84 124 3 136 -3 28 -89 15 -72 rlineto
          -69 245 rmoveto
          -102 -2 -102 2 104 296 rlineto
          8 hlineto
          endchar
        </CharString>
        <CharString name="Acircumflextilde">
          47 21 -21 162.5 81.5 297 101 hstem
          11 556 vstem
          173 861 rmoveto
          9 hlineto
          25 23 16 22 16 hhcurveto
          24 80 -30 -5 40 hvcurveto
          11 4 60 74 rlineto
          9 vlineto
          -28 30 rlineto
          -9 hlineto
          -25 -24 -15 -22 -17 hhcurveto
          -23 -80 30 5 -41 hvcurveto
          -10 -4 -61 -74 rlineto
          -9 vlineto
          138 -41 rmoveto
          -38 -34 -41 -32 -45 -30 20 -43 rcurveline
          11 hlineto
          36 22 35 21 34 23 35 -23 35 -21 36 -22 rrcurveto
          11 hlineto
          19 43 -44 30 -42 32 -38 34 rlinecurve
          261 -850 rmoveto
          -206 642 rlineto
          -122 hlineto
          -228 -642 rlineto
          103 hlineto
          16 77 29 84 124 3 136 -3 28 -89 15 -72 rlineto
          -69 245 rmoveto
          -102 -2 -102 2 104 296 rlineto
          8 hlineto
          endchar
        </CharString>
        <CharString name="Adieresis">
          47 21 -21 162.5 81.5 297 101 98 106 hstem
          161 104 60 104 vstem
          212 740 rmoveto
          33 20 21 34 32 -18 19 -32 -33 -21 -21 -33 -33 18 -19 33 hvcurveto
          164 hmoveto
          33 20 21 34 32 -18 19 -32 -33 -21 -21 -33 -33 18 -19 33 hvcurveto
          191 -740 rmoveto
          -206 642 rlineto
          -122 hlineto
          -228 -642 rlineto
          103 hlineto
          16 77 29 84 124 3 136 -3 28 -89 15 -72 rlineto
          -69 245 rmoveto
          -102 -2 -102 2 104 296 rlineto
          8 hlineto
          endchar
        </CharString>
        <CharString name="Adotbelow">
          47 -176 114 83 -21 162.5 81.5 297 101 hstem
          234 111 vstem
          567 hmoveto
          -206 642 rlineto
          -122 hlineto
          -228 -642 rlineto
          103 hlineto
          16 77 29 84 124 3 136 -3 28 -89 15 -72 rlineto
          -69 245 rmoveto
          -102 -2 -102 2 104 296 rlineto
          8 hlineto
          -9 -603 rmoveto
          -36 -22 -23 -35 -35 20 -21 35 34 22 23 36 34 -19 21 -34 hvcurveto
          endchar
        </CharString>
        <CharString name="Agrave">
          47 21 -21 162.5 81.5 297 101 hstem
          11 556 vstem
          396 724 rmoveto
          17 44 -66 34 -64 33 -68 40 rlinecurve
          -10 -2 -27 -61 4 -10 71 -31 65 -25 67 -26 rlinecurve
          182 -720 rmoveto
          -206 642 rlineto
          -122 hlineto
          -228 -642 rlineto
          103 hlineto
          16 77 29 84 124 3 136 -3 28 -89 15 -72 rlineto
          -69 245 rmoveto
          -102 -2 -102 2 104 296 rlineto
          8 hlineto
          endchar
        </CharString>
        <CharString name="Ahookabove">
          47 21 -21 162.5 81.5 297 101 211 52 hstem
          301 58 vstem
          273 853 rmoveto
          16 12 -7 -14 -18 -19 -26 -32 -24 hvcurveto
          36 -59 40 22 -21 37 rlineto
          38 31 16 21 26 vvcurveto
          36 -31 27 -40 -32 -34 -18 -28 -28 vhcurveto
          19 -30 rlineto
          16 20 22 8 18 hhcurveto
          294 -853 rmoveto
          -206 642 rlineto
          -122 hlineto
          -228 -642 rlineto
          103 hlineto
          16 77 29 84 124 3 136 -3 28 -89 15 -72 rlineto
          -69 245 rmoveto
          -102 -2 -102 2 104 296 rlineto
          8 hlineto
          endchar
        </CharString>
        <CharString name="Amacron">
          47 21 -21 162.5 81.5 297 101 118 66 hstem
          11 556 vstem
          155 760 rmoveto
          282 hlineto
          5 59 -7 7 rlineto
          -282 hlineto
          -5 -58 rlineto
          419 -768 rmoveto
          -206 642 rlineto
          -122 hlineto
          -228 -642 rlineto
          103 hlineto
          16 77 29 84 124 3 136 -3 28 -89 15 -72 rlineto
          -69 245 rmoveto
          -102 -2 -102 2 104 296 rlineto
          8 hlineto
          endchar
        </CharString>
        <CharString name="Aogonek">
          47 -197 63 155 -21 162.5 81.5 297 101 hstem
          431 62 vstem
          604 -100 rmoveto
          -5 hlineto
          -21 -23 -26 -13 -23 hhcurveto
          -23 -11 12 22 22 11 26 36 52 hvcurveto
          27 hlineto
          -206 642 rlineto
          -122 hlineto
          -228 -642 rlineto
          103 hlineto
          16 77 29 84 124 3 136 -3 28 -89 15 -72 rlineto
          21 hlineto
          -40 -55 -12 -29 -31 vvcurveto
          -50 32 -32 50 37 32 18 34 33 vhcurveto
          -222 390 rmoveto
          -102 -2 -102 2 104 296 rlineto
          8 hlineto
          endchar
        </CharString>
        <CharString name="Aring">
          47 21 -21 162.5 81.5 297 101 72 45 84 46 hstem
          205 46 86 46 vstem
          292 714 rmoveto
          53 38 32 58 50 -30 35 -58 -57 -33 -33 -55 -56 35 -31 52 hvcurveto
          1 129 rmoveto
          30 14 -17 -25 -29 -17 -13 -26 -27 -16 14 30 25 14 15 28 hvcurveto
          274 -843 rmoveto
          -206 642 rlineto
          -122 hlineto
          -228 -642 rlineto
          103 hlineto
          16 77 29 84 124 3 136 -3 28 -89 15 -72 rlineto
          -69 245 rmoveto
          -102 -2 -102 2 104 296 rlineto
          8 hlineto
          endchar
        </CharString>
        <CharString name="Aringacute">
          47 21 -21 160 81 292 108 0 -20 104 46 hstemhm
          211 46 86 46 hintmask 11011110
          214 791 rmoveto
          10 -5 70 15 68 14 76 20 rlinecurve
          5 9 -16 64 -10 4 -74 -29 -68 -23 -71 -22 rlinecurve
          363 -838 rmoveto
          -206 617 rlineto
          17 15 11 23 31 vvcurveto
          50 -30 35 -58 -57 -33 -33 -55 -29 10 -23 16 -15 vhcurveto
          -226 -616 rlineto
          103 hlineto
          16 76 29 82 124 3 136 -2 28 -88 15 -71 rlineto
          -163 725 rmoveto
          30 14 -17 -25 -29 -17 -13 -26 -27 -16 14 30 25 14 15 28 hvcurveto
          94 -483 rmoveto
          -102 -2 -102 2 rlineto
          hintmask 11101110
          104 291 rlineto
          8 hlineto
          endchar
        </CharString>
        <CharString name="Atilde">
          47 21 -21 162.5 81.5 297 101 hstem
          11 556 vstem
          160 728 rmoveto
          10 hlineto
          26 25 16 23 18 hhcurveto
          26 85 -31 -6 44 hvcurveto
          10 5 65 77 rlineto
          9 vlineto
          -30 32 rlineto
          -10 hlineto
          -27 -25 -17 -22 -17 hhcurveto
          -25 -86 30 6 -44 hvcurveto
          -11 -4 -65 -77 rlineto
          -9 vlineto
          438 -760 rmoveto
          -206 642 rlineto
          -122 hlineto
          -228 -642 rlineto
          103 hlineto
          16 77 29 84 124 3 136 -3 28 -89 15 -72 rlineto
          -69 245 rmoveto
          -102 -2 -102 2 104 296 rlineto
          8 hlineto
          endchar
        </CharString>
        <CharString name="B">
          14 -4 80 -55 -21 286.5 78 198.5 80 hstemhm
          89.5 99 187.5 106 -68 104 hintmask 00000000
          hintmask 10111010
          386 334 rmoveto
          hintmask 01111100
          61 26 35 53 72 vvcurveto
          104 -73 54 -123 vhcurveto
          -200 -1 7 -449 -7 -193 rlineto
          1 hlineto
          hintmask 10111010
          -3 46 84 -1 26 hhcurveto
          182 93 61 123 84 -42 51 -90 19 hvcurveto
          hintmask 10111100
          -10 139 rmoveto
          -63 -29 -33 -57 -14 vhcurveto
          -103 3 3 197 rlineto
          68 hlineto
          86 32 -26 -64 hvcurveto
          hintmask 10111010
          -116 -397 rmoveto
          -18 -28 1 2 -26 hvcurveto
          -3 123 1 84 117 1 rlineto
          73 -10 38 -32 -59 vvcurveto
          -72 -56 -38 -98 vhcurveto
          endchar
        </CharString>
        <CharString name="C">
          -21 -8 87 484 86 hstem
          34 108 vstem
          327 649 rmoveto
          -186 -107 -120 -214 -207 101 -116 180 62 53 15 27 55 hvcurveto
          8 94 -10 6 rlineto
          -35 -46 -58 -20 -56 hhcurveto
          -115 -66 84 163 158 64 79 117 57 50 -20 -32 41 hvcurveto
          10 3 19 91 rlineto
          28 -48 -58 16 -67 hhcurveto
          endchar
        </CharString>
        <CharString name="C.ss01">
          -82 0 40 -40 80 343 78 -40 40 hstemhm
          45 98 hintmask 00000000
          hintmask 10101000
          277 423 rmoveto
          46 43 -16 -24 31 hvcurveto
          9 3 rlineto
          hintmask 10011000
          16 75 rlineto
          136 40 -658 -40 241 hlineto
          -62 -41 -34 -73 -100 vvcurveto
          -97 31 -70 58 -40 vhcurveto
          -234 -40 658 40 -149 hlineto
          hintmask 01011000
          7 74 -10 5 rlineto
          -24 -35 -47 -15 -44 hhcurveto
          -89 -48 60 116 hvcurveto
          hintmask 10101000
          114 47 53 87 vhcurveto
          endchar
        </CharString>
        <CharString name="Cacute">
          -21 -8 87 484 86 hstem
          34 108 vstem
          430 872 rmoveto
          -10 2 -68 -40 -64 -33 -66 -34 rlinecurve
          17 -44 11 -4 67 26 65 25 71 31 rlinecurve
          4 10 rlineto
          -130 -162 rmoveto
          -186 -107 -120 -214 -207 101 -116 180 62 53 15 27 55 hvcurveto
          8 94 -10 6 rlineto
          -35 -46 -58 -20 -56 hhcurveto
          -115 -66 84 163 158 64 79 117 57 50 -20 -32 41 hvcurveto
          10 3 19 91 rlineto
          28 -48 -58 16 -67 hhcurveto
          endchar
        </CharString>
        <CharString name="Ccaron">
          -21 -8 87 484 86 hstem
          34 108 vstem
          432 860 rmoveto
          -11 hlineto
          -36 -22 -35 -21 -34 -23 -35 23 -35 21 -36 22 rrcurveto
          -11 hlineto
          -19 -43 44 -30 42 -32 38 -34 rlinecurve
          24 hlineto
          38 34 41 32 45 30 rrcurveto
          -125 -168 rmoveto
          -186 -107 -120 -214 -207 101 -116 180 62 53 15 27 55 hvcurveto
          8 94 -10 6 rlineto
          -35 -46 -58 -20 -56 hhcurveto
          -115 -66 84 163 158 64 79 117 57 50 -20 -32 41 hvcurveto
          10 3 19 91 rlineto
          28 -48 -58 16 -67 hhcurveto
          endchar
        </CharString>
        <CharString name="Ccedilla">
          -21 -197 48 142 86 484 86 hstem
          34 108 192 64 vstem
          323 79 rmoveto
          -115 -66 84 163 158 64 79 117 57 50 -20 -32 41 hvcurveto
          10 3 19 91 rlineto
          28 -48 -58 16 -67 hhcurveto
          -186 -107 -120 -214 -194 89 -114 160 -14 hvcurveto
          -17 -66 49 -29 rlineto
          11 -5 8 -6 -11 vvcurveto
          -16 -12 -9 -17 -22 -17 12 19 -18 vhcurveto
          -5 -2 -9 -47 rlineto
          -16 18 25 -14 34 hhcurveto
          52 35 29 41 23 -10 18 -30 16 hvcurveto
          -34 20 12 43 53 3 47 14 49 24 rlinecurve
          8 94 -10 6 rlineto
          -35 -46 -58 -20 -56 hhcurveto
          endchar
        </CharString>
        <CharString name="Ccircumflex">
          -21 -8 87 484 86 hstem
          34 108 vstem
          199 731 rmoveto
          11 hlineto
          36 22 35 21 34 23 35 -23 35 -21 36 -22 rrcurveto
          11 hlineto
          19 43 -44 30 -42 32 -38 34 rlinecurve
          -24 hlineto
          -38 -34 -41 -32 -45 -30 rrcurveto
          148 -125 rmoveto
          -186 -107 -120 -214 -207 101 -116 180 62 53 15 27 55 hvcurveto
          8 94 -10 6 rlineto
          -35 -46 -58 -20 -56 hhcurveto
          -115 -66 84 163 158 64 79 117 57 50 -20 -32 41 hvcurveto
          10 3 19 91 rlineto
          28 -48 -58 16 -67 hhcurveto
          endchar
        </CharString>
        <CharString name="Cdotaccent">
          -21 -8 87 484 86 94 114 hstem
          34 108 116 111 vstem
          316 857 rmoveto
          -36 -22 -23 -35 -35 20 -21 35 34 22 23 36 34 -19 21 -34 hvcurveto
          11 -208 rmoveto
          -186 -107 -120 -214 -207 101 -116 180 62 53 15 27 55 hvcurveto
          8 94 -10 6 rlineto
          -35 -46 -58 -20 -56 hhcurveto
          -115 -66 84 163 158 64 79 117 57 50 -20 -32 41 hvcurveto
          10 3 19 91 rlineto
          28 -48 -58 16 -67 hhcurveto
          endchar
        </CharString>
        <CharString name="D">
          110 -6 82 -55 -21 562 84 hstemhm
          89.5 99 320.5 107 hintmask 10111000
          87 642 rmoveto
          -1 hlineto
          7 -449 rlineto
          hintmask 01111000
          -7 -193 rlineto
          1 hlineto
          hintmask 10111000
          -3 59 113 -3 43 hhcurveto
          202 112 124 226 195 -102 107 -184 hvcurveto
          -10 -570 rmoveto
          -21 -65 3 4 -45 hvcurveto
          -3 119 5 356 rlineto
          2 38 72 2 21 hhcurveto
          125 62 -75 -166 -167 -69 -78 -120 hvcurveto
          endchar
        </CharString>
        <CharString name="D.ss01">
          27 0 40 -40 75 345 81 -40 40 hstemhm
          91 89.5 244.5 96 hintmask 10011100
          667 461 rmoveto
          40 -767 -40 189 vlineto
          4 -309 -3 -112 rlineto
          -190 -40 767 40 -249 hlineto
          67 43 36 77 107 vvcurveto
          90 -31 66 -59 38 vhcurveto
          hintmask 01101100
          -149 -386 rmoveto
          -18 -52 3 3 -31 hvcurveto
          -2 80 3 255 rlineto
          2 30 54 2 16 hhcurveto
          96 47 -52 -121 -119 -54 -53 -89 hvcurveto
          endchar
        </CharString>
        <CharString name="Dcaron">
          110 -6 82 -55 -21 562 84 hstemhm
          89.5 99 320.5 107 hintmask 10111000
          330 721 rmoveto
          38 34 41 32 45 30 -20 43 rcurveline
          -11 hlineto
          -36 -22 -35 -21 -34 -23 -35 23 -35 21 -36 22 rrcurveto
          -11 hlineto
          -19 -43 44 -30 42 -32 38 -34 rlinecurve
          -219 -79 rmoveto
          -1 hlineto
          7 -449 rlineto
          hintmask 01111000
          -7 -193 rlineto
          1 hlineto
          hintmask 10111000
          -3 59 113 -3 43 hhcurveto
          202 112 124 226 195 -102 107 -184 hvcurveto
          -10 -570 rmoveto
          -21 -66 3 4 -45 hvcurveto
          -2 119 5 356 rlineto
          2 39 71 2 21 hhcurveto
          124 63 -75 -166 -167 -69 -78 -120 hvcurveto
          endchar
        </CharString>
        <CharString name="Dcroat">
          110 -6 82 -55 -21 562 84 114 66 hstemhm
          89.5 99 320.5 107 hintmask 10111100
          177 760 rmoveto
          282 hlineto
          5 59 -7 7 rlineto
          -282 hlineto
          -5 -58 rlineto
          -83 -126 rmoveto
          -1 hlineto
          7 -449 rlineto
          hintmask 01111100
          -7 -193 rlineto
          1 hlineto
          hintmask 10111100
          -3 59 113 -3 43 hhcurveto
          202 112 124 226 195 -102 107 -184 hvcurveto
          -10 -570 rmoveto
          -21 -66 3 4 -45 hvcurveto
          -2 119 5 356 rlineto
          2 39 71 2 21 hhcurveto
          124 63 -75 -166 -167 -69 -78 -120 hvcurveto
          endchar
        </CharString>
        <CharString name="Delta">
          47 0 83 458 101 hstem
          11 557 vstem
          568 hmoveto
          -208 642 rlineto
          -121 hlineto
          -228 -642 rlineto
          283 541 rmoveto
          7 hlineto
          142 -458 rlineto
          -310 hlineto
          endchar
        </CharString>
        <CharString name="E">
          -47 0 83.5 202.5 83 188.5 84.5 -9 9 hstemhm
          89.5 100 hintmask 11101000
          466 88 rmoveto
          -155 -5 -122 1 -3 118 1 83 109 2 113 -3 8 79 -7 8 -106 -3 -116 2 3 187 122 1 152 -4 rlineto
          hintmask 11011000
          8 79 -6 9 rlineto
          hintmask 11101000
          -381 hlineto
          7 -449 -7 -193 rlineto
          379 hlineto
          7 79 rlineto
          endchar
        </CharString>
        <CharString name="Eacute">
          -47 0 83.5 202.5 83 188.5 84.5 -9 9 hstemhm
          89.5 100 hintmask 11101000
          203 723 rmoveto
          11 -4 67 26 65 25 71 31 rlinecurve
          4 10 -27 61 -10 2 -68 -40 -64 -33 -66 -34 rlinecurve
          280 -679 rmoveto
          -155 -5 -123 1 -2 118 1 83 109 2 113 -3 8 79 -7 8 -106 -3 -116 2 3 187 122 1 152 -4 rlineto
          hintmask 11011000
          8 79 -6 9 rlineto
          hintmask 11101000
          -381 hlineto
          7 -449 -7 -193 rlineto
          379 hlineto
          7 79 rlineto
          endchar
        </CharString>
        <CharString name="Ebreve">
          -47 0 83.5 202.5 83 188.5 84.5 -9 9 81 72 hstemhm
          89.5 100 hintmask 11101100
          276 723 rmoveto
          66 50 35 62 22 hvcurveto
          -25 33 rlineto
          -15 hlineto
          -37 -16 -33 -21 -46 hhcurveto
          -47 -35 21 37 -15 hvcurveto
          -15 hlineto
          -26 -33 rlineto
          -62 21 47 -35 67 hhcurveto
          190 -635 rmoveto
          -155 -5 -123 1 -2 118 1 83 109 2 113 -3 8 79 -7 8 -106 -3 -116 2 3 187 122 1 152 -4 rlineto
          hintmask 11011100
          8 79 -6 9 rlineto
          hintmask 11101100
          -381 hlineto
          7 -449 -7 -193 rlineto
          379 hlineto
          7 79 rlineto
          endchar
        </CharString>
        <CharString name="Ecaron">
          -47 0 83.5 202.5 83 188.5 84.5 -9 9 hstemhm
          89.5 100 hintmask 11101000
          291 721 rmoveto
          38 34 41 32 45 30 -20 43 rcurveline
          -11 hlineto
          -36 -22 -35 -21 -34 -23 -35 23 -35 21 -36 22 rrcurveto
          -11 hlineto
          -19 -43 44 -30 42 -32 38 -34 rlinecurve
          199 -633 rmoveto
          -155 -5 -123 1 -2 118 1 83 109 2 113 -3 8 79 -7 8 -106 -3 -116 2 3 187 122 1 152 -4 rlineto
          hintmask 11011000
          8 79 -6 9 rlineto
          hintmask 11101000
          -381 hlineto
          7 -449 -7 -193 rlineto
          379 hlineto
          7 79 rlineto
          endchar
        </CharString>
        <CharString name="Ecircumflex">
          -47 0 83.5 202.5 83 188.5 84.5 -9 9 hstemhm
          89.5 100 hintmask 11101000
          162 731 rmoveto
          11 hlineto
          36 22 35 21 34 23 35 -23 35 -21 36 -22 rrcurveto
          11 hlineto
          19 43 -44 30 -42 32 -38 34 rlinecurve
          -24 hlineto
          -38 -34 -41 -32 -45 -30 rrcurveto
          324 -686 rmoveto
          -155 -5 -123 1 -2 118 1 83 109 2 113 -3 8 79 -7 8 -106 -3 -116 2 3 187 122 1 152 -4 rlineto
          hintmask 11011000
          8 79 -6 9 rlineto
          hintmask 11101000
          -381 hlineto
          7 -449 -7 -193 rlineto
          379 hlineto
          7 79 rlineto
          endchar
        </CharString>
        <CharString name="Ecircumflexacute">
          -47 0 83.5 202.5 83 188.5 84.5 -9 9 hstemhm
          89.5 100 hintmask 11101000
          367 825 rmoveto
          8 hlineto
          87 109 -1 9 -51 24 -8 -3 -70 -111 rlineto
          -171 -142 rmoveto
          11 hlineto
          36 22 35 21 34 23 35 -23 35 -21 36 -22 rrcurveto
          11 hlineto
          19 43 -44 30 -42 32 -38 34 rlinecurve
          -24 hlineto
          -38 -34 -41 -32 -45 -30 rrcurveto
          325 -666 rmoveto
          -155 -5 -123 1 -2 118 1 83 109 2 113 -3 8 79 -7 8 -106 -3 -116 2 3 187 122 1 152 -4 rlineto
          hintmask 11011000
          8 79 -6 9 rlineto
          hintmask 11101000
          -381 hlineto
          7 -449 -7 -193 rlineto
          379 hlineto
          7 79 rlineto
          endchar
        </CharString>
        <CharString name="Ecircumflexdotbelow">
          -47 -176 114 62 83.5 202.5 83 188.5 84.5 -9 9 hstemhm
          89.5 100 40.5 111 hintmask 01110100
          162 731 rmoveto
          11 hlineto
          36 22 35 21 34 23 35 -23 35 -21 36 -22 rrcurveto
          11 hlineto
          19 43 -44 30 -42 32 -38 34 rlinecurve
          -24 hlineto
          -38 -34 -41 -32 -45 -30 rrcurveto
          324 -686 rmoveto
          -155 -5 -123 1 -2 118 1 83 109 2 113 -3 8 79 -7 8 -106 -3 -116 2 3 187 122 1 152 -4 rlineto
          hintmask 01101100
          8 79 -6 9 rlineto
          hintmask 11110110
          -381 hlineto
          7 -449 -7 -193 rlineto
          379 hlineto
          7 79 rlineto
          -184 -141 rmoveto
          -36 -22 -23 -35 -35 20 -21 35 34 22 23 36 34 -19 21 -34 hvcurveto
          endchar
        </CharString>
        <CharString name="Ecircumflexgrave">
          -47 0 83.5 202.5 83 188.5 84.5 -9 9 hstemhm
          89.5 100 hintmask 11101000
          382 825 rmoveto
          8 hlineto
          35 28 -70 111 -7 3 -52 -24 -1 -9 rlineto
          -134 -223 rmoveto
          11 hlineto
          36 22 35 21 34 23 35 -23 35 -21 36 -22 rrcurveto
          11 hlineto
          19 43 -44 30 -42 32 -38 34 rlinecurve
          -24 hlineto
          -38 -34 -41 -32 -45 -30 rrcurveto
          325 -666 rmoveto
          -155 -5 -123 1 -2 118 1 83 109 2 113 -3 8 79 -7 8 -106 -3 -116 2 3 187 122 1 152 -4 rlineto
          hintmask 11011000
          8 79 -6 9 rlineto
          hintmask 11101000
          -381 hlineto
          7 -449 -7 -193 rlineto
          379 hlineto
          7 79 rlineto
          endchar
        </CharString>
        <CharString name="Ecircumflexhookabove">
          -47 0 83.5 202.5 83 188.5 84.5 -9 9 317 49 hstemhm
          89.5 100 197.5 55 hintmask 11101110
          361 959 rmoveto
          15 11 -7 -14 -16 -18 -25 -30 -23 hvcurveto
          34 -57 38 22 -20 35 rlineto
          36 30 15 20 24 vvcurveto
          35 -29 25 -38 -31 -32 -17 -27 -26 vhcurveto
          18 -28 rlineto
          15 18 22 8 17 hhcurveto
          -200 -248 rmoveto
          11 hlineto
          36 22 35 21 34 23 35 -23 35 -21 36 -22 rrcurveto
          11 hlineto
          19 43 -44 30 -42 32 -38 34 rlinecurve
          -24 hlineto
          -38 -34 -41 -32 -45 -30 rrcurveto
          325 -666 rmoveto
          -155 -5 -123 1 -2 118 1 83 109 2 113 -3 8 79 -7 8 -106 -3 -116 2 3 187 122 1 152 -4 rlineto
          hintmask 11011110
          8 79 -6 9 rlineto
          hintmask 11101110
          -381 hlineto
          7 -449 -7 -193 rlineto
          379 hlineto
          7 79 rlineto
          endchar
        </CharString>
        <CharString name="Ecircumflextilde">
          -47 0 83.5 202.5 83 188.5 84.5 -9 9 hstemhm
          89.5 100 hintmask 11101000
          382 825 rmoveto
          8 hlineto
          35 28 -70 111 -7 3 -52 -24 -1 -9 rlineto
          -134 -223 rmoveto
          11 hlineto
          36 22 35 21 34 23 35 -23 35 -21 36 -22 rrcurveto
          11 hlineto
          19 43 -44 30 -42 32 -38 34 rlinecurve
          -24 hlineto
          -38 -34 -41 -32 -45 -30 rrcurveto
          325 -666 rmoveto
          -155 -5 -123 1 -2 118 1 83 109 2 113 -3 8 79 -7 8 -106 -3 -116 2 3 187 122 1 152 -4 rlineto
          hintmask 11011000
          8 79 -6 9 rlineto
          hintmask 11101000
          -381 hlineto
          7 -449 -7 -193 rlineto
          379 hlineto
          7 79 rlineto
          endchar
        </CharString>
        <CharString name="Edieresis">
          -47 0 83.5 202.5 83 188.5 84.5 -9 9 98 106 hstemhm
          89.5 100 -45.5 104 60 104 hintmask 00000000
          hintmask 11101011
          195 740 rmoveto
          33 20 21 34 32 -18 19 -32 -33 -21 -21 -33 -33 18 -19 33 hvcurveto
          164 hmoveto
          33 20 21 34 32 -18 19 -32 -33 -21 -21 -33 -33 18 -19 33 hvcurveto
          107 -652 rmoveto
          -155 -5 rlineto
          hintmask 11100100
          -123 1 -2 118 1 83 109 2 113 -3 8 79 -7 8 -106 -3 -116 2 3 187 122 1 152 -4 rlineto
          hintmask 11010100
          8 79 -6 9 rlineto
          hintmask 11100100
          -381 hlineto
          7 -449 -7 -193 rlineto
          379 hlineto
          7 79 rlineto
          endchar
        </CharString>
        <CharString name="Edotaccent">
          -47 0 83.5 202.5 83 188.5 84.5 -9 9 101 114 hstemhm
          89.5 100 32.5 111 hintmask 11101110
          277 743 rmoveto
          34 22 23 36 34 -19 21 -34 -36 -22 -23 -35 -35 20 -21 35 hvcurveto
          189 -655 rmoveto
          -155 -5 -123 1 -2 118 1 83 109 2 113 -3 8 79 -7 8 -106 -3 -116 2 3 187 122 1 152 -4 rlineto
          hintmask 11011110
          8 79 -6 9 rlineto
          hintmask 11101110
          -381 hlineto
          7 -449 -7 -193 rlineto
          379 hlineto
          7 79 rlineto
          endchar
        </CharString>
        <CharString name="Edotbelow">
          -47 -176 114 62 83.5 202.5 83 188.5 84.5 -9 9 hstemhm
          89.5 100 40.5 111 hintmask 01110100
          466 88 rmoveto
          -155 -5 -123 1 -2 118 1 83 109 2 113 -3 8 79 -7 8 -106 -3 -116 2 3 187 122 1 152 -4 rlineto
          hintmask 01101100
          8 79 -6 9 rlineto
          hintmask 11110110
          -381 hlineto
          7 -449 -7 -193 rlineto
          379 hlineto
          7 79 rlineto
          -184 -141 rmoveto
          -36 -22 -23 -35 -35 20 -21 35 34 22 23 36 34 -19 21 -34 hvcurveto
          endchar
        </CharString>
        <CharString name="Egrave">
          -47 0 83.5 202.5 83 188.5 84.5 -9 9 hstemhm
          89.5 100 hintmask 11101000
          379 724 rmoveto
          17 44 -66 34 -64 33 -68 40 rlinecurve
          -10 -2 -27 -61 4 -10 71 -31 65 -25 67 -26 rlinecurve
          98 -632 rmoveto
          -155 -5 -123 1 -2 118 1 83 109 2 113 -3 8 79 -7 8 -106 -3 -116 2 3 187 122 1 152 -4 rlineto
          hintmask 11011000
          8 79 -6 9 rlineto
          hintmask 11101000
          -381 hlineto
          7 -449 -7 -193 rlineto
          379 hlineto
          7 79 rlineto
          endchar
        </CharString>
        <CharString name="Ehookabove">
          -47 0 83.5 202.5 83 188.5 84.5 -9 9 211 52 hstemhm
          89.5 100 94.5 58 hintmask 11101110
          256 853 rmoveto
          16 12 -7 -14 -18 -19 -26 -32 -24 hvcurveto
          36 -59 40 22 -21 37 rlineto
          38 31 16 21 26 vvcurveto
          36 -31 27 -40 -32 -34 -18 -28 -28 vhcurveto
          19 -30 rlineto
          16 20 22 8 18 hhcurveto
          210 -765 rmoveto
          -155 -5 -123 1 -2 118 1 83 109 2 113 -3 8 79 -7 8 -106 -3 -116 2 3 187 122 1 152 -4 rlineto
          hintmask 11011110
          8 79 -6 9 rlineto
          hintmask 11101110
          -381 hlineto
          7 -449 -7 -193 rlineto
          379 hlineto
          7 79 rlineto
          endchar
        </CharString>
        <CharString name="Emacron">
          -47 0 83.5 202.5 83 188.5 84.5 -9 9 118 66 hstemhm
          89.5 100 hintmask 11101100
          138 760 rmoveto
          282 hlineto
          5 59 -7 7 rlineto
          -282 hlineto
          -5 -58 rlineto
          335 -680 rmoveto
          -155 -5 -123 1 -2 118 1 83 109 2 113 -3 8 79 -7 8 -106 -3 -116 2 3 187 122 1 152 -4 rlineto
          hintmask 11011100
          8 79 -6 9 rlineto
          hintmask 11101100
          -381 hlineto
          7 -449 -7 -193 rlineto
          379 hlineto
          7 79 rlineto
          endchar
        </CharString>
        <CharString name="Eng">
          148 21 -21 22 -21 480 161 -5 7 -2 -20 22 -20 hstemhm
          90.5 88 328 92 hintmask 01000111
          595 192 rmoveto
          7 452 rlineto
          hintmask 01010011
          -97 -7 3 -471 rlineto
          -8 hlineto
          hintmask 10001011
          -302 476 rlineto
          -110 hlineto
          5 -452 -7 -190 rlineto
          97 hlineto
          -5 215 rlineto
          hintmask 01100011
          1 266 rlineto
          8 hlineto
          305 -480 -17 -38 -35 -29 -60 -32 rlinecurve
          -11 vlineto
          36 -56 rlineto
          134 58 47 60 104 vvcurveto
          endchar
        </CharString>
        <CharString name="Eogonek">
          -47 -197 63 134 83.5 202.5 83 188.5 84.5 -9 9 hstemhm
          89.5 100 104.5 62 hintmask 11110110
          468 -99 rmoveto
          -6 hlineto
          -22 -22 -24 -13 -21 hhcurveto
          -26 -13 17 22 15 6 16 11 17 hvcurveto
          31 47 rlineto
          61 hlineto
          7 79 -6 9 -155 -5 -123 1 -2 118 1 83 109 2 113 -3 8 79 -7 8 -106 -3 -116 2 3 187 122 1 152 -4 rlineto
          hintmask 11101110
          8 79 -6 9 rlineto
          hintmask 11110110
          -381 hlineto
          7 -449 -7 -193 rlineto
          260 hlineto
          -25 -36 rlineto
          -18 -27 -9 -26 -25 vvcurveto
          -48 33 -35 52 35 30 17 34 35 vhcurveto
          endchar
        </CharString>
        <CharString name="Eth">
          133 -6 82 -55 -21 287 71 204 84 hstemhm
          112 100.5 -97 94 322.5 107 hintmask 00000000
          hintmask 10111010
          110 642 rmoveto
          4 -284 rlineto
          -97 hlineto
          -4 -63 5 -8 rlineto
          hintmask 10110110
          97 hlineto
          1 -94 rlineto
          hintmask 01111010
          -6 -193 rlineto
          hintmask 10111010
          -3 60 113 -3 43 hhcurveto
          201 112 124 226 195 -102 107 -184 hvcurveto
          -10 -570 rmoveto
          -21 -65 3 4 -45 hvcurveto
          hintmask 10110110
          -3 119 1 85 rlineto
          136 hlineto
          4 63 -5 8 rlineto
          hintmask 10111010
          -134 hlineto
          3 200 rlineto
          2 38 72 2 21 hhcurveto
          125 62 -75 -166 -167 -69 -78 -120 hvcurveto
          endchar
        </CharString>
        <CharString name="Etilde">
          -47 0 83.5 202.5 83 188.5 84.5 -9 9 hstemhm
          89.5 100 hintmask 11101000
          143 728 rmoveto
          10 hlineto
          26 25 16 23 18 hhcurveto
          26 85 -31 -6 44 hvcurveto
          10 5 65 77 rlineto
          9 vlineto
          -30 32 rlineto
          -10 hlineto
          -27 -25 -17 -22 -17 hhcurveto
          -25 -86 30 6 -44 hvcurveto
          -11 -4 -65 -77 rlineto
          -9 vlineto
          354 -672 rmoveto
          -155 -5 -123 1 -2 118 1 83 109 2 113 -3 8 79 -7 8 -106 -3 -116 2 3 187 122 1 152 -4 rlineto
          hintmask 11011000
          8 79 -6 9 rlineto
          hintmask 11101000
          -381 hlineto
          7 -449 -7 -193 rlineto
          379 hlineto
          7 79 rlineto
          endchar
        </CharString>
        <CharString name="Euro">
          -62 -6 70 96 55 58 55 107 70 -33 -20 hstemhm
          83 88 hintmask 11110100
          312 64 rmoveto
          -66 -44 33 63 -20 hvcurveto
          168 hlineto
          5 49 -6 6 rlineto
          -177 hlineto
          -1 11 0 12 12 vvcurveto
          23 179 vlineto
          5 50 -6 5 rlineto
          -170 hlineto
          70 17 46 37 72 hhcurveto
          40 42 -13 -21 32 hvcurveto
          7 2 rlineto
          hintmask 11101100
          16 69 rlineto
          hintmask 11110100
          20 -38 -47 13 -47 hhcurveto
          -125 -78 -63 -114 -26 hvcurveto
          -73 hlineto
          -4 -49 4 -6 rlineto
          66 hlineto
          -1 -10 0 -10 0 -11 0 -10 0 -8 -9 flex1
          -66 hlineto
          -4 -49 4 -6 rlineto
          73 hlineto
          -108 23 73 -58 122 hhcurveto
          42 46 11 23 41 hvcurveto
          7 66 -9 6 rlineto
          -23 -35 -49 -13 -39 hhcurveto
          endchar
        </CharString>
        <CharString name="F">
          -97 21 -21 271.5 82.5 -7 7.5 200.5 87 -84.5 84.5 -9 9 hstemhm
          89.5 99 hintmask 11001010
          191 557 rmoveto
          103 1 rlineto
          hintmask 11010010
          150 -6 rlineto
          hintmask 11000110
          8 81 -7 9 rlineto
          hintmask 11001010
          -359 hlineto
          7 -449 -7 -193 rlineto
          105 hlineto
          -5 202 1 69 93 1 114 -3 rlineto
          hintmask 10101010
          8 78 -7 9 rlineto
          hintmask 11001010
          -106 -3 -101 2 rlineto
          endchar
        </CharString>
        <CharString name="G">
          59 -8 85 486 86 hstem
          34 107 304.5 95 vstem
          356 649 rmoveto
          -205 -117 -119 -223 -199 94 -116 199 63 66 12 27 86 hvcurveto
          -3 147 2 87 -97 -7 3 -96 -3 -65 rlineto
          -15 -50 -28 -5 -33 hhcurveto
          -132 -60 69 166 176 67 75 131 60 48 -16 -38 65 hvcurveto
          11 1 21 96 rlineto
          30 -61 -61 13 -66 hhcurveto
          endchar
        </CharString>
        <CharString name="Gbreve">
          59 -8 85 486 86 74 72 hstem
          34 107 304.5 95 vstem
          437 853 rmoveto
          -15 hlineto
          -37 -16 -33 -21 -46 hhcurveto
          -47 -35 21 37 -15 hvcurveto
          -15 hlineto
          -26 -33 rlineto
          -62 21 47 -35 67 hhcurveto
          66 50 35 62 22 hvcurveto
          -106 -171 rmoveto
          -205 -117 -119 -223 -199 94 -116 199 63 66 12 27 86 hvcurveto
          -3 147 2 87 -97 -7 3 -96 -3 -65 rlineto
          -15 -50 -28 -5 -33 hhcurveto
          -132 -60 69 166 176 67 75 131 60 48 -16 -38 65 hvcurveto
          11 1 21 96 rlineto
          30 -61 -61 13 -66 hhcurveto
          endchar
        </CharString>
        <CharString name="Gcircumflex">
          59 -8 85 486 86 hstem
          34 107 304.5 95 vstem
          210 731 rmoveto
          11 hlineto
          36 22 35 21 34 23 35 -23 35 -21 36 -22 rrcurveto
          11 hlineto
          19 43 -44 30 -42 32 -38 34 rlinecurve
          -24 hlineto
          -38 -34 -41 -32 -45 -30 rrcurveto
          166 -125 rmoveto
          -205 -117 -119 -223 -199 94 -116 199 63 66 12 27 86 hvcurveto
          -3 147 2 87 -97 -7 3 -96 -3 -65 rlineto
          -15 -50 -28 -5 -33 hhcurveto
          -132 -60 69 166 176 67 75 131 60 48 -16 -38 65 hvcurveto
          11 1 21 96 rlineto
          30 -61 -61 13 -66 hhcurveto
          endchar
        </CharString>
        <CharString name="Gcommaaccent">
          59 -66 -21 79 85 486 86 hstem
          34 107 153 77 74.5 95 vstem
          356 649 rmoveto
          -205 -117 -119 -223 -199 94 -116 199 63 66 12 27 86 hvcurveto
          -3 147 2 87 -97 -7 3 -96 -3 -65 rlineto
          -15 -50 -28 -5 -33 hhcurveto
          -132 -60 69 166 176 67 75 131 60 48 -16 -38 65 hvcurveto
          11 1 21 96 rlineto
          30 -61 -61 13 -66 hhcurveto
          -24 -698 rmoveto
          -25 -7 -22 -10 -20 -13 rrcurveto
          -8 vlineto
          19 -14 10 -16 -19 vvcurveto
          -29 -18 -28 -33 -27 vhcurveto
          -7 vlineto
          31 -28 rlineto
          65 46 32 46 46 vvcurveto
          27 -14 23 -25 18 vhcurveto
          endchar
        </CharString>
        <CharString name="Gdieresis">
          59 -8 85 486 86 91 106 hstemhm
          34 107 52 104 60 104 -15.5 95 hintmask 11111010
          247 846 rmoveto
          -33 -21 -21 -33 -33 18 -19 33 33 20 21 34 32 -18 19 -32 hvcurveto
          hintmask 11111100
          164 hmoveto
          -33 -21 -21 -33 -33 18 -19 33 33 20 21 34 32 -18 19 -32 hvcurveto
          -55 -197 rmoveto
          -205 -117 -119 -223 -199 94 -116 199 hvcurveto
          hintmask 11111010
          63 66 12 27 86 hvcurveto
          -3 147 2 87 -97 -7 3 -96 -3 -65 rlineto
          -15 -50 -28 -5 -33 hhcurveto
          -132 -60 69 166 176 67 75 131 60 48 -16 -38 65 hvcurveto
          11 1 21 96 rlineto
          hintmask 11111100
          30 -61 -61 13 -66 hhcurveto
          endchar
        </CharString>
        <CharString name="Gdotaccent">
          59 -8 85 486 86 94 114 hstem
          34 107 129 111 64.5 95 vstem
          328 857 rmoveto
          -36 -22 -23 -35 -35 20 -21 35 34 22 23 36 34 -19 21 -34 hvcurveto
          28 -208 rmoveto
          -205 -117 -119 -223 -199 94 -116 199 63 66 12 27 86 hvcurveto
          -3 147 2 87 -97 -7 3 -96 -3 -65 rlineto
          -15 -50 -28 -5 -33 hhcurveto
          -132 -60 69 166 176 67 75 131 60 48 -16 -38 65 hvcurveto
          11 1 21 96 rlineto
          30 -61 -61 13 -66 hhcurveto
          endchar
        </CharString>
        <CharString name="Germandbls">
          107 -8 81 -52 -21 565 84 hstemhm
          72.5 95.5 351 102 hintmask 10111000
          328 649 rmoveto
          -163 -96 -92 -137 2 hvcurveto
          3 -230 rlineto
          hintmask 01111000
          -7 -190 rlineto
          104 hlineto
          -4 202 2 218 rlineto
          92 1 53 53 100 hhcurveto
          41 39 -9 -21 46 hvcurveto
          -155 -199 5 -19 rlineto
          hintmask 10111000
          158 -50 62 -40 -64 vvcurveto
          -52 -39 -38 -58 -48 -57 27 43 -48 vhcurveto
          -12 -6 -14 -102 rlineto
          -28 53 62 -15 56 hhcurveto
          114 93 65 117 101 -71 46 -129 49 hvcurveto
          157 196 -4 18 rlineto
          39 -83 -77 26 -86 hhcurveto
          endchar
        </CharString>
        <CharString name="Gtilde">
          59 -8 85 486 86 hstem
          34 107 304.5 95 vstem
          490 831 rmoveto
          -30 32 rlineto
          -10 hlineto
          -27 -25 -17 -22 -17 hhcurveto
          -25 -86 30 6 -44 hvcurveto
          -11 -4 -65 -77 rlineto
          -9 vlineto
          31 -32 rlineto
          10 hlineto
          26 25 16 23 18 hhcurveto
          26 85 -31 -6 44 hvcurveto
          10 5 65 77 rlineto
          -134 -173 rmoveto
          -205 -117 -119 -223 -199 94 -116 199 63 66 12 27 86 hvcurveto
          -3 147 2 87 -97 -7 3 -96 -3 -65 rlineto
          -15 -50 -28 -5 -33 hhcurveto
          -132 -60 69 166 176 67 75 131 60 48 -16 -38 65 hvcurveto
          11 1 21 96 rlineto
          30 -61 -61 13 -66 hhcurveto
          endchar
        </CharString>
        <CharString name="H">
          148 21 -21 281.5 84 276.5 -20 hstem
          89.5 99 309.5 101 vstem
          596 202 rmoveto
          6 440 rlineto
          -106 hlineto
          4 -275 -156 -3 -156 3 4 275 rlineto
          -106 hlineto
          7 -449 -7 -193 rlineto
          105 hlineto
          -5 202 1 78 149 3 166 -3 1 -87 -7 -193 rlineto
          104 hlineto
          endchar
        </CharString>
        <CharString name="Hbar">
          180 21 -21 281.5 84 110.5 66 -66 166 hstemhm
          101 104.5 -100.5 98 308 103.5 -101 98 hintmask 11010101
          613 476 rmoveto
          hintmask 11010110
          70 hlineto
          hintmask 11100110
          4 60 -6 6 rlineto
          -67 hlineto
          hintmask 11010110
          1 100 rlineto
          -105 hlineto
          hintmask 11101010
          2 -100 rlineto
          -307 hlineto
          hintmask 11011001
          1 100 rlineto
          -106 hlineto
          hintmask 11101001
          2 -100 rlineto
          hintmask 11100101
          -63 hlineto
          hintmask 11010101
          -4 -60 5 -6 rlineto
          63 hlineto
          4 -283 -7 -193 rlineto
          104 hlineto
          -4 202 1 78 149 3 166 -3 1 -87 -7 -193 rlineto
          104 hlineto
          -4 202 rlineto
          -97 274 rmoveto
          1 -109 -156 -3 -156 3 2 109 rlineto
          endchar
        </CharString>
        <CharString name="Hcircumflex">
          148 21 -21 281.5 84 276.5 -20 hstem
          89.5 100.5 308 101 vstem
          226 731 rmoveto
          11 hlineto
          36 22 35 21 34 23 35 -23 35 -21 36 -22 rrcurveto
          11 hlineto
          19 43 -44 30 -42 32 -38 34 rlinecurve
          -24 hlineto
          -38 -34 -41 -32 -45 -30 rrcurveto
          390 -572 rmoveto
          6 440 rlineto
          -106 hlineto
          4 -275 -156 -3 -156 3 4 275 rlineto
          -106 hlineto
          7 -449 -7 -193 rlineto
          104 hlineto
          -4 202 1 78 149 3 166 -3 1 -87 -7 -193 rlineto
          104 hlineto
          endchar
        </CharString>
        <CharString name="I">
          -261 21 -21 642 -20 hstem
          89.5 99.5 vstem
          186 202 rmoveto
          6 440 rlineto
          -106 hlineto
          7 -449 -7 -193 rlineto
          105 hlineto
          endchar
        </CharString>
        <CharString name="I.ss01">
          -273 0 40 421 40 hstem
          85 92 vstem
          175 159 rmoveto
          4 302 rlineto
          188 40 -467 -40 183 hlineto
          4 -311 -3 -110 rlineto
          -184 -40 467 40 -189 hlineto
          endchar
        </CharString>
        <CharString name="IJ">
          61 21 -21 561.5 80.5 hstem
          89.5 99.5 226 96 vstem
          192 642 rmoveto
          -106 hlineto
          7 -449 -7 -193 rlineto
          104 hlineto
          -4 202 rlineto
          322 10 rmoveto
          6 430 rlineto
          -223 hlineto
          -6 -73 9 -8 117 1 4 -360 rlineto
          -83 vlineto
          -72 -35 -38 -87 -45 vhcurveto
          -11 vlineto
          36 -57 rlineto
          134 59 47 60 104 vvcurveto
          endchar
        </CharString>
        <CharString name="Iacute">
          -261 21 -21 642 -20 hstem
          89.5 99.5 vstem
          255 872 rmoveto
          -10 2 -68 -40 -64 -33 -66 -34 rlinecurve
          17 -44 11 -4 67 26 65 25 71 31 rlinecurve
          4 10 rlineto
          -96 -609 rmoveto
          6 440 rlineto
          -106 hlineto
          7 -449 -7 -193 rlineto
          104 hlineto
          endchar
        </CharString>
        <CharString name="Iacute_J.loclNLD">
          61 21 -21 561.5 80.5 hstem
          89.5 99.5 226 96 vstem
          255 872 rmoveto
          -10 2 -68 -40 -64 -33 -66 -34 rlinecurve
          17 -44 11 -4 67 26 65 25 71 31 rlinecurve
          4 10 rlineto
          280 hmoveto
          -27 61 -10 2 -68 -40 -64 -33 -66 -34 rlinecurve
          17 -44 11 -4 67 26 65 25 71 31 rlinecurve
          -366 -159 rmoveto
          -106 hlineto
          7 -449 -7 -193 rlineto
          104 hlineto
          -4 202 rlineto
          328 440 rmoveto
          -223 hlineto
          -6 -73 9 -8 117 1 4 -360 rlineto
          -83 vlineto
          -72 -35 -38 -87 -45 vhcurveto
          -11 vlineto
          36 -57 rlineto
          134 59 47 60 104 vvcurveto
          -2 93 rlineto
          endchar
        </CharString>
        <CharString name="Ibreve">
          -261 21 -21 642 -20 101 72 hstem
          89.5 99.5 vstem
          250 853 rmoveto
          -15 hlineto
          -37 -16 -33 -21 -46 hhcurveto
          -47 -35 21 37 -15 hvcurveto
          -15 hlineto
          -26 -33 rlineto
          -62 21 47 -35 67 hhcurveto
          66 50 35 62 22 hvcurveto
          -89 -618 rmoveto
          6 440 rlineto
          -106 hlineto
          7 -449 -7 -193 rlineto
          104 hlineto
          endchar
        </CharString>
        <CharString name="Icaron">
          -261 21 -21 642 -20 hstem
          89.5 99.5 vstem
          256 860 rmoveto
          -11 hlineto
          -36 -22 -35 -21 -34 -23 -35 23 -35 21 -36 22 rrcurveto
          -11 hlineto
          -19 -43 44 -30 42 -32 38 -34 rlinecurve
          24 hlineto
          38 34 41 32 45 30 rrcurveto
          -90 -615 rmoveto
          6 440 rlineto
          -106 hlineto
          7 -449 -7 -193 rlineto
          104 hlineto
          endchar
        </CharString>
        <CharString name="Icircumflex">
          -261 21 -21 642 -20 hstem
          89.5 99.5 vstem
          23 731 rmoveto
          11 hlineto
          36 22 35 21 34 23 35 -23 35 -21 36 -22 rrcurveto
          11 hlineto
          19 43 -44 30 -42 32 -38 34 rlinecurve
          -24 hlineto
          -38 -34 -41 -32 -45 -30 rrcurveto
          183 -572 rmoveto
          6 440 rlineto
          -106 hlineto
          7 -449 -7 -193 rlineto
          104 hlineto
          endchar
        </CharString>
        <CharString name="Idieresis">
          -261 21 -21 642 -20 118 106 hstemhm
          18 104 -32.5 99.5 -33 104 hintmask 00000000
          hintmask 11110100
          72 846 rmoveto
          -33 -21 -21 -33 -33 18 -19 33 33 20 21 34 32 -18 19 -32 hvcurveto
          138 hmoveto
          -33 -21 -21 -33 -33 18 -19 33 33 20 21 34 32 -18 19 -32 hvcurveto
          hintmask 11101000
          -24 -644 rmoveto
          6 440 rlineto
          -106 hlineto
          7 -449 -7 -193 rlineto
          104 hlineto
          endchar
        </CharString>
        <CharString name="Idotaccent">
          -261 21 -21 642 -20 121 114 hstemhm
          83 111 -104.5 99.5 hintmask 00000000
          hintmask 11110000
          141 857 rmoveto
          -36 -22 -23 -35 -35 20 -21 35 34 22 23 36 34 -19 21 -34 hvcurveto
          hintmask 11101000
          45 -655 rmoveto
          6 440 rlineto
          -106 hlineto
          7 -449 -7 -193 rlineto
          104 hlineto
          endchar
        </CharString>
        <CharString name="Idotbelow">
          -261 -176 114 83 -21 642 -20 hstemhm
          77 111 -98.5 99.5 hintmask 11101000
          186 202 rmoveto
          6 440 rlineto
          -106 hlineto
          7 -449 -7 -193 rlineto
          104 hlineto
          hintmask 11110000
          -55 -62 rmoveto
          -36 -22 -23 -35 -35 20 -21 35 34 22 23 36 34 -19 21 -34 hvcurveto
          endchar
        </CharString>
        <CharString name="Igrave">
          -261 21 -21 642 -20 hstem
          89.5 99.5 vstem
          49 873 rmoveto
          -27 -61 4 -10 71 -31 65 -25 67 -26 rlinecurve
          11 4 17 44 -66 34 -64 33 -68 40 rlinecurve
          127 -673 rmoveto
          6 440 rlineto
          -106 hlineto
          7 -449 -7 -193 rlineto
          104 hlineto
          endchar
        </CharString>
        <CharString name="Ihookabove">
          -261 21 -21 642 -20 231 52 hstemhm
          89.5 99.5 -44 58 hintmask 00000000
          hintmask 11101000
          132 905 rmoveto
          -32 -34 -18 -28 -28 hvcurveto
          19 -30 rlineto
          16 20 22 8 18 hhcurveto
          16 12 -7 -14 -18 -19 -26 -32 -24 hvcurveto
          36 -59 40 22 -21 37 rlineto
          38 31 16 21 26 vvcurveto
          36 -31 27 -40 vhcurveto
          hintmask 11110000
          54 -703 rmoveto
          6 440 rlineto
          -106 hlineto
          7 -449 -7 -193 rlineto
          104 hlineto
          endchar
        </CharString>
        <CharString name="Imacron">
          -261 21 -21 642 -20 138 66 hstem
          89.5 99.5 vstem
          255 819 rmoveto
          -7 7 rlineto
          -220 hlineto
          -5 -58 7 -8 rlineto
          220 hlineto
          -64 -558 rmoveto
          6 440 rlineto
          -106 hlineto
          7 -449 -7 -193 rlineto
          104 hlineto
          endchar
        </CharString>
        <CharString name="Iogonek">
          -261 -197 63 155 -21 642 -20 hstemhm
          36 62 -8.5 99.5 -12 12.5 hintmask 00000000
          hintmask 11110100
          185 -111 rmoveto
          -8 hlineto
          -14 -14 -16 -9 -16 hhcurveto
          -20 -13 12 23 21 11 25 36 53 hvcurveto
          hintmask 11101000
          45 hlineto
          -4 202 6 440 rlineto
          -106 hlineto
          7 -449 -7 -193 rlineto
          1 hlineto
          hintmask 11110100
          -40 -56 -11 -28 -31 vvcurveto
          -50 32 -32 49 28 25 11 21 24 vhcurveto
          endchar
        </CharString>
        <CharString name="Itilde">
          -261 21 -21 642 -20 hstem
          89.5 99.5 vstem
          284 828 rmoveto
          -30 32 rlineto
          -9 hlineto
          -26 -22 -13 -22 -18 hhcurveto
          -21 -70 30 5 -39 hvcurveto
          -10 -4 -59 -76 rlineto
          -9 vlineto
          31 -31 rlineto
          9 hlineto
          25 21 14 22 17 hhcurveto
          21 71 -30 -5 39 hvcurveto
          10 3 58 77 rlineto
          -98 -617 rmoveto
          6 440 rlineto
          -106 hlineto
          7 -449 -7 -193 rlineto
          104 hlineto
          endchar
        </CharString>
        <CharString name="J">
          -219 561.5 80.5 hstem
          136 96 vstem
          229 212 rmoveto
          6 430 rlineto
          -223 hlineto
          -6 -73 9 -8 117 1 4 -360 rlineto
          -83 vlineto
          -72 -35 -38 -87 -45 vhcurveto
          -11 vlineto
          36 -57 rlineto
          134 59 47 60 104 vvcurveto
          endchar
        </CharString>
        <CharString name="Jcircumflex">
          -219 561.5 80.5 hstem
          137 96 vstem
          128 870 rmoveto
          -38 -34 -41 -32 -45 -30 20 -43 rcurveline
          11 hlineto
          36 22 35 21 34 23 35 -23 35 -21 36 -22 rrcurveto
          11 hlineto
          19 43 -44 30 -42 32 -38 34 rlinecurve
          84 -228 rmoveto
          -225 hlineto
          -5 -73 8 -8 118 1 5 -360 rlineto
          -83 vlineto
          -72 -36 -38 -87 -45 vhcurveto
          -11 vlineto
          36 -57 rlineto
          134 59 48 60 104 vvcurveto
          -2 93 rlineto
          endchar
        </CharString>
        <CharString name="K">
          22 12 -21 30 -21 642 -20 hstemhm
          88.5 99.5 hintmask 01110000
          185 202 rmoveto
          6 440 rlineto
          -106 hlineto
          7 -449 -7 -193 rlineto
          105 hlineto
          357 642 rmoveto
          -114 hlineto
          -38 -58 -201 -243 rlineto
          -6 vlineto
          hintmask 10110000
          81 -117 88 -112 90 -109 11 -6 rcurveline
          34 4 33 6 33 9 rrcurveto
          hintmask 01110000
          2 12 -93 100 -91 109 -81 109 rlinecurve
          endchar
        </CharString>
        <CharString name="Kcommaaccent">
          22 -66 -21 99 -21 30 -21 642 -20 hstemhm
          88.5 99.5 92 77 hintmask 10111000
          185 202 rmoveto
          6 440 rlineto
          -106 hlineto
          7 -449 -7 -193 rlineto
          104 hlineto
          359 642 rmoveto
          -115 hlineto
          -38 -58 -201 -243 rlineto
          -6 vlineto
          hintmask 11011000
          81 -117 88 -112 90 -109 12 -6 rcurveline
          34 4 32 6 34 9 rrcurveto
          hintmask 10111100
          1 12 -93 100 -90 109 -81 109 rlinecurve
          16 -389 rmoveto
          -25 -7 -22 -10 -20 -13 rrcurveto
          -8 vlineto
          19 -14 10 -16 -19 vvcurveto
          -29 -18 -28 -33 -27 vhcurveto
          -7 vlineto
          31 -28 rlineto
          65 46 32 46 46 vvcurveto
          27 -14 23 -25 18 vhcurveto
          endchar
        </CharString>
        <CharString name="L">
          -117 0 86 -9 9 556 -20 hstemhm
          86.5 99.5 hintmask 00000000
          hintmask 01110000
          421 77 rmoveto
          -7 9 rlineto
          hintmask 10110000
          -229 hlineto
          -2 116 6 440 rlineto
          -106 hlineto
          7 -449 -7 -193 rlineto
          330 hlineto
          endchar
        </CharString>
        <CharString name="L.ss01">
          -156 0 40 36 7 378 40 hstem
          85 90 vstem
          177 461 rmoveto
          307 40 -584 -40 183 hlineto
          4 -309 -3 -112 rlineto
          -184 -40 584 40 -126 hlineto
          4 36 -6 7 rlineto
          -181 hlineto
          -2 78 rlineto
          endchar
        </CharString>
        <CharString name="Lacute">
          -117 0 86 -9 9 556 -20 hstemhm
          86.5 99.5 hintmask 10110000
          133 723 rmoveto
          11 -4 67 26 65 25 71 31 rlinecurve
          4 10 -27 61 -10 2 -68 -40 -64 -33 -66 -34 rlinecurve
          hintmask 01110000
          305 -690 rmoveto
          -7 9 rlineto
          hintmask 10110000
          -229 hlineto
          -2 116 6 440 rlineto
          -106 hlineto
          7 -449 -7 -193 rlineto
          330 hlineto
          endchar
        </CharString>
        <CharString name="Lcaron">
          -100 0 86 -9 9 492 8 0 -20 76 -20 hstemhm
          86.5 99.5 133 54 hintmask 00000000
          hintmask 01011100
          421 77 rmoveto
          -7 9 rlineto
          hintmask 10101110
          -229 hlineto
          -2 116 6 440 rlineto
          -106 hlineto
          7 -449 -7 -193 rlineto
          330 hlineto
          -87 387 rmoveto
          47 7 27 184 -7 8 -73 -5 -2 -187 rlineto
          endchar
        </CharString>
        <CharString name="Lcommaaccent">
          -117 -66 -21 87 86 -9 9 556 -20 hstemhm
          86.5 99.5 37 77 hintmask 00000000
          hintmask 10111000
          421 77 rmoveto
          -7 9 rlineto
          hintmask 11011100
          -229 hlineto
          -2 116 6 440 rlineto
          -106 hlineto
          7 -449 -7 -193 rlineto
          330 hlineto
          -152 -49 rmoveto
          -25 -7 -22 -10 -20 -13 rrcurveto
          -8 vlineto
          19 -14 10 -16 -19 vvcurveto
          -29 -18 -28 -33 -27 vhcurveto
          -7 vlineto
          31 -28 rlineto
          65 46 32 46 46 vvcurveto
          27 -14 23 -25 18 vhcurveto
          endchar
        </CharString>
        <CharString name="Ldot">
          -109 0 86 -9 9 239 114 203 -20 hstemhm
          86.5 99.5 107 111 hintmask 00000000
          hintmask 01111000
          421 77 rmoveto
          -7 9 rlineto
          hintmask 10111100
          -229 hlineto
          -2 116 6 440 rlineto
          -106 hlineto
          7 -449 -7 -193 rlineto
          330 hlineto
          -65 325 rmoveto
          34 22 23 36 34 -19 21 -34 -36 -22 -23 -35 -35 20 -21 35 hvcurveto
          endchar
        </CharString>
        <CharString name="Lslash">
          -103 0 86 -9 9 380 -20 196 -20 hstemhm
          100.5 101 -100 97.5 -94.5 94 hintmask 00000000
          hintmask 01110010
          436 77 rmoveto
          -7 9 rlineto
          hintmask 10110010
          -229 hlineto
          -2 116 1 120 150 78 -19 61 -11 5 rlineto
          hintmask 10111000
          -119 -62 3 238 rlineto
          -105 hlineto
          5 -289 rlineto
          hintmask 10110010
          -97 -50 19 -61 11 -6 68 36 1 -79 rlineto
          hintmask 10110100
          -7 -193 rlineto
          330 hlineto
          endchar
        </CharString>
        <CharString name="M">
          252 21 -21 71 134 280 157 hstem
          53 684 vstem
          737 hmoveto
          -61 642 rlineto
          -117 hlineto
          -30 -93 -130 -344 rlineto
          -8 hlineto
          -123 341 -30 96 rlineto
          -118 hlineto
          -67 -642 rlineto
          87 hlineto
          16 204 30 281 rlineto
          9 hlineto
          153 -414 rlineto
          82 hlineto
          165 414 rlineto
          7 hlineto
          30 -290 13 -195 rlineto
          endchar
        </CharString>
        <CharString name="M.ss01">
          144 0 40 45 118 157 141 -40 40 hstemhm
          -100 884 hintmask 11011000
          568 461 rmoveto
          216 40 -884 -40 215 hlineto
          -45 -421 rlineto
          -170 -40 884 40 -175 hlineto
          -158 421 rmoveto
          -14 -37 -94 -221 rlineto
          -7 hlineto
          -89 221 -13 37 rlineto
          295 -421 rmoveto
          -382 hlineto
          9 133 rlineto
          hintmask 11101000
          21 187 rlineto
          6 hlineto
          115 -275 rlineto
          73 hlineto
          124 275 rlineto
          6 hlineto
          20 -193 rlineto
          endchar
        </CharString>
        <CharString name="N">
          148 0 161 -140 -21 481 161 -5 7 -2 -20 22 -20 hstemhm
          90.5 88 328 92 hintmask 01000111
          595 192 rmoveto
          7 452 rlineto
          hintmask 10010011
          -97 -7 3 -476 rlineto
          -8 hlineto
          hintmask 01001011
          -302 481 rlineto
          -110 hlineto
          5 -452 -7 -190 rlineto
          97 hlineto
          -5 215 rlineto
          hintmask 01100011
          1 266 rlineto
          8 hlineto
          301 -481 rlineto
          111 hlineto
          endchar
        </CharString>
        <CharString name="Nacute">
          148 0 161 -140 -21 481 161 -5 7 -2 -20 22 -20 hstemhm
          90.5 88 327.5 92.5 hintmask 01000111
          458 872 rmoveto
          -10 2 -68 -40 -64 -33 -66 -34 rlinecurve
          17 -44 11 -4 67 26 65 25 71 31 rlinecurve
          4 10 rlineto
          110 -619 rmoveto
          7 452 rlineto
          hintmask 10010011
          -97 -7 2 -476 rlineto
          -7 hlineto
          hintmask 01001011
          -302 481 rlineto
          -110 hlineto
          5 -452 -7 -190 rlineto
          96 hlineto
          -4 215 rlineto
          hintmask 01100011
          1 266 rlineto
          7 hlineto
          302 -481 rlineto
          110 hlineto
          endchar
        </CharString>
        <CharString name="Ncaron">
          148 0 161 -140 -21 481 161 -5 7 -2 -20 22 -20 hstemhm
          90.5 88 327.5 92.5 hintmask 01000111
          459 860 rmoveto
          -11 hlineto
          -36 -22 -35 -21 -34 -23 -35 23 -35 21 -36 22 rrcurveto
          -11 hlineto
          -19 -43 44 -30 42 -32 38 -34 rlinecurve
          24 hlineto
          38 34 41 32 45 30 rrcurveto
          116 -625 rmoveto
          7 452 rlineto
          hintmask 10010011
          -97 -7 2 -476 rlineto
          -7 hlineto
          hintmask 01001011
          -302 481 rlineto
          -110 hlineto
          5 -452 -7 -190 rlineto
          96 hlineto
          -4 215 rlineto
          hintmask 01100011
          1 266 rlineto
          7 hlineto
          302 -481 rlineto
          110 hlineto
          endchar
        </CharString>
        <CharString name="Ncommaaccent">
          148 -66 -21 87 161 -140 -21 481 161 -5 7 -2 -20 22 -20 hstemhm
          90.5 88 151.5 77 99 92.5 hintmask 1010001101000000
          595 192 rmoveto
          7 452 rlineto
          hintmask 1100100101000000
          -97 -7 2 -476 rlineto
          -7 hlineto
          hintmask 1010010101000000
          -302 481 rlineto
          -110 hlineto
          5 -452 -7 -190 rlineto
          96 hlineto
          -4 215 rlineto
          hintmask 1011000111000000
          1 266 rlineto
          7 hlineto
          302 -481 rlineto
          110 hlineto
          -230 -49 rmoveto
          -25 -7 -22 -10 -20 -13 rrcurveto
          -8 vlineto
          19 -14 10 -16 -19 vvcurveto
          -29 -18 -28 -33 -27 vhcurveto
          -7 vlineto
          31 -28 rlineto
          65 46 32 46 46 vvcurveto
          27 -14 23 -25 18 vhcurveto
          endchar
        </CharString>
        <CharString name="Ntilde">
          148 0 161 -140 -21 481 161 -5 7 -2 -20 22 -20 hstemhm
          90.5 88 327.5 92.5 hintmask 01000111
          506 831 rmoveto
          -30 32 rlineto
          -10 hlineto
          -27 -25 -17 -22 -17 hhcurveto
          -25 -86 30 6 -44 hvcurveto
          -11 -4 -65 -77 rlineto
          -9 vlineto
          31 -32 rlineto
          10 hlineto
          26 25 16 23 18 hhcurveto
          26 85 -31 -6 44 hvcurveto
          10 5 65 77 rlineto
          89 -630 rmoveto
          7 452 rlineto
          hintmask 10010011
          -97 -7 2 -476 rlineto
          -7 hlineto
          hintmask 01001011
          -302 481 rlineto
          -110 hlineto
          5 -452 -7 -190 rlineto
          96 hlineto
          -4 215 rlineto
          hintmask 01100011
          1 266 rlineto
          7 hlineto
          302 -481 rlineto
          110 hlineto
          endchar
        </CharString>
        <CharString name="O">
          99 -9 83 491 85 hstem
          34 106 358 107 vstem
          329 650 rmoveto
          -189 -106 -120 -215 -206 99 -118 177 188 107 124 219 202 -99 114 -177 hvcurveto
          -9 -85 rmoveto
          121 57 -76 -174 -166 -59 -75 -121 -121 -57 78 176 163 58 74 122 hvcurveto
          endchar
        </CharString>
        <CharString name="OE">
          318 -12 83 -71 83.5 202.5 83 189 84 -73 85 -21 9 hstemhm
          34 106 318 93 hintmask 00000000
          hintmask 10101011
          354 654 rmoveto
          -203 -117 -124 -214 -207 110 -121 192 hvcurveto
          hintmask 01110011
          66 67 13 -1 60 hvcurveto
          300 hlineto
          8 79 -7 9 -158 -5 -120 1 -1 114 rlineto
          87 vlineto
          106 2 117 -3 8 79 -6 8 -112 -3 -111 2 2 188 rlineto
          129 hlineto
          146 -4 rlineto
          hintmask 01100111
          8 79 -7 9 rlineto
          hintmask 01110011
          -302 hlineto
          hintmask 10101011
          -57 -53 12 -65 hhcurveto
          -9 -85 rmoveto
          42 40 -6 -7 13 hvcurveto
          9 -5 4 -10 1 -25 4 -396 rcurveline
          -22 -7 -10 -16 -7 vhcurveto
          -5 -15 -38 -5 -36 hhcurveto
          -141 -65 82 169 167 67 80 138 hvcurveto
          endchar
        </CharString>
        <CharString name="Oacute">
          99 -9 83 491 85 hstem
          34 106 358 107 vstem
          436 872 rmoveto
          -10 2 -68 -40 -64 -33 -66 -34 rlinecurve
          17 -44 11 -4 67 26 65 25 71 31 rlinecurve
          4 10 rlineto
          -134 -161 rmoveto
          -189 -106 -120 -215 -206 99 -118 177 189 106 124 219 202 -99 114 -177 hvcurveto
          -10 -85 rmoveto
          122 57 -76 -174 -166 -60 -75 -120 -121 -57 78 176 163 57 74 122 hvcurveto
          endchar
        </CharString>
        <CharString name="Obreve">
          99 -9 83 491 85 73 72 hstem
          34 106 358 107 vstem
          431 853 rmoveto
          -15 hlineto
          -37 -16 -33 -21 -46 hhcurveto
          -47 -35 21 37 -15 hvcurveto
          -15 hlineto
          -26 -33 rlineto
          -62 21 47 -35 67 hhcurveto
          66 50 35 62 22 hvcurveto
          -127 -170 rmoveto
          -189 -106 -120 -215 -206 99 -118 177 189 106 124 219 202 -99 114 -177 hvcurveto
          -10 -85 rmoveto
          122 57 -76 -174 -166 -60 -75 -120 -121 -57 78 176 163 57 74 122 hvcurveto
          endchar
        </CharString>
        <CharString name="Ocaron">
          99 -9 83 491 85 hstem
          34 106 358 107 vstem
          437 860 rmoveto
          -11 hlineto
          -36 -22 -35 -21 -34 -23 -35 23 -35 21 -36 22 rrcurveto
          -11 hlineto
          -19 -43 44 -30 42 -32 38 -34 rlinecurve
          24 hlineto
          38 34 41 32 45 30 rrcurveto
          -128 -167 rmoveto
          -189 -106 -120 -215 -206 99 -118 177 189 106 124 219 202 -99 114 -177 hvcurveto
          -10 -85 rmoveto
          122 57 -76 -174 -166 -60 -75 -120 -121 -57 78 176 163 57 74 122 hvcurveto
          endchar
        </CharString>
        <CharString name="Ocircumflex">
          99 -9 83 491 85 hstem
          34 106 358 107 vstem
          204 731 rmoveto
          11 hlineto
          36 22 35 21 34 23 35 -23 35 -21 36 -22 rrcurveto
          11 hlineto
          19 43 -44 30 -42 32 -38 34 rlinecurve
          -24 hlineto
          -38 -34 -41 -32 -45 -30 rrcurveto
          145 -124 rmoveto
          -189 -106 -120 -215 -206 99 -118 177 189 106 124 219 202 -99 114 -177 hvcurveto
          -10 -85 rmoveto
          122 57 -76 -174 -166 -60 -75 -120 -121 -57 78 176 163 57 74 122 hvcurveto
          endchar
        </CharString>
        <CharString name="Ocircumflexacute">
          99 -9 83 491 85 hstem
          34 106 358 107 vstem
          503 943 rmoveto
          -51 24 -8 -3 -70 -111 35 -28 rlineto
          8 hlineto
          87 109 rlineto
          -301 -223 rmoveto
          11 hlineto
          36 22 35 21 34 23 35 -23 35 -21 36 -22 rrcurveto
          11 hlineto
          19 43 -44 30 -42 32 -38 34 rlinecurve
          -24 hlineto
          -38 -34 -41 -32 -45 -30 rrcurveto
          146 -104 rmoveto
          -189 -106 -120 -215 -206 99 -118 177 189 106 124 219 202 -99 114 -177 hvcurveto
          -10 -85 rmoveto
          122 57 -76 -174 -166 -60 -75 -120 -121 -57 78 176 163 57 74 122 hvcurveto
          endchar
        </CharString>
        <CharString name="Ocircumflexdotbelow">
          99 -176 114 53 83 491 85 hstem
          34 106 124 111 123 107 vstem
          212 725 rmoveto
          11 hlineto
          36 22 35 21 34 23 35 -23 35 -21 36 -22 rrcurveto
          11 hlineto
          19 43 -44 30 -42 32 -38 34 rlinecurve
          -24 hlineto
          -38 -34 -41 -32 -45 -30 rrcurveto
          137 -118 rmoveto
          -189 -106 -120 -215 -206 99 -118 177 189 106 124 219 202 -99 114 -177 hvcurveto
          -10 -85 rmoveto
          122 57 -76 -174 -166 -60 -75 -120 -121 -57 78 176 163 57 74 122 hvcurveto
          3 -627 rmoveto
          -36 -22 -23 -35 -35 20 -21 35 34 22 23 36 34 -19 21 -34 hvcurveto
          endchar
        </CharString>
        <CharString name="Ocircumflexgrave">
          99 -9 83 491 85 hstem
          34 106 358 107 vstem
          397 964 rmoveto
          -7 3 -52 -24 -1 -9 87 -109 rlineto
          8 hlineto
          35 28 rlineto
          -264 -142 rmoveto
          11 hlineto
          36 22 35 21 34 23 35 -23 35 -21 36 -22 rrcurveto
          11 hlineto
          19 43 -44 30 -42 32 -38 34 rlinecurve
          -24 hlineto
          -38 -34 -41 -32 -45 -30 rrcurveto
          146 -104 rmoveto
          -189 -106 -120 -215 -206 99 -118 177 189 106 124 219 202 -99 114 -177 hvcurveto
          -10 -85 rmoveto
          122 57 -76 -174 -166 -60 -75 -120 -121 -57 78 176 163 57 74 122 hvcurveto
          endchar
        </CharString>
        <CharString name="Ocircumflexhookabove">
          99 -9 83 491 85 309 49 hstemhm
          34 106 289 55 14 107 hintmask 00000000
          hintmask 11111100
          417 1008 rmoveto
          -31 -32 -17 -27 -26 hvcurveto
          18 -28 rlineto
          15 18 22 8 17 hhcurveto
          15 11 -7 -14 -16 -18 -25 -30 -23 hvcurveto
          34 -57 38 22 -20 35 rlineto
          36 30 15 20 24 vvcurveto
          35 -29 25 -38 vhcurveto
          -214 -297 rmoveto
          11 hlineto
          36 22 35 21 34 23 35 -23 35 -21 36 -22 rrcurveto
          11 hlineto
          19 43 -44 30 -42 32 -38 34 rlinecurve
          -24 hlineto
          -38 -34 -41 -32 -45 -30 rrcurveto
          hintmask 11010100
          146 -104 rmoveto
          -189 -106 -120 -215 -206 99 -118 177 189 106 124 219 202 -99 114 -177 hvcurveto
          -10 -85 rmoveto
          122 57 -76 -174 -166 -60 -75 -120 -121 -57 78 176 163 57 74 122 hvcurveto
          endchar
        </CharString>
        <CharString name="Ocircumflextilde">
          99 -9 83 491 85 hstem
          34 106 358 107 vstem
          477 960 rmoveto
          -28 30 rlineto
          -9 hlineto
          -25 -24 -15 -22 -17 hhcurveto
          -23 -80 30 5 -41 hvcurveto
          -10 -4 -61 -74 rlineto
          -9 vlineto
          29 -30 rlineto
          9 hlineto
          25 23 16 22 16 hhcurveto
          24 80 -30 -5 40 hvcurveto
          11 4 60 74 rlineto
          -274 -240 rmoveto
          11 hlineto
          36 22 35 21 34 23 35 -23 35 -21 36 -22 rrcurveto
          11 hlineto
          19 43 -44 30 -42 32 -38 34 rlinecurve
          -24 hlineto
          -38 -34 -41 -32 -45 -30 rrcurveto
          146 -104 rmoveto
          -189 -106 -120 -215 -206 99 -118 177 189 106 124 219 202 -99 114 -177 hvcurveto
          -10 -85 rmoveto
          122 57 -76 -174 -166 -60 -75 -120 -121 -57 78 176 163 57 74 122 hvcurveto
          endchar
        </CharString>
        <CharString name="Odieresis">
          99 -9 83 491 85 90 106 hstem
          34 106 46 104 60 104 44 107 vstem
          240 846 rmoveto
          -33 -21 -21 -33 -33 18 -19 33 33 20 21 34 32 -18 19 -32 hvcurveto
          164 hmoveto
          -33 -21 -21 -33 -33 18 -19 33 33 20 21 34 32 -18 19 -32 hvcurveto
          -75 -196 rmoveto
          -189 -106 -120 -215 -206 99 -118 177 189 106 124 219 202 -99 114 -177 hvcurveto
          -10 -85 rmoveto
          122 57 -76 -174 -166 -60 -75 -120 -121 -57 78 176 163 57 74 122 hvcurveto
          endchar
        </CharString>
        <CharString name="Odotbelow">
          99 -176 114 53 83 491 85 hstem
          34 106 124 111 123 107 vstem
          329 650 rmoveto
          -189 -106 -120 -215 -206 99 -118 177 189 106 124 219 202 -99 114 -177 hvcurveto
          -10 -85 rmoveto
          122 57 -76 -174 -166 -60 -75 -120 -121 -57 78 176 163 57 74 122 hvcurveto
          3 -627 rmoveto
          -36 -22 -23 -35 -35 20 -21 35 34 22 23 36 34 -19 21 -34 hvcurveto
          endchar
        </CharString>
        <CharString name="Ograve">
          99 -9 83 491 85 hstem
          34 106 358 107 vstem
          230 873 rmoveto
          -27 -61 4 -10 71 -31 65 -25 67 -26 rlinecurve
          11 4 17 44 -66 34 -64 33 -68 40 rlinecurve
          89 -225 rmoveto
          -189 -106 -120 -215 -206 99 -118 177 189 106 124 219 202 -99 114 -177 hvcurveto
          -10 -85 rmoveto
          122 57 -76 -174 -166 -60 -75 -120 -121 -57 78 176 163 57 74 122 hvcurveto
          endchar
        </CharString>
        <CharString name="Ohm">
          208 0 78 -62 -21 24 -21 568 84 hstemhm
          86 107 18.5 116.5 227 107 hintmask 10011010
          381 650 rmoveto
          -195 -100 -134 -155 -99 41 -102 85 -77 hvcurveto
          -1 -5 rlineto
          -78 hlineto
          -88 7 rlineto
          hintmask 00111010
          -13 -81 7 -7 rlineto
          hintmask 10011110
          92 3 rlineto
          154 hlineto
          38 -2 5 4 rlineto
          75 vlineto
          hintmask 10011010
          -87 71 -48 110 105 vvcurveto
          114 55 89 125 125 57 -90 -115 -104 -48 -110 -89 -70 vhcurveto
          -75 vlineto
          6 -4 37 2 rlineto
          136 hlineto
          hintmask 01011010
          106 -5 rlineto
          hintmask 10011010
          12 85 -6 7 -82 -9 rlineto
          -91 hlineto
          -2 5 rlineto
          86 79 42 109 101 vvcurveto
          149 -90 129 -191 vhcurveto
          endchar
        </CharString>
        <CharString name="Ohookabove">
          99 -9 83 491 85 203 52 hstem
          34 106 187 58 113 107 vstem
          314 905 rmoveto
          -32 -34 -18 -28 -28 hvcurveto
          19 -30 rlineto
          16 20 22 8 18 hhcurveto
          16 12 -7 -14 -18 -19 -26 -32 -24 hvcurveto
          36 -59 40 22 -21 37 rlineto
          38 31 16 21 26 vvcurveto
          36 -31 27 -40 vhcurveto
          15 -255 rmoveto
          -189 -106 -120 -215 -206 99 -118 177 189 106 124 219 202 -99 114 -177 hvcurveto
          -10 -85 rmoveto
          122 57 -76 -174 -166 -60 -75 -120 -121 -57 78 176 163 57 74 122 hvcurveto
          endchar
        </CharString>
        <CharString name="Ohorn">
          104 -9 83 491 85 -82 49 hstemhm
          34 106 358 107 -42 80 hintmask 00000000
          hintmask 10110100
          583 769 rmoveto
          -16 -19 -8 -12 -15 hvcurveto
          -2 -8 rlineto
          21 -20 11 -25 -23 vvcurveto
          -36 -30 -20 -37 vhcurveto
          hintmask 11011000
          -45 -38 33 -91 hhcurveto
          -179 -109 -120 -216 -205 99 -118 179 186 107 127 212 hvcurveto
          hintmask 10111000
          105 -26 79 -53 54 vhcurveto
          hintmask 10110100
          66 6 51 40 66 vvcurveto
          52 -30 37 -30 vhcurveto
          hintmask 11011000
          -264 -204 rmoveto
          122 57 -76 -173 -167 -59 -75 -120 -122 -57 78 174 164 58 75 121 hvcurveto
          endchar
        </CharString>
        <CharString name="Ohornacute">
          104 -9 83 491 85 -82 49 hstemhm
          34 106 358 107 -42 80 hintmask 11011000
          436 872 rmoveto
          -10 2 -68 -40 -64 -33 -66 -34 rlinecurve
          17 -44 11 -4 67 26 65 25 71 31 rlinecurve
          4 10 rlineto
          hintmask 10110100
          120 -42 rmoveto
          -16 -19 -8 -12 -15 hvcurveto
          -2 -8 rlineto
          21 -20 11 -25 -23 vvcurveto
          -36 -30 -20 -37 vhcurveto
          hintmask 11011000
          -45 -38 33 -91 hhcurveto
          -179 -109 -120 -216 -205 99 -118 179 187 106 127 212 hvcurveto
          hintmask 10111000
          105 -26 79 -53 54 vhcurveto
          hintmask 10110100
          66 6 51 40 66 vvcurveto
          52 -30 37 -30 vhcurveto
          hintmask 11011000
          -264 -204 rmoveto
          122 57 -76 -173 -167 -59 -75 -121 -121 -57 78 174 164 57 75 122 hvcurveto
          endchar
        </CharString>
        <CharString name="Ohorndotbelow">
          104 -176 114 53 83 491 85 -82 49 hstemhm
          34 106 124 111 123 107 -42 80 hintmask 00000000
          hintmask 01011001
          583 769 rmoveto
          -16 -19 -8 -12 -15 hvcurveto
          -2 -8 rlineto
          21 -20 11 -25 -23 vvcurveto
          -36 -30 -20 -37 vhcurveto
          hintmask 01101010
          -45 -38 33 -91 hhcurveto
          -179 -109 -120 -216 -205 99 -118 179 187 106 127 212 hvcurveto
          hintmask 01011010
          105 -26 79 -53 54 vhcurveto
          hintmask 01011001
          66 6 51 40 66 vvcurveto
          52 -30 37 -30 vhcurveto
          hintmask 11101110
          -264 -204 rmoveto
          122 57 -76 -173 -167 -59 -75 -121 -121 -57 78 174 164 57 75 122 hvcurveto
          3 -627 rmoveto
          -36 -22 -23 -35 -35 20 -21 35 34 22 23 36 34 -19 21 -34 hvcurveto
          endchar
        </CharString>
        <CharString name="Ohorngrave">
          104 -9 83 491 85 -82 49 hstemhm
          34 106 358 107 -42 80 hintmask 11011000
          230 873 rmoveto
          -27 -61 4 -10 71 -31 65 -25 67 -26 rlinecurve
          11 4 17 44 -66 34 -64 33 -68 40 rlinecurve
          hintmask 10110100
          343 -106 rmoveto
          -16 -19 -8 -12 -15 hvcurveto
          -2 -8 rlineto
          21 -20 11 -25 -23 vvcurveto
          -36 -30 -20 -37 vhcurveto
          hintmask 11011000
          -45 -38 33 -91 hhcurveto
          -179 -109 -120 -216 -205 99 -118 179 187 106 127 212 hvcurveto
          hintmask 10111000
          105 -26 79 -53 54 vhcurveto
          hintmask 10110100
          66 6 51 40 66 vvcurveto
          52 -30 37 -30 vhcurveto
          hintmask 11011000
          -264 -204 rmoveto
          122 57 -76 -173 -167 -59 -75 -121 -121 -57 78 174 164 57 75 122 hvcurveto
          endchar
        </CharString>
        <CharString name="Ohornhookabove">
          104 -9 83 491 85 -82 49 236 52 hstemhm
          34 106 187 58 113 107 -42 80 hintmask 11011110
          314 905 rmoveto
          -32 -34 -18 -28 -28 hvcurveto
          19 -30 rlineto
          16 20 22 8 18 hhcurveto
          16 12 -7 -14 -18 -19 -26 -32 -24 hvcurveto
          36 -59 40 22 -21 37 rlineto
          38 31 16 21 26 vvcurveto
          36 -31 27 -40 vhcurveto
          hintmask 10111101
          269 -136 rmoveto
          -16 -19 -8 -12 -15 hvcurveto
          -2 -8 rlineto
          21 -20 11 -25 -23 vvcurveto
          -36 -30 -20 -37 vhcurveto
          hintmask 11011110
          -45 -38 33 -91 hhcurveto
          -179 -109 -120 -216 -205 99 -118 179 187 106 127 212 hvcurveto
          hintmask 10111110
          105 -26 79 -53 54 vhcurveto
          hintmask 10111101
          66 6 51 40 66 vvcurveto
          52 -30 37 -30 vhcurveto
          hintmask 11011110
          -264 -204 rmoveto
          122 57 -76 -173 -167 -59 -75 -121 -121 -57 78 174 164 57 75 122 hvcurveto
          endchar
        </CharString>
        <CharString name="Ohorntilde">
          104 -9 83 491 85 -82 49 hstemhm
          34 106 358 107 -42 80 hintmask 11011000
          484 831 rmoveto
          -30 32 rlineto
          -10 hlineto
          -27 -25 -17 -22 -17 hhcurveto
          -25 -86 30 6 -44 hvcurveto
          -11 -4 -65 -77 rlineto
          -9 vlineto
          31 -32 rlineto
          10 hlineto
          26 25 16 23 18 hhcurveto
          26 85 -31 -6 44 hvcurveto
          10 5 65 77 rlineto
          hintmask 10110100
          99 -53 rmoveto
          -16 -19 -8 -12 -15 hvcurveto
          -2 -8 rlineto
          21 -20 11 -25 -23 vvcurveto
          -36 -30 -20 -37 vhcurveto
          hintmask 11011000
          -45 -38 33 -91 hhcurveto
          -179 -109 -120 -216 -205 99 -118 179 187 106 127 212 hvcurveto
          hintmask 10111000
          105 -26 79 -53 54 vhcurveto
          hintmask 10110100
          66 6 51 40 66 vvcurveto
          52 -30 37 -30 vhcurveto
          hintmask 11011000
          -264 -204 rmoveto
          122 57 -76 -173 -167 -59 -75 -121 -121 -57 78 174 164 57 75 122 hvcurveto
          endchar
        </CharString>
        <CharString name="Ohungarumlaut">
          99 -9 83 491 85 hstem
          34 106 358 107 vstem
          222 717 rmoveto
          10 2 42 37 39 37 40 38 rlinecurve
          -1 10 -46 32 -9 -2 -35 -43 -36 -41 -37 -42 rlinecurve
          181 -28 rmoveto
          10 2 40 37 41 37 40 38 rlinecurve
          -1 10 -48 32 -7 -2 -36 -43 -36 -41 -36 -42 rlinecurve
          -8 -95 rmoveto
          -189 -106 -120 -215 -206 99 -118 177 189 106 124 219 202 -99 114 -177 hvcurveto
          -10 -85 rmoveto
          122 57 -76 -174 -166 -60 -75 -120 -121 -57 78 176 163 57 74 122 hvcurveto
          endchar
        </CharString>
        <CharString name="Omacron">
          99 -9 83 491 85 110 66 hstem
          34 106 358 107 vstem
          467 819 rmoveto
          -7 7 rlineto
          -282 hlineto
          -5 -58 7 -8 rlineto
          282 hlineto
          -133 -110 rmoveto
          -189 -106 -120 -215 -206 99 -118 177 189 106 124 219 202 -99 114 -177 hvcurveto
          -10 -85 rmoveto
          122 57 -76 -174 -166 -60 -75 -120 -121 -57 78 176 163 57 74 122 hvcurveto
          endchar
        </CharString>
        <CharString name="Omega">
          208 0 78 -62 -21 24 -21 568 84 hstemhm
          86 107 18.5 116.5 227 107 hintmask 10011010
          381 650 rmoveto
          -195 -100 -134 -155 -99 41 -102 85 -77 hvcurveto
          -1 -5 rlineto
          -78 hlineto
          -88 7 rlineto
          hintmask 00111010
          -13 -81 7 -7 rlineto
          hintmask 10011110
          92 3 rlineto
          154 hlineto
          38 -2 5 4 rlineto
          75 vlineto
          hintmask 10011010
          -87 71 -48 110 105 vvcurveto
          114 55 89 125 125 57 -90 -115 -104 -47 -110 -90 -70 vhcurveto
          -75 vlineto
          6 -4 37 2 rlineto
          136 hlineto
          hintmask 01011010
          106 -5 rlineto
          hintmask 10011010
          12 85 -6 7 -82 -9 rlineto
          -91 hlineto
          -2 5 rlineto
          86 79 42 109 101 vvcurveto
          149 -90 129 -191 vhcurveto
          endchar
        </CharString>
        <CharString name="Oogonek">
          99 -197 63 125 83 491 85 hstem
          34 106 179 62 117 107 vstem
          438 15 rmoveto
          108 46 59 110 163 vvcurveto
          202 -99 114 -177 -189 -106 -120 -215 -206 99 -118 177 20 20 1 3 18 vhcurveto
          -22 -31 rlineto
          -18 -27 -9 -26 -25 vvcurveto
          -48 33 -35 52 35 30 17 34 35 vhcurveto
          -11 47 rlineto
          -6 hlineto
          -22 -22 -24 -13 -21 hhcurveto
          -26 -13 17 22 15 6 16 11 17 hvcurveto
          -258 375 rmoveto
          163 57 74 122 122 57 -76 -174 -166 -60 -75 -120 -121 -57 78 176 vhcurveto
          endchar
        </CharString>
        <CharString name="Oslash">
          99 -9 83 491 85 hstem
          34 106 358 107 vstem
          534 695 rmoveto
          -7 11 -58 23 -43 -92 rlineto
          8 -29 -33 5 -35 hhcurveto
          -189 -106 -120 -215 -129 39 -94 72 -53 hvcurveto
          -54 -115 5 -9 59 -24 54 115 rlineto
          -10 30 34 -5 37 hhcurveto
          189 106 124 219 128 -40 92 -73 51 hvcurveto
          -352 -277 rmoveto
          163 57 74 122 26 22 -3 -7 20 vhcurveto
          -199 -425 rlineto
          -32 41 -16 65 92 vvcurveto
          178 -254 rmoveto
          -27 -24 4 8 -20 hvcurveto
          201 427 rlineto
          34 -40 16 -65 -93 vvcurveto
          -166 -60 -75 -120 vhcurveto
          endchar
        </CharString>
        <CharString name="Oslashacute">
          99 -9 83 491 85 hstem
          34 106 358 107 vstem
          244 724 rmoveto
          11 -4 67 26 65 25 71 31 rlinecurve
          4 10 -27 61 -10 2 -68 -40 -64 -33 -66 -34 rlinecurve
          307 -73 rmoveto
          -7 11 -58 23 -43 -92 rlineto
          8 -29 -33 5 -35 hhcurveto
          -189 -106 -120 -215 -129 39 -94 72 -53 hvcurveto
          -54 -115 5 -9 59 -24 54 115 rlineto
          -10 30 34 -5 37 hhcurveto
          189 106 124 219 128 -40 92 -73 51 hvcurveto
          -352 -277 rmoveto
          163 57 74 122 26 22 -3 -7 20 vhcurveto
          -199 -425 rlineto
          -32 41 -16 65 92 vvcurveto
          178 -254 rmoveto
          -27 -24 4 8 -20 hvcurveto
          201 427 rlineto
          34 -40 16 -65 -93 vvcurveto
          -166 -60 -75 -120 vhcurveto
          endchar
        </CharString>
        <CharString name="Otilde">
          99 -9 83 491 85 hstem
          34 106 358 107 vstem
          484 831 rmoveto
          -30 32 rlineto
          -10 hlineto
          -27 -25 -17 -22 -17 hhcurveto
          -25 -86 30 6 -44 hvcurveto
          -11 -4 -65 -77 rlineto
          -9 vlineto
          31 -32 rlineto
          10 hlineto
          26 25 16 23 18 hhcurveto
          26 85 -31 -6 44 hvcurveto
          10 5 65 77 rlineto
          -155 -172 rmoveto
          -189 -106 -120 -215 -206 99 -118 177 189 106 124 219 202 -99 114 -177 hvcurveto
          -10 -85 rmoveto
          122 57 -76 -174 -166 -60 -75 -120 -121 -57 78 176 163 57 74 122 hvcurveto
          endchar
        </CharString>
        <CharString name="P">
          -6 21 -21 217 81 262.5 82.5 hstem
          89.5 99.5 210 107 vstem
          86 642 rmoveto
          7 -449 -7 -193 rlineto
          105 hlineto
          -5 202 rlineto
          15 71 vlineto
          155 94 90 144 124 -73 68 -129 hvcurveto
          -117 -344 rmoveto
          4 260 85 3 rlineto
          81 -3 42 -36 -81 vvcurveto
          -82 -39 -49 -73 -14 vhcurveto
          endchar
        </CharString>
        <CharString name="Q">
          103 -175 -21 187 83 -62 -21 574 85 hstemhm
          34 106 358 107 hintmask 11011100
          730 -114 rmoveto
          hintmask 10111100
          -111 22 -100 43 -91 60 rrcurveto
          114 43 63 113 165 vvcurveto
          205 -99 113 -177 -189 -106 -120 -215 vhcurveto
          hintmask 11011100
          -206 98 -118 180 vhcurveto
          22 1 101 -86 119 -64 124 -38 rlinecurve
          9 4 19 18 13 18 15 30 rlinecurve
          -594 451 rmoveto
          166 57 74 122 121 58 -76 -171 -168 -61 -76 -117 -122 -58 78 173 vhcurveto
          endchar
        </CharString>
        <CharString name="R">
          30 12 -21 30 -21 229 82.5 249 82.5 hstemhm
          89.5 100 209.5 108 hintmask 01111100
          380 257 rmoveto
          80 42 47 71 86 vvcurveto
          121 -74 66 -129 vhcurveto
          -218 -1 7 -449 -7 -193 rlineto
          105 hlineto
          -5 202 rlineto
          27 109 vlineto
          hintmask 10111100
          42 -78 46 -77 46 -75 12 -8 rcurveline
          34 3 33 7 32 11 1 12 rcurveline
          hintmask 01111100
          -58 77 -54 77 -49 79 rrcurveto
          -192 56 rmoveto
          3 246 85 3 rlineto
          81 -3 42 -35 -76 vvcurveto
          -73 -35 -45 -66 -20 vhcurveto
          endchar
        </CharString>
        <CharString name="Racute">
          30 12 -21 30 -21 229 82.5 249 82.5 hstemhm
          89.5 100 209.5 107 hintmask 01111100
          228 701 rmoveto
          10 -1 60 39 58 39 63 46 rlinecurve
          2 10 -38 54 -10 1 -58 -55 -54 -45 -59 -48 rlinecurve
          178 -484 rmoveto
          79 42 47 71 86 vvcurveto
          121 -73 66 -129 vhcurveto
          -218 -1 7 -449 -7 -193 rlineto
          104 hlineto
          -4 202 rlineto
          27 109 vlineto
          hintmask 10111100
          42 -78 46 -77 46 -75 13 -8 rcurveline
          34 3 32 7 32 11 1 12 rcurveline
          hintmask 01111100
          -58 77 -53 77 -50 79 rrcurveto
          -192 56 rmoveto
          3 246 84 3 rlineto
          82 -3 42 -35 -76 vvcurveto
          -73 -35 -45 -66 -20 vhcurveto
          endchar
        </CharString>
        <CharString name="Rcaron">
          30 12 -21 30 -21 229 82.5 249 82.5 hstemhm
          89.5 100 209.5 107 hintmask 01111100
          299 704 rmoveto
          45 51 44 47 41 39 -27 40 rcurveline
          -11 hlineto
          -39 -35 -35 -32 -31 -33 -30 33 -35 32 -40 35 rrcurveto
          -10 hlineto
          -27 -40 44 -42 44 -48 41 -47 rlinecurve
          107 -447 rmoveto
          79 42 47 71 86 vvcurveto
          121 -73 66 -129 vhcurveto
          -218 -1 7 -449 -7 -193 rlineto
          104 hlineto
          -4 202 rlineto
          27 109 vlineto
          hintmask 10111100
          42 -78 46 -77 46 -75 13 -8 rcurveline
          34 3 32 7 32 11 1 12 rcurveline
          hintmask 01111100
          -58 77 -53 77 -50 79 rrcurveto
          -192 56 rmoveto
          3 246 84 3 rlineto
          82 -3 42 -35 -76 vvcurveto
          -73 -35 -45 -66 -20 vhcurveto
          endchar
        </CharString>
        <CharString name="Rcommaaccent">
          30 -66 -21 99 -21 30 -21 229 82.5 249 82.5 hstemhm
          89.5 100 84.5 77 48 107 hintmask 10111111
          380 257 rmoveto
          79 42 47 71 86 vvcurveto
          121 -73 66 -129 vhcurveto
          -218 -1 7 -449 -7 -193 rlineto
          104 hlineto
          -4 202 rlineto
          27 109 vlineto
          hintmask 11011111
          42 -78 46 -77 46 -75 13 -8 rcurveline
          34 3 32 7 32 11 1 12 rcurveline
          hintmask 10111111
          -58 77 -53 77 -50 79 rrcurveto
          -192 56 rmoveto
          3 246 84 3 rlineto
          82 -3 42 -35 -76 vvcurveto
          -73 -35 -45 -66 -20 vhcurveto
          14 -359 rmoveto
          -25 -7 -22 -10 -20 -13 rrcurveto
          -8 vlineto
          19 -14 10 -16 -19 vvcurveto
          -29 -18 -28 -33 -27 vhcurveto
          -7 vlineto
          31 -28 rlineto
          65 46 32 46 46 vvcurveto
          27 -14 23 -25 18 vhcurveto
          endchar
        </CharString>
        <CharString name="S">
          -57 -8 81 493 83 hstem
          54 101 187 102 vstem
          274 649 rmoveto
          -131 -89 -82 -105 hvcurveto
          -188 288 17 -125 vvcurveto
          -47 -41 -46 -73 -47 -65 21 49 -52 vhcurveto
          -13 -6 -13 -102 rlineto
          -28 57 65 -15 58 hhcurveto
          136 90 86 104 hvcurveto
          187 -289 -11 118 vvcurveto
          44 38 46 69 41 48 -18 -31 42 vhcurveto
          16 6 17 94 rlineto
          24 -57 -53 8 -42 hhcurveto
          endchar
        </CharString>
        <CharString name="Sacute">
          -57 -8 81 493 83 hstem
          54 102 186 102 vstem
          351 888 rmoveto
          -10 1 -58 -55 -54 -45 -59 -48 rlinecurve
          26 -40 10 -1 60 39 58 39 63 46 rlinecurve
          2 10 rlineto
          -114 -185 rmoveto
          -131 -90 -82 -105 hvcurveto
          -188 288 17 -125 vvcurveto
          -47 -41 -46 -72 -47 -66 21 49 -52 vhcurveto
          -12 -6 -14 -102 rlineto
          -28 57 65 -15 58 hhcurveto
          137 89 86 104 hvcurveto
          187 -288 -11 118 vvcurveto
          44 38 46 68 42 48 -18 -31 42 vhcurveto
          16 6 16 94 rlineto
          24 -57 -53 8 -41 hhcurveto
          endchar
        </CharString>
        <CharString name="Scaron">
          -57 -8 81 493 83 hstem
          54 102 186 102 vstem
          369 881 rmoveto
          -11 hlineto
          -39 -35 -35 -32 -31 -33 -30 33 -35 32 -40 35 rrcurveto
          -10 hlineto
          -27 -40 44 -42 44 -48 41 -47 rlinecurve
          26 hlineto
          45 51 44 47 41 39 rrcurveto
          -121 -192 rmoveto
          -131 -90 -82 -105 hvcurveto
          -188 288 17 -125 vvcurveto
          -47 -41 -46 -72 -47 -66 21 49 -52 vhcurveto
          -12 -6 -14 -102 rlineto
          -28 57 65 -15 58 hhcurveto
          137 89 86 104 hvcurveto
          187 -288 -11 118 vvcurveto
          44 38 46 68 42 48 -18 -31 42 vhcurveto
          16 6 16 94 rlineto
          24 -57 -53 8 -41 hhcurveto
          endchar
        </CharString>
        <CharString name="Scedilla">
          -57 -197 48 141 81 493 83 hstemhm
          54 102 102 64 20 102 hintmask 11110100
          444 182 rmoveto
          187 -288 -11 118 vvcurveto
          44 38 46 68 42 48 -18 -31 42 vhcurveto
          16 6 16 94 rlineto
          24 -57 -53 8 -41 hhcurveto
          -131 -90 -82 -105 hvcurveto
          -188 288 17 -125 vvcurveto
          -47 -41 -46 -72 -47 -66 21 49 -52 vhcurveto
          -12 -6 -14 -102 rlineto
          hintmask 11111100
          53 -26 60 -15 55 -2 -16 -65 rcurveline
          49 -29 rlineto
          11 -5 8 -6 -11 vvcurveto
          -16 -12 -9 -17 -22 -17 12 19 -18 vhcurveto
          -5 -2 -9 -47 rlineto
          -16 18 25 -14 34 hhcurveto
          52 35 29 41 23 -10 18 -30 16 hvcurveto
          -34 20 12 45 rlineto
          hintmask 11110100
          113 16 71 78 93 vvcurveto
          endchar
        </CharString>
        <CharString name="Scircumflex">
          -57 -8 81 493 83 hstem
          54 102 186 102 vstem
          138 705 rmoveto
          11 hlineto
          39 35 35 32 31 33 30 -33 35 -32 40 -35 rrcurveto
          10 hlineto
          27 40 -44 42 -44 48 -41 47 rlinecurve
          -26 hlineto
          -45 -51 -44 -47 -41 -39 rrcurveto
          164 -96 rmoveto
          -131 -90 -82 -105 hvcurveto
          -188 288 17 -125 vvcurveto
          -47 -41 -46 -72 -47 -66 21 49 -52 vhcurveto
          -12 -6 -14 -102 rlineto
          -28 57 65 -15 58 hhcurveto
          137 89 86 104 hvcurveto
          187 -288 -11 118 vvcurveto
          44 38 46 68 42 48 -18 -31 42 vhcurveto
          16 6 16 94 rlineto
          24 -57 -53 8 -41 hhcurveto
          endchar
        </CharString>
        <CharString name="Scommaaccent">
          -57 -66 -21 79 81 493 83 hstem
          54 102 66 77 43 102 vstem
          275 649 rmoveto
          -131 -90 -82 -105 hvcurveto
          -188 288 17 -125 vvcurveto
          -47 -41 -46 -72 -47 -66 21 49 -52 vhcurveto
          -12 -6 -14 -102 rlineto
          -28 57 65 -15 58 hhcurveto
          137 89 86 104 hvcurveto
          187 -288 -11 118 vvcurveto
          44 38 46 68 42 48 -18 -31 42 vhcurveto
          16 6 16 94 rlineto
          24 -57 -53 8 -41 hhcurveto
          -15 -698 rmoveto
          -25 -7 -22 -10 -20 -13 rrcurveto
          -8 vlineto
          19 -14 10 -16 -19 vvcurveto
          -29 -18 -28 -33 -27 vhcurveto
          -7 vlineto
          31 -28 rlineto
          65 46 32 46 46 vvcurveto
          27 -14 23 -25 18 vhcurveto
          endchar
        </CharString>
        <CharString name="T">
          -45 21 -21 561 81 -9 9 hstemhm
          200.5 98 hintmask 00000000
          hintmask 10110000
          477 633 rmoveto
          -6 9 rlineto
          hintmask 11010000
          -444 hlineto
          -8 -78 7 -9 118 6 rlineto
          54 hlineto
          5 -368 -6 -193 rlineto
          104 hlineto
          -5 202 5 359 rlineto
          54 hlineto
          116 -6 rlineto
          endchar
        </CharString>
        <CharString name="Tbar">
          -45 21 -21 283 60 218 81 -9 9 hstemhm
          200 100 hintmask 11101000
          301 561 rmoveto
          54 hlineto
          116 -6 rlineto
          hintmask 11011000
          6 78 -6 9 rlineto
          hintmask 11101000
          -444 hlineto
          -8 -78 7 -9 118 6 rlineto
          54 hlineto
          4 -218 rlineto
          -96 hlineto
          -4 -53 7 -7 rlineto
          94 hlineto
          1 -90 -7 -193 rlineto
          104 hlineto
          -4 202 1 81 rlineto
          106 hlineto
          4 53 -8 7 rlineto
          -101 hlineto
          endchar
        </CharString>
        <CharString name="Tcaron">
          -45 21 -21 561 81 -9 9 hstemhm
          201 98 hintmask 11010000
          264 704 rmoveto
          45 51 44 47 41 39 -27 40 rcurveline
          -11 hlineto
          -39 -35 -35 -32 -31 -33 -30 33 -35 32 -40 35 rrcurveto
          -10 hlineto
          -27 -40 44 -42 44 -48 41 -47 rlinecurve
          hintmask 10110000
          239 -71 rmoveto
          -6 9 rlineto
          hintmask 11010000
          -444 hlineto
          -8 -78 7 -9 118 6 rlineto
          54 hlineto
          6 -368 -7 -193 rlineto
          104 hlineto
          -4 202 4 359 rlineto
          54 hlineto
          116 -6 rlineto
          endchar
        </CharString>
        <CharString name="Tcedilla">
          -45 -197 48 170 -21 561 81 -9 9 hstemhm
          201 98 -31 64 hintmask 00000000
          hintmask 11011000
          477 633 rmoveto
          -6 9 rlineto
          hintmask 11101000
          -444 hlineto
          -8 -78 7 -9 118 6 rlineto
          54 hlineto
          6 -368 -7 -193 rlineto
          21 hlineto
          -18 -73 rlineto
          hintmask 11100100
          49 -29 rlineto
          11 -5 8 -6 -11 vvcurveto
          -16 -12 -9 -17 -22 -17 12 19 -18 vhcurveto
          -5 -2 -9 -47 rlineto
          -16 18 25 -14 34 hhcurveto
          52 35 29 41 23 -10 18 -30 16 hvcurveto
          hintmask 11101000
          -34 20 14 50 rlineto
          29 hlineto
          -4 202 4 359 rlineto
          54 hlineto
          116 -6 rlineto
          endchar
        </CharString>
        <CharString name="Tcommaaccent">
          -45 -66 -21 108 -21 561 81 -9 9 hstemhm
          201 98 -67 77 hintmask 00000000
          hintmask 11011000
          477 633 rmoveto
          -6 9 rlineto
          hintmask 11101000
          -444 hlineto
          -8 -78 7 -9 118 6 rlineto
          54 hlineto
          6 -368 -7 -193 rlineto
          104 hlineto
          -4 202 4 359 rlineto
          54 hlineto
          116 -6 rlineto
          hintmask 11100100
          -201 -604 rmoveto
          -25 -7 -22 -10 -20 -13 rrcurveto
          -8 vlineto
          19 -14 10 -16 -19 vvcurveto
          -29 -18 -28 -33 -27 vhcurveto
          -7 vlineto
          31 -28 rlineto
          65 46 32 46 46 vvcurveto
          27 -14 23 -25 18 vhcurveto
          endchar
        </CharString>
        <CharString name="Thorn">
          0 21 -21 113 80.5 261 81.5 106 -20 hstemhm
          89.5 100.5 -100 97 215 108 hintmask 11110110
          191 535 rmoveto
          1 107 rlineto
          hintmask 11111010
          -105 hlineto
          1 -107 rlineto
          hintmask 11110110
          4 -342 rlineto
          hintmask 11111010
          -5 -193 rlineto
          104 hlineto
          -2 111 71 2 rlineto
          161 89 84 146 127 -73 66 -130 hvcurveto
          hintmask 11110110
          -120 -341 rmoveto
          7 vlineto
          3 251 88 3 rlineto
          82 -4 42 -36 -80 vvcurveto
          -84 -41 -45 -73 -15 vhcurveto
          endchar
        </CharString>
        <CharString name="U">
          91 -8 88 562 -20 hstem
          70 99 292.5 100 vstem
          560 316 rmoveto
          3 326 rlineto
          -104 hlineto
          5 -406 rlineto
          -105 1 -52 -51 -98 hhcurveto
          -100 -49 54 112 1 hvcurveto
          4 396 rlineto
          -102 hlineto
          2 -321 -2 -89 rlineto
          -154 -3 86 -86 156 hhcurveto
          162 92 91 157 -3 hvcurveto
          endchar
        </CharString>
        <CharString name="Uacute">
          91 -8 88 562 -20 hstem
          69.5 99.5 292.5 100 vstem
          434 872 rmoveto
          -10 2 -68 -40 -64 -33 -66 -34 rlinecurve
          17 -44 11 -4 67 26 65 25 71 31 rlinecurve
          4 10 rlineto
          99 -495 rmoveto
          3 326 rlineto
          -104 hlineto
          5 -406 rlineto
          -105 1 -52 -51 -99 hhcurveto
          -99 -49 54 112 1 hvcurveto
          4 396 rlineto
          -102 hlineto
          1 -321 -1 -89 rlineto
          -154 -3 86 -86 155 hhcurveto
          163 91 91 157 -2 hvcurveto
          endchar
        </CharString>
        <CharString name="Ubreve">
          91 -8 88 562 -20 87 72 hstem
          69.5 99.5 292.5 100 vstem
          430 864 rmoveto
          -15 hlineto
          -55 -14 -33 -28 -49 hhcurveto
          -48 -34 28 55 -14 hvcurveto
          -15 hlineto
          -26 -36 rlineto
          -68 16 41 -51 77 hhcurveto
          78 44 49 70 17 hvcurveto
          105 -512 rmoveto
          3 326 rlineto
          -104 hlineto
          5 -406 rlineto
          -105 1 -52 -51 -99 hhcurveto
          -99 -49 54 112 1 hvcurveto
          4 396 rlineto
          -102 hlineto
          1 -321 -1 -89 rlineto
          -154 -3 86 -86 155 hhcurveto
          163 91 91 157 -2 hvcurveto
          endchar
        </CharString>
        <CharString name="Ucaron">
          91 -8 88 562 -20 hstem
          69.5 99.5 292.5 100 vstem
          434 881 rmoveto
          -11 hlineto
          -39 -35 -35 -32 -31 -33 -30 33 -35 32 -40 35 rrcurveto
          -10 hlineto
          -27 -40 44 -42 44 -48 41 -47 rlinecurve
          26 hlineto
          45 51 44 47 41 39 rrcurveto
          99 -525 rmoveto
          3 326 rlineto
          -104 hlineto
          5 -406 rlineto
          -105 1 -52 -51 -99 hhcurveto
          -99 -49 54 112 1 hvcurveto
          4 396 rlineto
          -102 hlineto
          1 -321 -1 -89 rlineto
          -154 -3 86 -86 155 hhcurveto
          163 91 91 157 -2 hvcurveto
          endchar
        </CharString>
        <CharString name="Ucircumflex">
          91 -8 88 562 -20 hstem
          69.5 99.5 292.5 100 vstem
          202 731 rmoveto
          11 hlineto
          36 22 35 21 34 23 35 -23 35 -21 36 -22 rrcurveto
          11 hlineto
          19 43 -44 30 -42 32 -38 34 rlinecurve
          -24 hlineto
          -38 -34 -41 -32 -45 -30 rrcurveto
          378 -458 rmoveto
          3 326 rlineto
          -104 hlineto
          5 -406 rlineto
          -105 1 -52 -51 -99 hhcurveto
          -99 -49 54 112 1 hvcurveto
          4 396 rlineto
          -102 hlineto
          1 -321 -1 -89 rlineto
          -154 -3 86 -86 155 hhcurveto
          163 91 91 157 -2 hvcurveto
          endchar
        </CharString>
        <CharString name="Udieresis">
          91 -8 88 562 -20 118 106 hstemhm
          69.5 99.5 15 104 60 104 9.5 100 hintmask 00000000
          hintmask 11111110
          238 846 rmoveto
          -33 -21 -21 -33 -33 18 -19 33 33 20 21 34 32 -18 19 -32 hvcurveto
          164 hmoveto
          -33 -21 -21 -33 -33 18 -19 33 33 20 21 34 32 -18 19 -32 hvcurveto
          hintmask 11110010
          158 -530 rmoveto
          3 326 rlineto
          -104 hlineto
          5 -406 rlineto
          -105 1 -52 -51 -99 hhcurveto
          -99 -49 54 112 1 hvcurveto
          4 396 rlineto
          -102 hlineto
          1 -321 -1 -89 rlineto
          -154 -3 86 -86 155 hhcurveto
          163 91 91 157 -2 hvcurveto
          endchar
        </CharString>
        <CharString name="Udieresisacute">
          91 -8 88 562 -20 100 101 hstemhm
          69.5 99.5 16 100 64 100 12.5 100 hintmask 11110010
          419 991 rmoveto
          -9 5 -74 -28 -68 -22 -72 -21 rlinecurve
          9 -47 10 -5 71 13 68 14 76 18 rlinecurve
          5 9 rlineto
          hintmask 11111110
          -198 -104 rmoveto
          -32 -20 -21 -31 -31 18 -18 30 32 20 21 31 31 -18 18 -30 hvcurveto
          164 hmoveto
          -32 -20 -21 -31 -31 18 -18 30 32 20 21 31 31 -18 18 -30 hvcurveto
          hintmask 11110010
          159 -507 rmoveto
          3 326 rlineto
          -104 hlineto
          5 -406 rlineto
          -105 1 -52 -51 -99 hhcurveto
          -99 -49 54 112 1 hvcurveto
          4 396 rlineto
          -102 hlineto
          1 -321 -1 -89 rlineto
          -154 -3 86 -86 155 hhcurveto
          163 91 91 157 -2 hvcurveto
          endchar
        </CharString>
        <CharString name="Udieresiscaron">
          91 -8 88 562 -20 100 101 hstemhm
          69.5 99.5 16 100 64 100 12.5 100 hintmask 11110010
          434 980 rmoveto
          -11 hlineto
          -36 -22 -35 -21 -34 -22 -35 22 -35 21 -36 22 rrcurveto
          -11 hlineto
          -19 -42 44 -31 42 -33 38 -32 rlinecurve
          24 hlineto
          38 32 41 33 45 31 rrcurveto
          hintmask 11111110
          -217 -115 rmoveto
          -32 -20 -21 -31 -31 18 -18 30 32 20 21 31 31 -18 18 -30 hvcurveto
          164 hmoveto
          -32 -20 -21 -31 -31 18 -18 30 32 20 21 31 31 -18 18 -30 hvcurveto
          hintmask 11110010
          159 -507 rmoveto
          3 326 rlineto
          -104 hlineto
          5 -406 rlineto
          -105 1 -52 -51 -99 hhcurveto
          -99 -49 54 112 1 hvcurveto
          4 396 rlineto
          -102 hlineto
          1 -321 -1 -89 rlineto
          -154 -3 86 -86 155 hhcurveto
          163 91 91 157 -2 hvcurveto
          endchar
        </CharString>
        <CharString name="Udieresisgrave">
          91 -8 88 562 -20 100 101 hstemhm
          69.5 99.5 16 100 64 100 12.5 100 hintmask 11110010
          211 991 rmoveto
          -15 -64 6 -9 75 -18 69 -14 69 -13 rlinecurve
          10 5 10 47 -72 21 -68 22 -74 28 rlinecurve
          hintmask 11111110
          16 -173 rmoveto
          -32 -20 -21 -31 -31 18 -18 30 32 20 21 31 31 -18 18 -30 hvcurveto
          164 hmoveto
          -32 -20 -21 -31 -31 18 -18 30 32 20 21 31 31 -18 18 -30 hvcurveto
          hintmask 11110010
          159 -507 rmoveto
          3 326 rlineto
          -104 hlineto
          5 -406 rlineto
          -105 1 -52 -51 -99 hhcurveto
          -99 -49 54 112 1 hvcurveto
          4 396 rlineto
          -102 hlineto
          1 -321 -1 -89 rlineto
          -154 -3 86 -86 155 hhcurveto
          163 91 91 157 -2 hvcurveto
          endchar
        </CharString>
        <CharString name="Udieresismacron">
          91 -8 88 562 -20 100 101 62 67 hstemhm
          69.5 99.5 16 100 64 100 12.5 100 hintmask 11111001
          458 944 rmoveto
          -7 8 rlineto
          -267 hlineto
          -6 -59 8 -8 rlineto
          266 hlineto
          hintmask 11111111
          -215 -62 rmoveto
          -32 -20 -21 -31 -31 18 -18 30 32 20 21 31 31 -18 18 -30 hvcurveto
          164 hmoveto
          -32 -20 -21 -31 -31 18 -18 30 32 20 21 31 31 -18 18 -30 hvcurveto
          hintmask 11111001
          159 -507 rmoveto
          3 326 rlineto
          -104 hlineto
          5 -406 rlineto
          -105 1 -52 -51 -99 hhcurveto
          -99 -49 54 112 1 hvcurveto
          4 396 rlineto
          -102 hlineto
          1 -321 -1 -89 rlineto
          -154 -3 86 -86 155 hhcurveto
          163 91 91 157 -2 hvcurveto
          endchar
        </CharString>
        <CharString name="Udotbelow">
          91 -176 114 54 88 562 -20 hstem
          69.5 99.5 88 111 93.5 100 vstem
          560 316 rmoveto
          3 326 rlineto
          -104 hlineto
          5 -406 rlineto
          -105 1 -52 -51 -99 hhcurveto
          -99 -49 54 112 1 hvcurveto
          4 396 rlineto
          -102 hlineto
          1 -321 -1 -89 rlineto
          -154 -3 86 -86 155 hhcurveto
          163 91 91 157 -2 hvcurveto
          -244 -302 rmoveto
          -36 -22 -23 -35 -35 20 -21 35 34 22 23 36 34 -19 21 -34 hvcurveto
          endchar
        </CharString>
        <CharString name="Ugrave">
          91 -8 88 562 -20 hstem
          69.5 99.5 292.5 100 vstem
          228 873 rmoveto
          -27 -61 4 -10 71 -31 65 -25 67 -26 rlinecurve
          11 4 17 44 -66 34 -64 33 -68 40 rlinecurve
          322 -559 rmoveto
          3 326 rlineto
          -104 hlineto
          5 -406 rlineto
          -105 1 -52 -51 -99 hhcurveto
          -99 -49 54 112 1 hvcurveto
          4 396 rlineto
          -102 hlineto
          1 -321 -1 -89 rlineto
          -154 -3 86 -86 155 hhcurveto
          163 91 91 157 -2 hvcurveto
          endchar
        </CharString>
        <CharString name="Uhookabove">
          91 -8 88 562 -20 231 52 hstem
          69.5 99.5 155 58 79.5 100 vstem
          311 905 rmoveto
          -32 -34 -18 -28 -28 hvcurveto
          19 -30 rlineto
          16 20 22 8 18 hhcurveto
          16 12 -7 -14 -18 -19 -26 -32 -24 hvcurveto
          36 -59 40 22 -21 37 rlineto
          38 31 16 21 26 vvcurveto
          36 -31 27 -40 vhcurveto
          249 -589 rmoveto
          3 326 rlineto
          -104 hlineto
          5 -406 rlineto
          -105 1 -52 -51 -99 hhcurveto
          -99 -49 54 112 1 hvcurveto
          4 396 rlineto
          -102 hlineto
          1 -321 -1 -89 rlineto
          -154 -3 86 -86 155 hhcurveto
          163 91 91 157 -2 hvcurveto
          endchar
        </CharString>
        <CharString name="Uhorn">
          101 -8 88 517 45 0 -20 hstemhm
          69.5 99.5 292.5 100 9.5 80 hintmask 00000000
          hintmask 10111100
          651 700 rmoveto
          47 -32 34 -29 -16 -16 -8 -12 -17 vhcurveto
          -3 -9 rlineto
          23 -20 10 -19 -21 vvcurveto
          -33 -22 -17 -42 vhcurveto
          hintmask 10111000
          -48 hlineto
          5 -406 rlineto
          -105 1 -52 -51 -99 hhcurveto
          -99 -49 54 112 1 hvcurveto
          4 396 rlineto
          -102 hlineto
          1 -321 -1 -89 rlineto
          -154 -3 86 -86 155 hhcurveto
          163 91 91 157 -2 hvcurveto
          1 76 rlineto
          hintmask 11011000
          3 281 rlineto
          hintmask 10111100
          54 17 34 39 47 vvcurveto
          endchar
        </CharString>
        <CharString name="Uhornacute">
          101 -8 88 517 45 0 -20 hstemhm
          69.5 99.5 292.5 100 9.5 80 hintmask 10111000
          243 723 rmoveto
          11 -4 67 26 65 25 71 31 rlinecurve
          4 10 -27 61 -10 2 -68 -40 -64 -33 -66 -34 rlinecurve
          hintmask 10111100
          425 -67 rmoveto
          47 -32 34 -29 -16 -16 -8 -12 -17 vhcurveto
          -3 -9 rlineto
          23 -20 10 -19 -21 vvcurveto
          -33 -22 -17 -42 vhcurveto
          hintmask 10111000
          -48 hlineto
          5 -406 rlineto
          -105 1 -52 -51 -99 hhcurveto
          -99 -49 54 112 1 hvcurveto
          4 396 rlineto
          -102 hlineto
          1 -321 -1 -89 rlineto
          -154 -3 86 -86 155 hhcurveto
          163 91 91 157 -2 hvcurveto
          1 76 rlineto
          hintmask 11011000
          3 281 rlineto
          hintmask 10111100
          54 17 34 39 47 vvcurveto
          endchar
        </CharString>
        <CharString name="Uhorndotbelow">
          101 -176 114 54 88 517 45 0 -20 hstemhm
          69.5 99.5 90 111 91.5 100 9.5 80 hintmask 00000000
          hintmask 11011011
          651 700 rmoveto
          47 -32 34 -29 -16 -16 -8 -12 -17 vhcurveto
          -3 -9 rlineto
          23 -20 10 -19 -21 vvcurveto
          -33 -22 -17 -42 vhcurveto
          hintmask 11011010
          -48 hlineto
          5 -406 rlineto
          -105 1 -52 -51 -99 hhcurveto
          -99 -49 54 112 1 hvcurveto
          4 396 rlineto
          -102 hlineto
          1 -321 -1 -89 rlineto
          -154 -3 86 -86 155 hhcurveto
          163 91 91 157 -2 hvcurveto
          1 76 rlineto
          hintmask 11101010
          3 281 rlineto
          hintmask 11011011
          54 17 34 39 47 vvcurveto
          hintmask 11011110
          -334 -762 rmoveto
          -36 -22 -23 -35 -35 20 -21 35 34 22 23 36 34 -19 21 -34 hvcurveto
          endchar
        </CharString>
        <CharString name="Uhorngrave">
          101 -8 88 517 45 0 -20 hstemhm
          69.5 99.5 292.5 100 9.5 80 hintmask 10111000
          419 724 rmoveto
          17 44 -66 34 -64 33 -68 40 rlinecurve
          -10 -2 -27 -61 4 -10 71 -31 65 -25 67 -26 rlinecurve
          hintmask 10111100
          243 -20 rmoveto
          47 -32 34 -29 -16 -16 -8 -12 -17 vhcurveto
          -3 -9 rlineto
          23 -20 10 -19 -21 vvcurveto
          -33 -22 -17 -42 vhcurveto
          hintmask 10111000
          -48 hlineto
          5 -406 rlineto
          -105 1 -52 -51 -99 hhcurveto
          -99 -49 54 112 1 hvcurveto
          4 396 rlineto
          -102 hlineto
          1 -321 -1 -89 rlineto
          -154 -3 86 -86 155 hhcurveto
          163 91 91 157 -2 hvcurveto
          1 76 rlineto
          hintmask 11011000
          3 281 rlineto
          hintmask 10111100
          54 17 34 39 47 vvcurveto
          endchar
        </CharString>
        <CharString name="Uhornhookabove">
          101 -8 88 517 45 0 -20 231 52 hstemhm
          69.5 99.5 155 58 79.5 100 9.5 80 hintmask 10111110
          296 853 rmoveto
          16 12 -7 -14 -18 -19 -26 -32 -24 hvcurveto
          36 -59 40 22 -21 37 rlineto
          38 31 16 21 26 vvcurveto
          36 -31 27 -40 -32 -34 -18 -28 -28 vhcurveto
          19 -30 rlineto
          16 20 22 8 18 hhcurveto
          hintmask 10111111
          355 -153 rmoveto
          47 -32 34 -29 -16 -16 -8 -12 -17 vhcurveto
          -3 -9 rlineto
          23 -20 10 -19 -21 vvcurveto
          -33 -22 -17 -42 vhcurveto
          hintmask 10111110
          -48 hlineto
          5 -406 rlineto
          -105 1 -52 -51 -99 hhcurveto
          -99 -49 54 112 1 hvcurveto
          4 396 rlineto
          -102 hlineto
          1 -321 -1 -89 rlineto
          -154 -3 86 -86 155 hhcurveto
          163 91 91 157 -2 hvcurveto
          1 76 rlineto
          hintmask 11011110
          3 281 rlineto
          hintmask 10111111
          54 17 34 39 47 vvcurveto
          endchar
        </CharString>
        <CharString name="Uhorntilde">
          101 -8 88 517 45 0 -20 hstemhm
          69.5 99.5 292.5 100 9.5 80 hintmask 10111000
          183 728 rmoveto
          10 hlineto
          26 25 16 23 18 hhcurveto
          26 85 -31 -6 44 hvcurveto
          10 5 65 77 rlineto
          9 vlineto
          -30 32 rlineto
          -10 hlineto
          -27 -25 -17 -22 -17 hhcurveto
          -25 -86 30 6 -44 hvcurveto
          -11 -4 -65 -77 rlineto
          -9 vlineto
          hintmask 10111100
          499 -60 rmoveto
          47 -32 34 -29 -16 -16 -8 -12 -17 vhcurveto
          -3 -9 rlineto
          23 -20 10 -19 -21 vvcurveto
          -33 -22 -17 -42 vhcurveto
          hintmask 10111000
          -48 hlineto
          5 -406 rlineto
          -105 1 -52 -51 -99 hhcurveto
          -99 -49 54 112 1 hvcurveto
          4 396 rlineto
          -102 hlineto
          1 -321 -1 -89 rlineto
          -154 -3 86 -86 155 hhcurveto
          163 91 91 157 -2 hvcurveto
          1 76 rlineto
          hintmask 11011000
          3 281 rlineto
          hintmask 10111100
          54 17 34 39 47 vvcurveto
          endchar
        </CharString>
        <CharString name="Uhungarumlaut">
          91 -8 88 562 -20 hstem
          69.5 99.5 292.5 100 vstem
          219 717 rmoveto
          10 2 42 37 39 37 40 38 rlinecurve
          -1 10 -46 32 -9 -2 -35 -43 -36 -41 -37 -42 rlinecurve
          181 -28 rmoveto
          10 2 40 37 41 37 40 38 rlinecurve
          -1 10 -48 32 -7 -2 -36 -43 -36 -41 -36 -42 rlinecurve
          226 -429 rmoveto
          3 326 rlineto
          -104 hlineto
          5 -406 rlineto
          -105 1 -52 -51 -99 hhcurveto
          -99 -49 54 112 1 hvcurveto
          4 396 rlineto
          -102 hlineto
          1 -321 -1 -89 rlineto
          -154 -3 86 -86 155 hhcurveto
          163 91 91 157 -2 hvcurveto
          endchar
        </CharString>
        <CharString name="Umacron">
          91 -8 88 562 -20 138 66 hstem
          69.5 99.5 292.5 100 vstem
          465 819 rmoveto
          -7 7 rlineto
          -282 hlineto
          -5 -58 7 -8 rlineto
          282 hlineto
          100 -444 rmoveto
          3 326 rlineto
          -104 hlineto
          5 -406 rlineto
          -105 1 -52 -51 -99 hhcurveto
          -99 -49 54 112 1 hvcurveto
          4 396 rlineto
          -102 hlineto
          1 -321 -1 -89 rlineto
          -154 -3 86 -86 155 hhcurveto
          163 91 91 157 -2 hvcurveto
          endchar
        </CharString>
        <CharString name="Uogonek">
          91 -197 62 127 88 562 -20 hstem
          69.5 99.5 173 60 59.5 100 vstem
          560 316 rmoveto
          3 326 rlineto
          -104 hlineto
          5 -406 rlineto
          -105 1 -52 -51 -99 hhcurveto
          -99 -49 54 112 1 hvcurveto
          4 396 rlineto
          -102 hlineto
          1 -321 -1 -89 rlineto
          -154 -3 86 -86 155 hhcurveto
          33 29 4 7 27 hvcurveto
          -30 -46 rlineto
          -17 -25 -7 -23 -23 vvcurveto
          -48 32 -35 51 36 32 18 34 33 vhcurveto
          -12 45 rlineto
          -5 hlineto
          -23 -23 -25 -12 -23 hhcurveto
          -25 -11 14 19 14 6 19 11 16 hvcurveto
          57 94 55 42 29 68 -1 89 rlinecurve
          endchar
        </CharString>
        <CharString name="Uring">
          91 -8 88 562 -20 92 45 84 46 hstem
          69.5 99.5 59 46 86 46 55.5 100 vstem
          318 889 rmoveto
          -57 -33 -33 -55 -56 35 -31 52 53 38 32 58 50 -30 35 -58 hvcurveto
          -2 -46 rmoveto
          30 14 -17 -25 -29 -17 -13 -26 -27 -16 14 30 25 14 15 28 hvcurveto
          244 -527 rmoveto
          3 326 rlineto
          -104 hlineto
          5 -406 rlineto
          -105 1 -52 -51 -99 hhcurveto
          -99 -49 54 112 1 hvcurveto
          4 396 rlineto
          -102 hlineto
          1 -321 -1 -89 rlineto
          -154 -3 86 -86 155 hhcurveto
          163 91 91 157 -2 hvcurveto
          endchar
        </CharString>
        <CharString name="Utilde">
          91 -8 88 562 -20 hstem
          69.5 99.5 292.5 100 vstem
          482 831 rmoveto
          -30 32 rlineto
          -10 hlineto
          -27 -25 -17 -22 -17 hhcurveto
          -25 -86 30 6 -44 hvcurveto
          -11 -4 -65 -77 rlineto
          -9 vlineto
          31 -32 rlineto
          10 hlineto
          26 25 16 23 18 hhcurveto
          26 85 -31 -6 44 hvcurveto
          10 5 65 77 rlineto
          78 -506 rmoveto
          3 326 rlineto
          -104 hlineto
          5 -406 rlineto
          -105 1 -52 -51 -99 hhcurveto
          -99 -49 54 112 1 hvcurveto
          4 396 rlineto
          -102 hlineto
          1 -321 -1 -89 rlineto
          -154 -3 86 -86 155 hhcurveto
          163 91 91 157 -2 hvcurveto
          endchar
        </CharString>
        <CharString name="V">
          33 0 100 542 -20 hstem
          12 557 vstem
          342 hmoveto
          227 642 rlineto
          -103 hlineto
          -16 -78 -163 -464 rlineto
          -7 hlineto
          -147 469 -15 73 rlineto
          -106 hlineto
          208 -642 rlineto
          endchar
        </CharString>
        <CharString name="V.ss01">
          -32 0 40 -40 95 366 40 hstemhm
          -100 708 hintmask 10110000
          474 461 rmoveto
          134 40 -708 -40 142 hlineto
          142 -421 rlineto
          -284 -40 708 40 -290 hlineto
          68 421 rmoveto
          -6 -33 rlineto
          hintmask 01110000
          -124 -333 rlineto
          -6 hlineto
          -111 338 -6 28 rlineto
          endchar
        </CharString>
        <CharString name="W">
          357 0 110 532 -20 hstem
          20 870 vstem
          668 hmoveto
          222 642 rlineto
          -96 hlineto
          -16 -75 -155 -457 rlineto
          -8 hlineto
          -140 453 -16 79 rlineto
          -105 hlineto
          51 -160 -126 -372 rlineto
          -8 hlineto
          -138 463 -11 69 rlineto
          -102 hlineto
          194 -642 rlineto
          109 hlineto
          117 345 rlineto
          7 hlineto
          113 -345 rlineto
          endchar
        </CharString>
        <CharString name="Wacute">
          357 0 110 532 -20 hstem
          20 870 vstem
          558 872 rmoveto
          -10 2 -68 -40 -64 -33 -66 -34 rlinecurve
          17 -44 11 -4 67 26 65 25 71 31 rlinecurve
          4 10 rlineto
          82 -811 rmoveto
          223 642 rlineto
          -97 hlineto
          -15 -75 -156 -457 rlineto
          -7 hlineto
          -140 453 -16 79 rlineto
          -105 hlineto
          51 -160 -126 -372 rlineto
          -8 hlineto
          -139 463 -10 69 rlineto
          -102 hlineto
          194 -642 rlineto
          108 hlineto
          117 345 rlineto
          8 hlineto
          113 -345 rlineto
          endchar
        </CharString>
        <CharString name="Wcircumflex">
          357 0 110 532 -20 hstem
          20 870 vstem
          326 731 rmoveto
          11 hlineto
          36 22 35 21 34 23 35 -23 35 -21 36 -22 rrcurveto
          11 hlineto
          19 43 -44 30 -42 32 -38 34 rlinecurve
          -24 hlineto
          -38 -34 -41 -32 -45 -30 rrcurveto
          361 -774 rmoveto
          223 642 rlineto
          -97 hlineto
          -15 -75 -156 -457 rlineto
          -7 hlineto
          -140 453 -16 79 rlineto
          -105 hlineto
          51 -160 -126 -372 rlineto
          -8 hlineto
          -139 463 -10 69 rlineto
          -102 hlineto
          194 -642 rlineto
          108 hlineto
          117 345 rlineto
          8 hlineto
          113 -345 rlineto
          endchar
        </CharString>
        <CharString name="Wdieresis">
          357 0 110 532 -20 118 106 hstem
          308 104 60 104 vstem
          362 846 rmoveto
          -33 -21 -21 -33 -33 18 -19 33 33 20 21 34 32 -18 19 -32 hvcurveto
          164 hmoveto
          -33 -21 -21 -33 -33 18 -19 33 33 20 21 34 32 -18 19 -32 hvcurveto
          141 -846 rmoveto
          223 642 rlineto
          -97 hlineto
          -15 -75 -156 -457 rlineto
          -7 hlineto
          -140 453 -16 79 rlineto
          -105 hlineto
          51 -160 -126 -372 rlineto
          -8 hlineto
          -139 463 -10 69 rlineto
          -102 hlineto
          194 -642 rlineto
          108 hlineto
          117 345 rlineto
          8 hlineto
          113 -345 rlineto
          endchar
        </CharString>
        <CharString name="Wgrave">
          357 0 110 532 -20 hstem
          20 870 vstem
          352 873 rmoveto
          -27 -61 4 -10 71 -31 65 -25 67 -26 rlinecurve
          11 4 17 44 -66 34 -64 33 -68 40 rlinecurve
          305 -875 rmoveto
          223 642 rlineto
          -97 hlineto
          -15 -75 -156 -457 rlineto
          -7 hlineto
          -140 453 -16 79 rlineto
          -105 hlineto
          51 -160 -126 -372 rlineto
          -8 hlineto
          -139 463 -10 69 rlineto
          -102 hlineto
          194 -642 rlineto
          108 hlineto
          117 345 rlineto
          8 hlineto
          113 -345 rlineto
          endchar
        </CharString>
        <CharString name="X">
          58 21 -21 642 -20 hstem
          19 557 vstem
          361 335 rmoveto
          200 307 rlineto
          -111 hlineto
          -26 -54 -125 -188 -122 186 -28 56 rlineto
          -125 hlineto
          207 -321 -212 -321 rlineto
          108 hlineto
          27 51 137 203 131 -197 29 -57 rlineto
          125 hlineto
          endchar
        </CharString>
        <CharString name="X.ss01">
          -13 0 40 421 40 hstem
          -100 727 vstem
          322 263 rmoveto
          137 198 rlineto
          168 40 -727 -40 163 hlineto
          145 -211 -148 -210 rlineto
          -160 -40 727 40 -155 hlineto
          -204 279 rmoveto
          -89 122 -10 20 rlineto
          198 hlineto
          -8 -17 rlineto
          -98 -251 rmoveto
          94 -130 12 -23 rlineto
          -217 hlineto
          10 18 rlineto
          endchar
        </CharString>
        <CharString name="Y">
          1 21 -21 642 -20 hstem
          213 98.5 vstem
          309 184 rmoveto
          1 40 224 418 rlineto
          -108 hlineto
          -16 -42 -140 -267 rlineto
          -9 hlineto
          -127 269 -13 40 rlineto
          -110 hlineto
          204 -417 1 -41 -6 -184 rlineto
          104 hlineto
          endchar
        </CharString>
        <CharString name="Yacute">
          1 21 -21 642 -20 hstem
          213.5 98.5 vstem
          191 723 rmoveto
          11 -4 67 26 65 25 71 31 rlinecurve
          4 10 -27 61 -10 2 -68 -40 -64 -33 -66 -34 rlinecurve
          136 -583 rmoveto
          1 41 224 417 rlineto
          -109 hlineto
          -16 -42 -140 -267 rlineto
          -8 hlineto
          -128 269 -13 40 rlineto
          -110 hlineto
          205 -418 1 -40 -7 -184 rlineto
          104 hlineto
          endchar
        </CharString>
        <CharString name="Ycircumflex">
          1 21 -21 642 -20 hstem
          213.5 98.5 vstem
          150 731 rmoveto
          11 hlineto
          36 22 35 21 34 23 35 -23 35 -21 36 -22 rrcurveto
          11 hlineto
          19 43 -44 30 -42 32 -38 34 rlinecurve
          -24 hlineto
          -38 -34 -41 -32 -45 -30 rrcurveto
          180 -590 rmoveto
          1 41 224 417 rlineto
          -109 hlineto
          -16 -42 -140 -267 rlineto
          -8 hlineto
          -128 269 -13 40 rlineto
          -110 hlineto
          205 -418 1 -40 -7 -184 rlineto
          104 hlineto
          endchar
        </CharString>
        <CharString name="Ydieresis">
          1 21 -21 642 -20 118 106 hstemhm
          132 104 -22.5 98.5 -16 104 hintmask 00000000
          hintmask 11110100
          183 740 rmoveto
          33 20 21 34 32 -18 19 -32 -33 -21 -21 -33 -33 18 -19 33 hvcurveto
          164 hmoveto
          33 20 21 34 32 -18 19 -32 -33 -21 -21 -33 -33 18 -19 33 hvcurveto
          hintmask 11101000
          -37 -556 rmoveto
          1 41 224 417 rlineto
          -109 hlineto
          -16 -42 -140 -267 rlineto
          -8 hlineto
          -128 269 -13 40 rlineto
          -110 hlineto
          205 -418 1 -40 -7 -184 rlineto
          104 hlineto
          endchar
        </CharString>
        <CharString name="Ydotbelow">
          1 -176 114 83 -21 642 -20 hstemhm
          206 111 -103.5 98.5 hintmask 11101000
          216 224 rmoveto
          1 -40 -7 -184 rlineto
          104 hlineto
          -4 184 1 41 224 417 rlineto
          -109 hlineto
          -16 -42 -140 -267 rlineto
          -8 hlineto
          -128 269 -13 40 rlineto
          -110 hlineto
          hintmask 11110000
          253 -704 rmoveto
          -36 -22 -23 -35 -35 20 -21 35 34 22 23 36 34 -19 21 -34 hvcurveto
          endchar
        </CharString>
        <CharString name="Ygrave">
          1 21 -21 642 -20 hstem
          213.5 98.5 vstem
          367 724 rmoveto
          17 44 -66 34 -64 33 -68 40 rlinecurve
          -10 -2 -27 -61 4 -10 71 -31 65 -25 67 -26 rlinecurve
          -46 -536 rmoveto
          1 41 224 417 rlineto
          -109 hlineto
          -16 -42 -140 -267 rlineto
          -8 hlineto
          -128 269 -13 40 rlineto
          -110 hlineto
          205 -418 1 -40 -7 -184 rlineto
          104 hlineto
          endchar
        </CharString>
        <CharString name="Yhookabove">
          1 21 -21 642 -20 231 52 hstemhm
          213.5 98.5 -40 58 hintmask 00000000
          hintmask 11101000
          244 853 rmoveto
          16 12 -7 -14 -18 -19 -26 -32 -24 hvcurveto
          36 -59 40 22 -21 37 rlineto
          38 31 16 21 26 vvcurveto
          36 -31 27 -40 -32 -34 -18 -28 -28 vhcurveto
          19 -30 rlineto
          16 20 22 8 18 hhcurveto
          hintmask 11110000
          66 -669 rmoveto
          1 41 224 417 rlineto
          -109 hlineto
          -16 -42 -140 -267 rlineto
          -8 hlineto
          -128 269 -13 40 rlineto
          -110 hlineto
          205 -418 1 -40 -7 -184 rlineto
          104 hlineto
          endchar
        </CharString>
        <CharString name="Ytilde">
          1 21 -21 642 -20 hstem
          213.5 98.5 vstem
          131 728 rmoveto
          10 hlineto
          26 25 16 23 18 hhcurveto
          26 85 -31 -6 44 hvcurveto
          10 5 65 77 rlineto
          9 vlineto
          -30 32 rlineto
          -10 hlineto
          -27 -25 -17 -22 -17 hhcurveto
          -25 -86 30 6 -44 hvcurveto
          -11 -4 -65 -77 rlineto
          -9 vlineto
          210 -576 rmoveto
          1 41 224 417 rlineto
          -109 hlineto
          -16 -42 -140 -267 rlineto
          -8 hlineto
          -128 269 -13 40 rlineto
          -110 hlineto
          205 -418 1 -40 -7 -184 rlineto
          104 hlineto
          endchar
        </CharString>
        <CharString name="Z">
          -4 0 81 -62 -21 562 83 hstemhm
          31 473 hintmask 10110000
          496 567 rmoveto
          76 vlineto
          -54 -1 -395 1 -8 -85 6 -6 103 8 rlineto
          227 hlineto
          hintmask 01110000
          -344 -488 rlineto
          -75 vlineto
          hintmask 10110000
          65 3 rlineto
          270 hlineto
          129 -2 9 85 -5 6 -101 -8 rlineto
          -244 hlineto
          endchar
        </CharString>
        <CharString name="Zacute">
          -4 0 81 -62 -21 562 83 hstemhm
          31 473 hintmask 10110000
          388 872 rmoveto
          -10 2 -68 -40 -64 -33 -66 -34 rlinecurve
          17 -44 11 -4 67 26 65 25 71 31 rlinecurve
          4 10 rlineto
          82 -244 rmoveto
          76 vlineto
          -55 -1 -394 1 -8 -85 5 -6 103 8 rlineto
          227 hlineto
          hintmask 01110000
          -344 -488 rlineto
          -75 vlineto
          hintmask 10110000
          65 3 rlineto
          270 hlineto
          130 -2 8 85 -4 6 -102 -8 rlineto
          -244 hlineto
          endchar
        </CharString>
        <CharString name="Zcaron">
          -4 0 81 -62 -21 562 83 hstemhm
          31 473 hintmask 10110000
          389 860 rmoveto
          -11 hlineto
          -36 -22 -35 -21 -34 -23 -35 23 -35 21 -36 22 rrcurveto
          -11 hlineto
          -19 -43 44 -30 42 -32 38 -34 rlinecurve
          24 hlineto
          38 34 41 32 45 30 rrcurveto
          88 -250 rmoveto
          76 vlineto
          -55 -1 -394 1 -8 -85 5 -6 103 8 rlineto
          227 hlineto
          hintmask 01110000
          -344 -488 rlineto
          -75 vlineto
          hintmask 10110000
          65 3 rlineto
          270 hlineto
          130 -2 8 85 -4 6 -102 -8 rlineto
          -244 hlineto
          endchar
        </CharString>
        <CharString name="Zdotaccent">
          -4 0 81 -62 -21 562 83 100 114 hstemhm
          216 111 hintmask 10111000
          274 857 rmoveto
          -36 -22 -23 -35 -35 20 -21 35 34 22 23 36 34 -19 21 -34 hvcurveto
          223 -290 rmoveto
          76 vlineto
          -55 -1 -394 1 -8 -85 5 -6 103 8 rlineto
          227 hlineto
          hintmask 01111000
          -344 -488 rlineto
          -75 vlineto
          hintmask 10111000
          65 3 rlineto
          270 hlineto
          130 -2 8 85 -4 6 -102 -8 rlineto
          -244 hlineto
          endchar
        </CharString>
        <CharString name="a">
          -21 21 -21 117.5 74 219.5 90 hstem
          21 468 vstem
          489 hmoveto
          -169 501 rlineto
          -112 hlineto
          -187 -501 rlineto
          95 hlineto
          14 67 19 50 100 1 112 -1 18 -55 13 -62 rlineto
          -56 192 rmoveto
          -80 -1 -79 1 81 219 rlineto
          7 hlineto
          endchar
        </CharString>
        <CharString name="a.sups">
          -212 329 60 -59 62 198 60 hstemhm
          30 78 89.5 80.5 hintmask 10111000
          170 650 rmoveto
          -41 -45 -14 -23 -38 hvcurveto
          10 -56 7 -3 rlineto
          24 37 30 12 26 hhcurveto
          29 14 -14 -30 hvcurveto
          -1 -30 -99 -18 rlineto
          -46 -8 -23 -25 -44 vvcurveto
          -57 37 -34 60 -1 vhcurveto
          26 6 26 18 21 25 rrcurveto
          4 hlineto
          hintmask 01111000
          -35 8 13 -13 31 hhcurveto
          18 14 5 10 14 hvcurveto
          9 47 -7 5 rlineto
          -4 -5 -7 -1 -5 hhcurveto
          -10 -5 7 17 hvcurveto
          16 6 110 20 vvcurveto
          hintmask 10111000
          56 -39 32 -69 vhcurveto
          28 -174 rmoveto
          -1 -57 rlineto
          -20 -17 -20 -10 -16 hhcurveto
          -23 -13 15 25 19 9 11 18 3 hvcurveto
          endchar
        </CharString>
        <CharString name="aacute">
          -21 21 -21 117.5 74 219.5 90 hstem
          21 468 vstem
          208 560 rmoveto
          10 -1 60 39 58 39 63 46 rlinecurve
          2 10 -38 54 -10 1 -58 -55 -54 -45 -59 -48 rlinecurve
          307 -600 rmoveto
          -170 501 rlineto
          -112 hlineto
          -186 -501 rlineto
          94 hlineto
          15 67 19 50 99 1 113 -1 18 -55 12 -62 rlineto
          -55 192 rmoveto
          -81 -1 -78 1 81 219 rlineto
          6 hlineto
          endchar
        </CharString>
        <CharString name="abreve">
          -21 21 -21 117.5 74 219.5 90 67 72 hstem
          21 468 vstem
          263 568 rmoveto
          78 44 49 70 17 hvcurveto
          -25 36 rlineto
          -15 hlineto
          -55 -14 -33 -28 -49 hhcurveto
          -48 -34 28 55 -14 hvcurveto
          -15 hlineto
          -26 -36 rlineto
          -68 16 41 -51 77 hhcurveto
          226 -568 rmoveto
          -170 501 rlineto
          -112 hlineto
          -186 -501 rlineto
          94 hlineto
          15 67 19 50 99 1 113 -1 18 -55 12 -62 rlineto
          -55 192 rmoveto
          -81 -1 -78 1 81 219 rlineto
          6 hlineto
          endchar
        </CharString>
        <CharString name="abreveacute">
          -21 21 -21 117.5 74 219.5 90 61 72 78 -20 hstem
          21 468 vstem
          254 684 rmoveto
          9 2 36 34 34 33 34 35 rlinecurve
          -1 9 -47 32 -9 -2 -29 -40 -30 -38 -30 -37 rlinecurve
          42 -150 rmoveto
          66 50 35 62 22 hvcurveto
          -25 33 rlineto
          -15 hlineto
          -37 -16 -33 -21 -46 hhcurveto
          -47 -35 21 37 -15 hvcurveto
          -15 hlineto
          -26 -33 rlineto
          -62 21 47 -35 67 hhcurveto
          226 -562 rmoveto
          -170 501 rlineto
          -112 hlineto
          -186 -501 rlineto
          94 hlineto
          15 67 19 50 99 1 113 -1 18 -55 12 -62 rlineto
          -55 192 rmoveto
          -81 -1 -78 1 81 219 rlineto
          6 hlineto
          endchar
        </CharString>
        <CharString name="abrevedotbelow">
          -21 -176 114 83 -21 117.5 74 219.5 90 67 72 hstem
          201 111 vstem
          263 568 rmoveto
          78 44 49 70 17 hvcurveto
          -25 36 rlineto
          -15 hlineto
          -55 -14 -33 -28 -49 hhcurveto
          -48 -34 28 55 -14 hvcurveto
          -15 hlineto
          -26 -36 rlineto
          -68 16 41 -51 77 hhcurveto
          226 -568 rmoveto
          -170 501 rlineto
          -112 hlineto
          -186 -501 rlineto
          94 hlineto
          15 67 19 50 99 1 113 -1 18 -55 12 -62 rlineto
          -55 192 rmoveto
          -81 -1 -78 1 81 219 rlineto
          6 hlineto
          -5 -473 rmoveto
          -36 -22 -23 -35 -35 20 -21 35 34 22 23 36 34 -19 21 -34 hvcurveto
          endchar
        </CharString>
        <CharString name="abrevegrave">
          -21 21 -21 117.5 74 219.5 90 61 72 78 -20 hstem
          21 468 vstem
          274 684 rmoveto
          34 28 -32 37 -28 38 -30 40 rlinecurve
          -8 2 -48 -32 rlineto
          -9 vlineto
          33 -35 35 -33 34 -34 rrcurveto
          -1 -124 rmoveto
          66 50 35 62 22 hvcurveto
          -25 33 rlineto
          -15 hlineto
          -37 -16 -33 -21 -46 hhcurveto
          -47 -35 21 37 -15 hvcurveto
          -15 hlineto
          -26 -33 rlineto
          -62 21 47 -35 67 hhcurveto
          226 -562 rmoveto
          -170 501 rlineto
          -112 hlineto
          -186 -501 rlineto
          94 hlineto
          15 67 19 50 99 1 113 -1 18 -55 12 -62 rlineto
          -55 192 rmoveto
          -81 -1 -78 1 81 219 rlineto
          6 hlineto
          endchar
        </CharString>
        <CharString name="abrevehookabove">
          -21 21 -21 117.5 74 219.5 90 61 72 195 52 hstem
          276 58 vstem
          248 829 rmoveto
          16 12 -7 -14 -18 -19 -26 -32 -24 hvcurveto
          36 -59 40 22 -21 37 rlineto
          38 31 16 21 26 vvcurveto
          36 -31 27 -40 -32 -34 -18 -28 -28 vhcurveto
          19 -30 rlineto
          16 20 22 8 18 hhcurveto
          15 -267 rmoveto
          66 50 35 62 22 hvcurveto
          -25 33 rlineto
          -15 hlineto
          -37 -16 -33 -21 -46 hhcurveto
          -47 -35 21 37 -15 hvcurveto
          -15 hlineto
          -26 -33 rlineto
          -62 21 47 -35 67 hhcurveto
          226 -562 rmoveto
          -170 501 rlineto
          -112 hlineto
          -186 -501 rlineto
          94 hlineto
          15 67 19 50 99 1 113 -1 18 -55 12 -62 rlineto
          -55 192 rmoveto
          -81 -1 -78 1 81 219 rlineto
          6 hlineto
          endchar
        </CharString>
        <CharString name="abrevetilde">
          -21 21 -21 117.5 74 219.5 90 62 69 hstem
          21 468 vstem
          143 720 rmoveto
          9 hlineto
          25 23 16 22 16 hhcurveto
          24 80 -30 -5 40 hvcurveto
          11 4 60 74 rlineto
          9 vlineto
          -28 30 rlineto
          -9 hlineto
          -25 -24 -15 -22 -17 hhcurveto
          -23 -80 30 5 -41 hvcurveto
          -10 -4 -61 -74 rlineto
          -9 vlineto
          155 -118 rmoveto
          -46 -33 21 36 -15 hvcurveto
          -15 hlineto
          -24 -33 rlineto
          -60 19 46 -33 65 hhcurveto
          64 48 33 60 22 hvcurveto
          -25 33 rlineto
          -15 hlineto
          -36 -15 -32 -21 -44 hhcurveto
          220 -632 rmoveto
          -170 501 rlineto
          -112 hlineto
          -186 -501 rlineto
          94 hlineto
          15 67 19 50 99 1 113 -1 18 -55 12 -62 rlineto
          -55 192 rmoveto
          -81 -1 -78 1 81 219 rlineto
          6 hlineto
          endchar
        </CharString>
        <CharString name="acaron">
          -21 21 -21 117.5 74 219.5 90 199 -20 hstem
          21 468 vstem
          278 563 rmoveto
          45 51 44 47 41 39 -27 40 rcurveline
          -11 hlineto
          -39 -35 -35 -32 -31 -33 -30 33 -35 32 -40 35 rrcurveto
          -10 hlineto
          -27 -40 44 -42 44 -48 41 -47 rlinecurve
          237 -563 rmoveto
          -170 501 rlineto
          -112 hlineto
          -186 -501 rlineto
          94 hlineto
          15 67 19 50 99 1 113 -1 18 -55 12 -62 rlineto
          -55 192 rmoveto
          -81 -1 -78 1 81 219 rlineto
          6 hlineto
          endchar
        </CharString>
        <CharString name="acircumflex">
          -21 21 -21 117.5 74 219.5 90 hstem
          21 468 vstem
          150 564 rmoveto
          11 hlineto
          39 35 35 32 31 33 30 -33 35 -32 40 -35 rrcurveto
          10 hlineto
          27 40 -44 42 -44 48 -41 47 rlinecurve
          -26 hlineto
          -45 -51 -44 -47 -41 -39 rrcurveto
          366 -604 rmoveto
          -170 501 rlineto
          -112 hlineto
          -186 -501 rlineto
          94 hlineto
          15 67 19 50 99 1 113 -1 18 -55 12 -62 rlineto
          -55 192 rmoveto
          -81 -1 -78 1 81 219 rlineto
          6 hlineto
          endchar
        </CharString>
        <CharString name="acircumflexacute">
          -21 21 -21 117.5 74 219.5 90 208 -20 23 -20 hstemhm
          21 468 hintmask 11101100
          354 684 rmoveto
          8 hlineto
          87 109 -1 9 -51 24 -8 -3 -70 -111 rlineto
          -171 -142 rmoveto
          11 hlineto
          36 22 35 21 34 23 35 -23 35 -21 36 -22 rrcurveto
          11 hlineto
          hintmask 11110100
          19 43 -44 30 -42 32 -38 34 rlinecurve
          -24 hlineto
          -38 -34 -41 -32 -45 -30 rrcurveto
          361 -613 rmoveto
          -170 501 rlineto
          -112 hlineto
          -186 -501 rlineto
          94 hlineto
          15 67 19 50 99 1 113 -1 18 -55 12 -62 rlineto
          -55 192 rmoveto
          -81 -1 -78 1 81 219 rlineto
          6 hlineto
          endchar
        </CharString>
        <CharString name="acircumflexdotbelow">
          -21 -176 114 83 -21 117.5 74 219.5 90 hstem
          201 111 vstem
          150 564 rmoveto
          11 hlineto
          39 35 35 32 31 33 30 -33 35 -32 40 -35 rrcurveto
          10 hlineto
          27 40 -44 42 -44 48 -41 47 rlinecurve
          -26 hlineto
          -45 -51 -44 -47 -41 -39 rrcurveto
          366 -604 rmoveto
          -170 501 rlineto
          -112 hlineto
          -186 -501 rlineto
          94 hlineto
          15 67 19 50 99 1 113 -1 18 -55 12 -62 rlineto
          -55 192 rmoveto
          -81 -1 -78 1 81 219 rlineto
          6 hlineto
          -5 -473 rmoveto
          -36 -22 -23 -35 -35 20 -21 35 34 22 23 36 34 -19 21 -34 hvcurveto
          endchar
        </CharString>
        <CharString name="acircumflexgrave">
          -21 21 -21 117.5 74 219.5 90 208 -20 23 -20 hstemhm
          21 468 hintmask 11101100
          369 684 rmoveto
          8 hlineto
          35 28 -70 111 -7 3 -52 -24 -1 -9 rlineto
          -134 -223 rmoveto
          11 hlineto
          36 22 35 21 34 23 35 -23 35 -21 36 -22 rrcurveto
          11 hlineto
          hintmask 11110100
          19 43 -44 30 -42 32 -38 34 rlinecurve
          -24 hlineto
          -38 -34 -41 -32 -45 -30 rrcurveto
          361 -613 rmoveto
          -170 501 rlineto
          -112 hlineto
          -186 -501 rlineto
          94 hlineto
          15 67 19 50 99 1 113 -1 18 -55 12 -62 rlineto
          -55 192 rmoveto
          -81 -1 -78 1 81 219 rlineto
          6 hlineto
          endchar
        </CharString>
        <CharString name="acircumflexhookabove">
          -21 21 -21 117.5 74 219.5 90 208 -20 129 49 hstem
          374 55 vstem
          348 818 rmoveto
          15 11 -7 -14 -16 -18 -25 -30 -23 hvcurveto
          34 -57 38 22 -20 35 rlineto
          36 30 15 20 24 vvcurveto
          35 -29 25 -38 -31 -32 -17 -27 -26 vhcurveto
          18 -28 rlineto
          15 18 22 8 17 hhcurveto
          -200 -248 rmoveto
          11 hlineto
          36 22 35 21 34 23 35 -23 35 -21 36 -22 rrcurveto
          11 hlineto
          19 43 -44 30 -42 32 -38 34 rlinecurve
          -24 hlineto
          -38 -34 -41 -32 -45 -30 rrcurveto
          361 -613 rmoveto
          -170 501 rlineto
          -112 hlineto
          -186 -501 rlineto
          94 hlineto
          15 67 19 50 99 1 113 -1 18 -55 12 -62 rlineto
          -55 192 rmoveto
          -81 -1 -78 1 81 219 rlineto
          6 hlineto
          endchar
        </CharString>
        <CharString name="acircumflextilde">
          -21 21 -21 117.5 74 219.5 90 208 -20 hstem
          21 468 vstem
          143 720 rmoveto
          9 hlineto
          25 23 16 22 16 hhcurveto
          24 80 -30 -5 40 hvcurveto
          11 4 60 74 rlineto
          9 vlineto
          -28 30 rlineto
          -9 hlineto
          -25 -24 -15 -22 -17 hhcurveto
          -23 -80 30 5 -41 hvcurveto
          -10 -4 -61 -74 rlineto
          -9 vlineto
          138 -41 rmoveto
          -38 -34 -41 -32 -45 -30 20 -43 rcurveline
          11 hlineto
          36 22 35 21 34 23 35 -23 35 -21 36 -22 rrcurveto
          11 hlineto
          19 43 -44 30 -42 32 -38 34 rlinecurve
          213 -709 rmoveto
          -170 501 rlineto
          -112 hlineto
          -186 -501 rlineto
          94 hlineto
          15 67 19 50 99 1 113 -1 18 -55 12 -62 rlineto
          -55 192 rmoveto
          -81 -1 -78 1 81 219 rlineto
          6 hlineto
          endchar
        </CharString>
        <CharString name="acute">
          653 -20 75 -20 hstem
          86 219 vstem
          267 707 rmoveto
          -10 1 -58 -55 -54 -45 -59 -48 rlinecurve
          26 -40 10 -1 60 39 58 39 63 46 rlinecurve
          2 10 rlineto
          endchar
        </CharString>
        <CharString name="acute.cap">
          538 155 hstem
          77 235 vstem
          285 691 rmoveto
          -10 2 -68 -40 -64 -33 -66 -34 rlinecurve
          17 -44 11 -4 67 26 65 25 71 31 rlinecurve
          4 10 rlineto
          endchar
        </CharString>
        <CharString name="adieresis">
          -21 21 -21 117.5 74 219.5 90 98 106 hstem
          131 104 60 104 vstem
          182 599 rmoveto
          33 20 21 34 32 -18 19 -32 -33 -21 -21 -33 -33 18 -19 33 hvcurveto
          164 hmoveto
          33 20 21 34 32 -18 19 -32 -33 -21 -21 -33 -33 18 -19 33 hvcurveto
          143 -599 rmoveto
          -170 501 rlineto
          -112 hlineto
          -186 -501 rlineto
          94 hlineto
          15 67 19 50 99 1 113 -1 18 -55 12 -62 rlineto
          -55 192 rmoveto
          -81 -1 -78 1 81 219 rlineto
          6 hlineto
          endchar
        </CharString>
        <CharString name="adotbelow">
          -21 -176 114 83 -21 117.5 74 219.5 90 hstem
          201 111 vstem
          489 hmoveto
          -170 501 rlineto
          -112 hlineto
          -186 -501 rlineto
          94 hlineto
          15 67 19 50 99 1 113 -1 18 -55 12 -62 rlineto
          -55 192 rmoveto
          -81 -1 -78 1 81 219 rlineto
          6 hlineto
          -5 -473 rmoveto
          -36 -22 -23 -35 -35 20 -21 35 34 22 23 36 34 -19 21 -34 hvcurveto
          endchar
        </CharString>
        <CharString name="ae">
          164 0 75 353 73 -8 8 hstemhm
          -1 684 hintmask 11010000
          683 73 rmoveto
          -6 7 -137 -5 rlineto
          -89 hlineto
          -18 123 173 35 -6 72 -7 5 -171 -39 -23 157 rlineto
          76 hlineto
          132 -6 rlineto
          hintmask 10110000
          8 71 -6 8 rlineto
          hintmask 11010000
          -340 hlineto
          -270 -501 rlineto
          92 hlineto
          22 65 36 65 198 48 17 -118 4 -60 rlineto
          308 hlineto
          -340 250 rmoveto
          -139 -32 108 195 rlineto
          7 hlineto
          endchar
        </CharString>
        <CharString name="aeacute">
          164 0 75 353 73 -8 8 hstemhm
          0 684 hintmask 11010000
          357 560 rmoveto
          10 -1 60 39 58 39 63 46 rlinecurve
          2 10 -38 54 -10 1 -58 -55 -54 -45 -59 -48 rlinecurve
          353 -527 rmoveto
          -6 7 -137 -5 rlineto
          -89 hlineto
          -18 123 172 35 -7 72 -6 5 -170 -39 -23 157 rlineto
          76 hlineto
          131 -6 rlineto
          hintmask 10110000
          9 71 -6 8 rlineto
          hintmask 11010000
          -341 hlineto
          -269 -501 rlineto
          92 hlineto
          22 65 36 65 198 48 17 -118 4 -60 rlineto
          308 hlineto
          -340 251 rmoveto
          -139 -33 108 195 rlineto
          7 hlineto
          endchar
        </CharString>
        <CharString name="agrave">
          -21 21 -21 117.5 74 219.5 90 hstem
          21 468 vstem
          348 560 rmoveto
          26 40 -59 48 -54 45 -58 55 rlinecurve
          -10 -1 -38 -54 2 -10 63 -46 58 -39 60 -39 rlinecurve
          151 -559 rmoveto
          -170 501 rlineto
          -112 hlineto
          -186 -501 rlineto
          94 hlineto
          15 67 19 50 99 1 113 -1 18 -55 12 -62 rlineto
          -55 192 rmoveto
          -81 -1 -78 1 81 219 rlineto
          6 hlineto
          endchar
        </CharString>
        <CharString name="ahookabove">
          -21 21 -21 117.5 74 219.5 90 211 52 hstem
          271 58 vstem
          243 712 rmoveto
          16 12 -7 -14 -18 -19 -26 -32 -24 hvcurveto
          36 -59 40 22 -21 37 rlineto
          38 31 16 21 26 vvcurveto
          36 -31 27 -40 -32 -34 -18 -28 -28 vhcurveto
          19 -30 rlineto
          16 20 22 8 18 hhcurveto
          246 -712 rmoveto
          -170 501 rlineto
          -112 hlineto
          -186 -501 rlineto
          94 hlineto
          15 67 19 50 99 1 113 -1 18 -55 12 -62 rlineto
          -55 192 rmoveto
          -81 -1 -78 1 81 219 rlineto
          6 hlineto
          endchar
        </CharString>
        <CharString name="amacron">
          -21 21 -21 117.5 74 219.5 90 118 66 hstem
          21 468 vstem
          125 619 rmoveto
          282 hlineto
          5 59 -7 7 rlineto
          -282 hlineto
          -5 -58 rlineto
          371 -627 rmoveto
          -170 501 rlineto
          -112 hlineto
          -186 -501 rlineto
          94 hlineto
          15 67 19 50 99 1 113 -1 18 -55 12 -62 rlineto
          -55 192 rmoveto
          -81 -1 -78 1 81 219 rlineto
          6 hlineto
          endchar
        </CharString>
        <CharString name="ampersand">
          221 -11 75 153 75 -40 74 115 68 202 -20 hstemhm
          38 88 175 65 hintmask 00000000
          hintmask 11011100
          800 348 rmoveto
          -12 -1 rlineto
          -39 -16 -25 -16 -36 hhcurveto
          hintmask 10111110
          -53 -122 34 -52 hhcurveto
          -49 -5 -30 -23 -27 -45 17 -58 rcurveline
          11 1 rlineto
          39 22 25 17 31 hhcurveto
          11 17 -2 -3 19 hvcurveto
          -111 -7 -89 -72 -121 hhcurveto
          -99 -58 48 76 -21 hvcurveto
          234 93 243 205 69 157 -7 27 -13 21 -21 20 rrcurveto
          -9 hlineto
          -52 -116 -96 -111 -120 -89 rrcurveto
          1 7 1 6 6 vvcurveto
          53 -42 42 -77 -119 -90 -101 -156 -163 99 -100 168 167 115 98 145 18 vhcurveto
          hintmask 11011110
          -8 41 40 -7 26 hhcurveto
          49 6 29 24 27 44 rrcurveto
          -573 150 rmoveto
          31 23 -14 -29 3 hvcurveto
          1 -19 -8 -27 -29 -23 -45 -27 -46 -23 -48 -19 rrcurveto
          6 vlineto
          106 46 69 72 vhcurveto
          endchar
        </CharString>
        <CharString name="aogonek">
          -21 -196 64 153 -21 117.5 74 219.5 90 hstem
          357 63 vstem
          516 -94 rmoveto
          -6 hlineto
          -24 -18 -20 -14 -22 hhcurveto
          -17 -13 8 25 16 6 27 41 56 hvcurveto
          22 hlineto
          -170 501 rlineto
          -112 hlineto
          -186 -501 rlineto
          94 hlineto
          15 67 19 50 99 1 113 -1 18 -55 12 -62 rlineto
          18 hlineto
          -39 -58 -13 -31 -29 vvcurveto
          -48 34 -30 45 35 27 18 34 29 vhcurveto
          -191 336 rmoveto
          -81 -1 -78 1 81 219 rlineto
          6 hlineto
          endchar
        </CharString>
        <CharString name="approxequal">
          -60 109 309 hstem
          54 398 vstem
          162 338 rmoveto
          32 119 -43 -7 51 hvcurveto
          11 4 77 82 rlineto
          10 vlineto
          -27 34 rlineto
          -10 hlineto
          -30 -31 -20 -23 -19 hhcurveto
          -32 -120 42 9 -51 hvcurveto
          -11 -6 -77 -81 rlineto
          -10 vlineto
          27 -34 rlineto
          11 hlineto
          29 30 20 24 20 hhcurveto
          -175 vmoveto
          32 119 -44 -6 51 hvcurveto
          11 3 77 82 rlineto
          10 vlineto
          -27 34 rlineto
          -10 hlineto
          -30 -31 -20 -23 -19 hhcurveto
          -32 -120 42 9 -51 hvcurveto
          -11 -5 -77 -81 rlineto
          -11 vlineto
          27 -34 rlineto
          11 hlineto
          29 30 20 25 20 hhcurveto
          endchar
        </CharString>
        <CharString name="aring">
          -21 21 -21 117.5 74 219.5 90 72 45 84 46 hstem
          175 46 86 46 vstem
          262 573 rmoveto
          53 38 32 58 50 -30 35 -58 -57 -33 -33 -55 -56 35 -31 52 hvcurveto
          1 129 rmoveto
          30 14 -17 -25 -29 -17 -13 -26 -27 -16 14 30 25 14 15 28 hvcurveto
          226 -702 rmoveto
          -170 501 rlineto
          -112 hlineto
          -186 -501 rlineto
          94 hlineto
          15 67 19 50 99 1 113 -1 18 -55 12 -62 rlineto
          -55 192 rmoveto
          -81 -1 -78 1 81 219 rlineto
          6 hlineto
          endchar
        </CharString>
        <CharString name="aringacute">
          -21 21 -21 117.5 74 219.5 90 72 45 84 46 hstem
          175 46 86 46 vstem
          177 768 rmoveto
          10 -5 70 15 68 14 76 20 rlinecurve
          5 9 -16 64 -10 4 -74 -29 -68 -23 -71 -22 rlinecurve
          8 -155 rmoveto
          -56 35 -31 52 53 38 32 58 50 -30 35 -58 -57 -33 -33 -55 vhcurveto
          132 hmoveto
          -29 -17 -13 -26 -27 -16 14 30 25 14 15 28 30 14 -17 -25 vhcurveto
          182 -660 rmoveto
          -170 501 rlineto
          -112 hlineto
          -186 -501 rlineto
          94 hlineto
          15 67 19 50 99 1 113 -1 18 -55 12 -62 rlineto
          -55 192 rmoveto
          -81 -1 -78 1 81 219 rlineto
          6 hlineto
          endchar
        </CharString>
        <CharString name="arrowdown">
          -17 16 -21 466 7 -4 -20 hstemhm
          227 68 hintmask 10110000
          469 190 rmoveto
          -14 56 rlineto
          -15 hlineto
          -147 -142 4 360 rlineto
          hintmask 11010000
          -65 4 -7 -7 4 -356 -146 141 rlineto
          -15 hlineto
          -14 -56 200 -195 rlineto
          16 hlineto
          endchar
        </CharString>
        <CharString name="arrowdownleft">
          -17 57 60 hstem
          97 60 vstem
          408 115 rmoveto
          -204 4 257 252 -43 49 rlineto
          -10 hlineto
          -249 -256 -4 204 -10 11 -50 -30 4 -279 11 -11 279 -4 30 50 rlineto
          endchar
        </CharString>
        <CharString name="arrowdownright">
          -17 54 60 hstem
          364 60.5 vstem
          426 346 rmoveto
          -50 29 -10 -10 -4 -205 -251 258 -49 -43 -1 -10 256 -249 -204 -4 -10 -10 29 -50 280 4 11 11 rlineto
          endchar
        </CharString>
        <CharString name="arrowleft">
          -17 200 68 hstem
          23 473 vstem
          492 198 rmoveto
          4 65 -7 7 -356 -4 141 146 rlineto
          15 vlineto
          -56 14 -195 -200 rlineto
          -16 vlineto
          195 -199 56 14 rlineto
          15 vlineto
          -142 147 rlineto
          endchar
        </CharString>
        <CharString name="arrowright">
          -17 201 68 hstem
          25 473 vstem
          498 243 rmoveto
          -195 200 -56 -14 rlineto
          -15 vlineto
          142 -147 -360 4 -4 -65 7 -7 357 4 -142 -147 rlineto
          -14 vlineto
          56 -15 195 201 rlineto
          endchar
        </CharString>
        <CharString name="arrowup">
          -17 21 -21 473 -20 hstem
          227 68 vstem
          469 278 rmoveto
          -201 195 rlineto
          -15 hlineto
          -200 -195 14 -56 rlineto
          15 hlineto
          147 142 -4 -360 65 -4 7 7 -4 357 147 -142 rlineto
          14 hlineto
          endchar
        </CharString>
        <CharString name="arrowupleft">
          -17 350 60 hstem
          96.5 60.5 vstem
          460 99 rmoveto
          -255 249 203 4 10 11 -29 49 -280 -4 -11 -11 -3 -279 50 -29 10 10 4 205 251 -257 49 42 rlineto
          endchar
        </CharString>
        <CharString name="arrowupright">
          -17 354 60.5 hstem
          365 60 vstem
          427 122 rmoveto
          -4 280 -11 11 -279 3 -30 -50 11 -10 204 -4 -257 -252 43 -48 10 -1 249 256 4 -204 10 -11 rlineto
          endchar
        </CharString>
        <CharString name="asciicircum">
          -109 420 74 hstem
          19 394 vstem
          413 139 rmoveto
          -149 355 rlineto
          -83 hlineto
          -10 -6 -152 -354 58 -22 9 5 131 303 rlineto
          6 hlineto
          125 -304 57 14 rlineto
          endchar
        </CharString>
        <CharString name="asciitilde">
          -60 195 133 hstem
          42 397 vstem
          149 248 rmoveto
          32 119 -43 -7 52 hvcurveto
          11 4 76 82 rlineto
          10 vlineto
          -27 34 rlineto
          -10 hlineto
          -30 -30 -21 -23 -18 hhcurveto
          -33 -119 42 9 -52 hvcurveto
          -11 -6 -76 -81 rlineto
          -10 vlineto
          27 -34 rlineto
          11 hlineto
          29 29 21 24 19 hhcurveto
          endchar
        </CharString>
        <CharString name="asterisk">
          -162 597 -20 153 7 hstem
          161.5 45.5 vstem
          233 730 rmoveto
          -5 7 rlineto
          -23 -24 -3 -8 -21 hvcurveto
          3 -114 6 -7 38 4 rlineto
          -58 -12 rmoveto
          -100 63 -7 -2 rlineto
          -8 -22 -2 -26 -21 vvcurveto
          103 -33 9 4 rlineto
          78 39 rmoveto
          -4 -9 17 -34 115 13 5 6 -8 22 -12 22 -12 18 rlinecurve
          -93 -101 rmoveto
          -10 1 -27 -24 45 -116 9 -2 18 15 17 15 12 20 rlinecurve
          -120 74 rmoveto
          -33 17 -87 -82 rlineto
          -8 vlineto
          20 -12 21 -13 22 -6 58 94 rcurveline
          endchar
        </CharString>
        <CharString name="at">
          293 -203 59 157 -21 26 -21 463 -20 24 -20 21 -20 112 66 hstemhm
          33 69 118 85 433 68 hintmask 1010011111000000
          806 304 rmoveto
          194 -135 125 -207 -260 -171 -183 -254 -243 170 -143 255 -3 vhcurveto
          30 49 -4 10 rlineto
          -230 -152 127 216 207 139 148 212 3 hvcurveto
          175 4 110 -104 -156 vvcurveto
          -130 -71 -85 -120 -16 vhcurveto
          2 41 rlineto
          hintmask 1011001111000000
          50 349 -11 5 rlineto
          hintmask 1100101111000000
          -57 -23 -69 22 rlineto
          -5 hlineto
          -160 -30 -77 -149 -133 vvcurveto
          -79 27 -52 60 -29 vhcurveto
          16 hlineto
          53 52 48 67 42 71 rrcurveto
          11 hlineto
          hintmask 1010011111000000
          -26 -185 rlineto
          228 7 127 108 192 vvcurveto
          -473 -213 rmoveto
          -13 -15 19 71 117 49 93 85 hvcurveto
          64 -24 -1 -13 -1 -8 rlineto
          -171 -72 -74 -84 -22 hhcurveto
          endchar
        </CharString>
        <CharString name="atilde">
          -21 21 -21 117.5 74 219.5 90 208 -20 hstem
          21 468 vstem
          130 587 rmoveto
          10 hlineto
          26 25 16 23 18 hhcurveto
          26 85 -31 -6 44 hvcurveto
          10 5 65 77 rlineto
          9 vlineto
          -30 32 rlineto
          -10 hlineto
          -27 -25 -17 -22 -17 hhcurveto
          -25 -86 30 6 -44 hvcurveto
          -11 -4 -65 -77 rlineto
          -9 vlineto
          390 -619 rmoveto
          -170 501 rlineto
          -112 hlineto
          -186 -501 rlineto
          94 hlineto
          15 67 19 50 99 1 113 -1 18 -55 12 -62 rlineto
          -55 192 rmoveto
          -81 -1 -78 1 81 219 rlineto
          6 hlineto
          endchar
        </CharString>
        <CharString name="b">
          -44 -3 70 -46 -21 218.5 71 140.5 72 hstemhm
          85 92 148 100 -71 99 hintmask 10111010
          345 260 rmoveto
          hintmask 01111100
          50 21 30 41 56 vvcurveto
          81 -63 43 -103 vhcurveto
          -176 -1 4 -351 -4 -150 rlineto
          hintmask 10111010
          -2 44 60 -1 33 hhcurveto
          151 82 46 99 65 -38 38 -70 15 hvcurveto
          hintmask 10111100
          -20 105 rmoveto
          -45 -23 -22 -44 -10 vhcurveto
          -82 3 2 139 rlineto
          48 hlineto
          71 28 -18 -47 hvcurveto
          hintmask 10111010
          -90 -298 rmoveto
          -16 -22 1 2 -21 hvcurveto
          -2 89 1 59 94 1 rlineto
          56 -9 29 -22 -42 vvcurveto
          -53 -43 -26 -76 vhcurveto
          endchar
        </CharString>
        <CharString name="b.sups">
          -188 328 56 195 67 -48 -20 hstemhm
          46 83.5 114.5 80 hintmask 00000000
          hintmask 11011000
          206 646 rmoveto
          hintmask 10111000
          -28 -2 -26 -19 -22 -27 rrcurveto
          -2 hlineto
          3 203 -86 -5 2 -335 -2 -123 8 -9 38 12 rlineto
          -8 27 28 -5 27 hhcurveto
          93 58 60 108 hvcurveto
          hintmask 11011000
          95 -44 55 -74 vhcurveto
          -39 -262 rmoveto
          -11 -14 3 5 -15 hvcurveto
          -1 81 1 82 rlineto
          16 17 17 8 19 hhcurveto
          43 21 -33 -59 -73 -29 -30 -48 hvcurveto
          endchar
        </CharString>
        <CharString name="backslash">
          -254 669 10 hstem
          -1 283 vstem
          76 679 rmoveto
          -69 hlineto
          -8 -10 206 -783 rlineto
          70 hlineto
          7 9 rlineto
          endchar
        </CharString>
        <CharString name="bar">
          -229 -261 1061 hstem
          116 78 vstem
          195 793 rmoveto
          -7 7 -71 -6 -1 -512 rlineto
          -533 vlineto
          8 -10 70 5 rlineto
          545 vlineto
          endchar
        </CharString>
        <CharString name="braceleft">
          -249 -127 63 655 65 hstemhm
          41 91 -35 81 -61 83 hintmask 11010000
          221 656 rmoveto
          -81 -43 -40 -75 hvcurveto
          hintmask 11001000
          -58 20 -67 -44 vvcurveto
          -44 -24 -28 -52 -11 vhcurveto
          hintmask 11100000
          -50 vlineto
          hintmask 11001000
          52 -11 24 -27 -45 -44 -20 -66 -58 vvcurveto
          hintmask 11010000
          -75 43 -40 81 21 17 2 6 19 vhcurveto
          4 8 -9 52 rlineto
          -3 -14 -10 -2 -12 hhcurveto
          -40 -19 23 47 hvcurveto
          hintmask 11001000
          47 22 62 45 vvcurveto
          46 -23 37 -45 19 vhcurveto
          5 vlineto
          45 19 23 35 49 vvcurveto
          hintmask 11010000
          43 -22 64 46 vvcurveto
          46 19 22 40 12 10 -2 -3 14 vhcurveto
          9 54 -4 8 rlineto
          4 -19 -17 4 -21 hhcurveto
          endchar
        </CharString>
        <CharString name="braceright">
          -249 -127 64 655 64 hstemhm
          91 82 -60 81 -35 91 hintmask 11010000
          70 -127 rmoveto
          81 43 40 75 hvcurveto
          hintmask 11100000
          58 -21 67 43 vvcurveto
          45 25 27 52 12 vhcurveto
          hintmask 11001000
          50 vlineto
          hintmask 11100000
          -52 10 -25 28 45 43 21 67 58 vvcurveto
          hintmask 11010000
          75 -43 40 -81 -21 -17 -3 -5 -19 vhcurveto
          -4 -8 9 -53 rlineto
          3 13 11 2 12 hhcurveto
          40 19 -22 -47 hvcurveto
          hintmask 11100000
          -47 -22 -62 -46 vvcurveto
          -46 23 -36 45 -19 vhcurveto
          -5 vlineto
          -45 -19 -23 -36 -48 vvcurveto
          hintmask 11010000
          -43 22 -64 -46 vvcurveto
          -46 -19 -23 -40 -12 -11 2 3 -13 vhcurveto
          -9 -53 4 -8 rlineto
          -5 19 17 -3 21 hhcurveto
          endchar
        </CharString>
        <CharString name="bracketleft">
          -249 -123 54 656.5 59.5 hstem
          92.5 81.5 vstem
          287 641 rmoveto
          -5 6 -192 -10 5 -377 -5 -378 192 -10 5 6 rlineto
          47 vlineto
          -113 12 rlineto
          644 vlineto
          113 13 rlineto
          endchar
        </CharString>
        <CharString name="bracketright">
          -249 -123 54.5 656.5 59 hstem
          117 81.5 vstem
          4 -122 rmoveto
          5 -6 192 10 -5 378 5 377 -192 10 -5 -5 rlineto
          -48 vlineto
          113 -12 rlineto
          -644 vlineto
          -113 -13 rlineto
          endchar
        </CharString>
        <CharString name="breve">
          528 72 47 -20 hstem
          58 273 vstem
          306 683 rmoveto
          -15 hlineto
          -55 -14 -33 -28 -49 hhcurveto
          -48 -34 28 55 -14 hvcurveto
          -15 hlineto
          -26 -36 rlineto
          -68 16 41 -51 77 hhcurveto
          78 44 49 70 17 hvcurveto
          endchar
        </CharString>
        <CharString name="breve.cap">
          542 72 hstem
          58 273 vstem
          306 672 rmoveto
          -15 hlineto
          -37 -16 -33 -21 -46 hhcurveto
          -47 -35 21 37 -15 hvcurveto
          -15 hlineto
          -26 -33 rlineto
          -62 21 47 -35 67 hhcurveto
          66 50 35 62 22 hvcurveto
          endchar
        </CharString>
        <CharString name="breveacute">
          522 72 25 33 0 -20 hstemhm
          58 273 hintmask 10110000
          296 757 rmoveto
          -47 32 -9 -2 -29 -40 -30 -38 -30 -37 rlinecurve
          33 -28 9 2 36 34 34 33 34 35 rlinecurve
          9 -96 rmoveto
          -15 hlineto
          -37 -16 -33 -21 -46 hhcurveto
          -47 -35 21 37 -15 hvcurveto
          -15 hlineto
          hintmask 11010000
          -26 -33 rlineto
          hintmask 10110000
          -62 21 47 -35 67 hhcurveto
          66 50 35 62 22 hvcurveto
          endchar
        </CharString>
        <CharString name="brevegrave">
          522 72 25 33 0 -20 hstemhm
          58 273 hintmask 10110000
          140 789 rmoveto
          -48 -32 rlineto
          -9 vlineto
          34 -35 34 -33 35 -34 10 -2 rcurveline
          33 28 -31 37 -29 38 -29 40 rlinecurve
          157 -135 rmoveto
          -15 hlineto
          -37 -16 -33 -21 -46 hhcurveto
          -47 -35 21 37 -15 hvcurveto
          -15 hlineto
          hintmask 11010000
          -26 -33 rlineto
          hintmask 10110000
          -62 21 47 -35 67 hhcurveto
          66 50 35 62 22 hvcurveto
          endchar
        </CharString>
        <CharString name="brevehookabove">
          522 72 25 33 0 -20 67 -20 21 -20 109 51 hstemhm
          206 58 hintmask 10101110
          193 840 rmoveto
          -32 -34 -17 -29 -28 hvcurveto
          19 -30 rlineto
          16 20 22 9 18 hhcurveto
          16 12 -7 -15 -17 -19 -26 -32 -24 hvcurveto
          hintmask 10110110
          36 -60 40 23 -21 36 rlineto
          38 32 16 21 26 vvcurveto
          hintmask 10101110
          36 -31 26 -40 vhcurveto
          113 -188 rmoveto
          -15 hlineto
          -37 -16 -33 -21 -46 hhcurveto
          -47 -35 21 37 -15 hvcurveto
          -15 hlineto
          hintmask 11001110
          -26 -33 rlineto
          hintmask 10101110
          -62 21 47 -35 67 hhcurveto
          66 50 35 62 22 hvcurveto
          endchar
        </CharString>
        <CharString name="brevetilde">
          522 70 24 33 0 -20 hstemhm
          44 308 hintmask 10110000
          352 779 rmoveto
          -29 30 rlineto
          -8 hlineto
          -25 -24 -15 -21 -17 hhcurveto
          -23 -80 29 5 -41 hvcurveto
          -10 -4 -61 -74 rlineto
          -8 vlineto
          29 -30 rlineto
          9 hlineto
          24 23 16 22 16 hhcurveto
          24 80 -30 -5 40 hvcurveto
          11 4 60 74 rlineto
          -47 -121 rmoveto
          -15 hlineto
          -36 -15 -32 -21 -44 hhcurveto
          -47 -33 21 36 -14 hvcurveto
          -15 hlineto
          hintmask 11010000
          -25 -33 rlineto
          hintmask 10110000
          -60 20 46 -34 64 hhcurveto
          65 48 34 60 21 hvcurveto
          endchar
        </CharString>
        <CharString name="brokenbar">
          -229 -261 1061 hstem
          116 78.5 vstem
          195 793 rmoveto
          -7 7 -72 -6 rlineto
          -421 vlineto
          8 -7 70 8 rlineto
          -224 vmoveto
          -9 10 -69 -8 rlineto
          -403 vlineto
          8 -10 70 5 rlineto
          endchar
        </CharString>
        <CharString name="bullet">
          -276 174 133 hstem
          66 130 vstem
          134 307 rmoveto
          -42 -26 -27 -41 -41 23 -24 40 41 26 27 43 39 -23 24 -39 hvcurveto
          endchar
        </CharString>
        <CharString name="bulletoperator">
          -276 174 133 hstem
          66 130 vstem
          134 307 rmoveto
          -42 -26 -27 -41 -41 23 -24 40 41 26 27 43 39 -23 24 -39 hvcurveto
          endchar
        </CharString>
        <CharString name="c">
          -82 -7 80 355 79 hstem
          40 101 vstem
          288 507 rmoveto
          -158 -90 -93 -167 -163 84 -91 153 52 43 11 20 43 hvcurveto
          8 85 -10 5 rlineto
          -25 -36 -49 -16 -46 hhcurveto
          -91 -50 63 120 117 49 55 89 48 45 -16 -25 32 hvcurveto
          9 3 18 85 rlineto
          21 -40 -49 11 -54 hhcurveto
          endchar
        </CharString>
        <CharString name="c.sups">
          -279 328 69 183 70 -20 20 hstemhm
          28 81 hintmask 11010000
          174 650 rmoveto
          -91 -55 -61 -104 -98 48 -59 83 31 29 7 9 25 hvcurveto
          9 65 -6 4 rlineto
          -10 -24 -23 -6 -21 hhcurveto
          -45 -25 33 63 56 24 31 41 21 20 -8 -12 19 hvcurveto
          8 4 rlineto
          hintmask 10110000
          15 66 rlineto
          hintmask 11010000
          11 -22 -31 9 -30 hhcurveto
          endchar
        </CharString>
        <CharString name="cacute">
          -82 -7 80 355 79 hstem
          40 101 vstem
          365 747 rmoveto
          -10 1 -58 -55 -54 -45 -59 -48 rlinecurve
          26 -40 10 -1 60 39 58 39 63 46 rlinecurve
          2 10 rlineto
          -115 -186 rmoveto
          -158 -90 -93 -167 -163 84 -91 153 52 43 11 20 43 hvcurveto
          8 85 -10 5 rlineto
          -25 -36 -49 -16 -46 hhcurveto
          -92 -49 63 120 117 49 55 89 48 45 -16 -25 32 hvcurveto
          9 3 18 85 rlineto
          21 -40 -49 11 -54 hhcurveto
          endchar
        </CharString>
        <CharString name="caron">
          700 -20 hstem
          52 285 vstem
          310 700 rmoveto
          -11 hlineto
          -39 -35 -35 -32 -31 -33 -30 33 -35 32 -40 35 rrcurveto
          -10 hlineto
          -27 -40 44 -42 44 -48 41 -47 rlinecurve
          26 hlineto
          45 51 44 47 41 39 rrcurveto
          endchar
        </CharString>
        <CharString name="caron.alt">
          510 -20 204 8 hstemhm
          157 54 hintmask 00000000
          hintmask 11100000
          238 694 rmoveto
          -7 8 -73 -5 -2 -187 8 -6 47 7 rlineto
          endchar
        </CharString>
        <CharString name="caron.cap">
          540 139 hstem
          59 272 vstem
          311 679 rmoveto
          -11 hlineto
          -36 -22 -35 -21 -34 -23 -35 23 -35 21 -36 22 rrcurveto
          -11 hlineto
          -19 -43 44 -30 42 -32 38 -34 rlinecurve
          24 hlineto
          38 34 41 32 45 30 rrcurveto
          endchar
        </CharString>
        <CharString name="ccaron">
          -82 -7 80 355 79 193 -20 hstem
          40 101 vstem
          383 740 rmoveto
          -11 hlineto
          -39 -35 -35 -32 -31 -33 -30 33 -35 32 -40 35 rrcurveto
          -10 hlineto
          -27 -40 44 -42 44 -48 41 -47 rlinecurve
          26 hlineto
          45 51 44 47 41 39 rrcurveto
          -122 -193 rmoveto
          -158 -90 -93 -167 -163 84 -91 153 52 43 11 20 43 hvcurveto
          8 85 -10 5 rlineto
          -25 -36 -49 -16 -46 hhcurveto
          -92 -49 63 120 117 49 55 89 48 45 -16 -25 32 hvcurveto
          9 3 18 85 rlineto
          21 -40 -49 11 -54 hhcurveto
          endchar
        </CharString>
        <CharString name="ccedilla">
          -82 -197 48 142 80 355 79 hstem
          40 101 150 64 vstem
          282 73 rmoveto
          -92 -49 63 120 117 49 55 89 48 45 -16 -25 32 hvcurveto
          9 3 18 85 rlineto
          21 -40 -49 11 -54 hhcurveto
          -158 -90 -93 -167 -149 71 -89 129 -14 hvcurveto
          -17 -68 49 -29 rlineto
          11 -5 8 -6 -11 vvcurveto
          -16 -12 -9 -17 -22 -17 12 19 -18 vhcurveto
          -5 -2 -9 -47 rlineto
          -16 18 25 -14 34 hhcurveto
          52 35 29 41 23 -10 18 -30 16 hvcurveto
          -34 20 12 43 45 2 39 11 38 18 rlinecurve
          8 85 -10 5 rlineto
          -25 -36 -49 -16 -46 hhcurveto
          endchar
        </CharString>
        <CharString name="ccircumflex">
          -82 -7 80 355 79 hstem
          40 101 vstem
          152 564 rmoveto
          11 hlineto
          39 35 35 32 31 33 30 -33 35 -32 40 -35 rrcurveto
          10 hlineto
          27 40 -44 42 -44 48 -41 47 rlinecurve
          -26 hlineto
          -45 -51 -44 -47 -41 -39 rrcurveto
          163 -97 rmoveto
          -158 -90 -93 -167 -163 84 -91 153 52 43 11 20 43 hvcurveto
          8 85 -10 5 rlineto
          -25 -36 -49 -16 -46 hhcurveto
          -92 -49 63 120 117 49 55 89 48 45 -16 -25 32 hvcurveto
          9 3 18 85 rlineto
          21 -40 -49 11 -54 hhcurveto
          endchar
        </CharString>
        <CharString name="cdotaccent">
          -82 -7 80 355 79 95 114 hstem
          40 101 70 111 vstem
          269 716 rmoveto
          -36 -22 -23 -35 -35 20 -21 35 34 22 23 36 34 -19 21 -34 hvcurveto
          19 -209 rmoveto
          -158 -90 -93 -167 -163 84 -91 153 52 43 11 20 43 hvcurveto
          8 85 -10 5 rlineto
          -25 -36 -49 -16 -46 hhcurveto
          -92 -49 63 120 117 49 55 89 48 45 -16 -25 32 hvcurveto
          9 3 18 85 rlineto
          21 -40 -49 11 -54 hhcurveto
          endchar
        </CharString>
        <CharString name="cedilla">
          -197 48 hstem
          214 64 vstem
          204 -50 rmoveto
          20 72 rlineto
          -54 hlineto
          -24 -95 49 -29 rlineto
          11 -5 8 -6 -11 vvcurveto
          -16 -12 -9 -17 -22 -17 12 19 -18 vhcurveto
          -5 -2 -9 -47 rlineto
          -16 18 25 -14 34 hhcurveto
          52 35 29 41 23 -10 18 -30 16 hvcurveto
          endchar
        </CharString>
        <CharString name="cent">
          -157 -121 9 147 68 404 -20 157 9 hstemhm
          34 80 57.5 58.5 -13 59 hintmask 11111010
          366 130 rmoveto
          -9 5 rlineto
          -20 -35 -41 -12 -37 hhcurveto
          -3 hlineto
          26 335 26 -5 26 -11 21 -13 rlinecurve
          10 2 15 65 -25 15 -35 12 -34 4 rlinecurve
          10 137 -9 9 rlineto
          -50 hlineto
          -10 -146 rlineto
          -111 -12 -67 -89 -140 vvcurveto
          -121 53 -83 90 -21 vhcurveto
          hintmask 11111100
          -11 -153 8 -9 rlineto
          50 hlineto
          12 156 rlineto
          hintmask 11111010
          44 2 44 13 34 19 rrcurveto
          -244 205 rmoveto
          87 34 59 58 16 vhcurveto
          -24 -318 rlineto
          -43 25 -25 54 77 vvcurveto
          endchar
        </CharString>
        <CharString name="circle1">
          -85 9 -21 476 -20 hstem
          -10 476 vstem
          228 464 rmoveto
          -131 -107 -107 -131 -131 107 -107 131 131 107 107 131 131 -107 107 -131 hvcurveto
          endchar
        </CharString>
        <CharString name="circle2">
          99 649 -20 hstem
          -12 663 vstem
          319 649 rmoveto
          -183 -148 -149 -183 -183 148 -148 183 183 149 148 183 183 -149 149 -183 hvcurveto
          endchar
        </CharString>
        <CharString name="circumflex">
          701 -20 hstem
          52 285 vstem
          79 524 rmoveto
          11 hlineto
          39 35 35 32 31 32 30 -32 35 -32 40 -35 rrcurveto
          10 hlineto
          27 40 -45 42 -43 47 -42 48 rlinecurve
          -25 hlineto
          -46 -52 -43 -46 -41 -39 rrcurveto
          endchar
        </CharString>
        <CharString name="circumflex.cap">
          592 -20 hstem
          58 272 vstem
          77 550 rmoveto
          12 hlineto
          105 65 35 -22 35 -21 36 -22 rlinecurve
          10 hlineto
          20 42 -44 31 -42 32 -38 33 rlinecurve
          -25 hlineto
          -37 -33 -41 -32 -45 -31 rrcurveto
          endchar
        </CharString>
        <CharString name="circumflexacute">
          530 256 hstem
          58 322 vstem
          378 762 rmoveto
          -50 24 -9 -3 -70 -111 35 -28 rlineto
          9 hlineto
          87 109 rlineto
          -303 -223 rmoveto
          12 hlineto
          105 65 35 -22 35 -21 36 -22 rlinecurve
          10 hlineto
          20 42 -44 31 -42 32 -38 33 rlinecurve
          -25 hlineto
          -37 -33 -41 -32 -45 -31 rrcurveto
          endchar
        </CharString>
        <CharString name="circumflexgrave">
          530 256 hstem
          58 285 vstem
          273 783 rmoveto
          -8 3 -51 -24 -2 -9 87 -109 rlineto
          9 hlineto
          35 28 rlineto
          -266 -142 rmoveto
          12 hlineto
          105 65 35 -22 35 -21 36 -22 rlinecurve
          10 hlineto
          20 42 -44 31 -42 32 -38 33 rlinecurve
          -25 hlineto
          -37 -33 -41 -32 -45 -31 rrcurveto
          endchar
        </CharString>
        <CharString name="circumflexhookabove">
          777 49 hstem
          304 55 vstem
          292 826 rmoveto
          -31 -32 -16 -27 -26 hvcurveto
          18 -29 rlineto
          16 18 22 7 17 hhcurveto
          15 11 -6 -14 -17 -18 -24 -30 -23 hvcurveto
          34 -57 38 22 -20 34 rlineto
          36 30 15 20 25 vvcurveto
          34 -29 25 -38 vhcurveto
          -215 -296 rmoveto
          12 hlineto
          105 65 35 -22 35 -21 36 -22 rlinecurve
          10 hlineto
          20 42 -44 31 -42 32 -38 33 rlinecurve
          -25 hlineto
          -37 -33 -41 -32 -45 -31 rrcurveto
          endchar
        </CharString>
        <CharString name="circumflextilde">
          530 279 hstem
          44 308 vstem
          352 779 rmoveto
          -29 30 rlineto
          -8 hlineto
          -25 -24 -15 -21 -17 hhcurveto
          -23 -80 29 5 -41 hvcurveto
          -10 -4 -61 -74 rlineto
          -8 vlineto
          29 -30 rlineto
          9 hlineto
          24 23 16 22 16 hhcurveto
          24 80 -30 -5 40 hvcurveto
          11 4 60 74 rlineto
          -275 -240 rmoveto
          12 hlineto
          105 65 35 -22 35 -21 36 -22 rlinecurve
          10 hlineto
          20 42 -44 31 -42 32 -38 33 rlinecurve
          -25 hlineto
          -37 -33 -41 -32 -45 -31 rrcurveto
          endchar
        </CharString>
        <CharString name="colon">
          -311 -6 114 153 114 hstem
          54 111 vstem
          112 375 rmoveto
          -36 -22 -23 -36 -34 20 -21 34 35 22 23 36 34 -19 21 -34 hvcurveto
          -267 vmoveto
          -36 -22 -23 -35 -35 20 -21 34 35 22 23 36 34 -19 21 -34 hvcurveto
          endchar
        </CharString>
        <CharString name="comma">
          -311 -119 225 hstem
          92 85 vstem
          134 106 rmoveto
          -27 -7 -24 -12 -22 -14 rrcurveto
          -9 vlineto
          21 -15 10 -17 -21 vvcurveto
          -32 -18 -30 -37 -30 vhcurveto
          1 -8 33 -30 rlineto
          71 51 35 49 50 vvcurveto
          30 -15 25 -28 20 vhcurveto
          endchar
        </CharString>
        <CharString name="commaaccent">
          -540 -66 -21 hstem
          92 77 vstem
          130 -49 rmoveto
          -24 -6 -22 -11 -20 -12 -1 -9 rcurveline
          19 -14 10 -16 -18 vvcurveto
          -29 -17 -29 -33 -27 vhcurveto
          -7 vlineto
          31 -28 rlineto
          65 47 31 45 46 vvcurveto
          28 -13 22 -26 18 vhcurveto
          endchar
        </CharString>
        <CharString name="copyright">
          146 -12 39 99 58 223 58 -20 20 94 39 hstemhm
          45 39 110 72 335 39 hintmask 11101111
          342 598 rmoveto
          -178 -119 -122 -183 -183 119 -122 178 179 119 122 183 183 -119 122 -179 hvcurveto
          -39 vmoveto
          155 104 -106 -160 -160 -104 -106 -155 -155 -103 106 160 160 103 106 155 hvcurveto
          18 -94 rmoveto
          -107 -59 -62 -109 -108 54 -60 106 28 31 7 12 27 hvcurveto
          6 56 -7 3 rlineto
          -12 -23 -31 -8 -26 hhcurveto
          -62 -31 39 77 73 31 34 61 25 29 -8 -13 21 hvcurveto
          6 3 rlineto
          hintmask 11011111
          13 56 rlineto
          hintmask 11101111
          12 -28 -31 8 -33 hhcurveto
          endchar
        </CharString>
        <CharString name="currency">
          -105 204 58 185 57 hstem
          67 58 185 57 vstem
          410 506 rmoveto
          -46 44 -10 -1 -62 -68 rlineto
          14 -21 -26 9 -28 hhcurveto
          -28 -28 -9 -16 -22 hvcurveto
          -63 68 -10 1 -43 -46 rlineto
          -10 vlineto
          68 -61 rlineto
          -15 -22 -9 -26 -29 vvcurveto
          -28 10 -29 16 -22 vhcurveto
          -68 -61 -1 -10 47 -44 rlineto
          10 hlineto
          61 68 rlineto
          -15 21 27 -9 27 hhcurveto
          29 29 10 16 22 hvcurveto
          62 -68 10 -1 44 47 -1 10 -69 61 rlineto
          15 22 9 26 27 vvcurveto
          30 -9 26 -16 23 vhcurveto
          68 63 rlineto
          -193 -49 rmoveto
          54 39 -40 -53 -53 -39 -39 -54 -52 -40 39 53 53 40 40 52 hvcurveto
          endchar
        </CharString>
        <CharString name="d">
          27 -5 75 -49 -21 425 80 hstemhm
          85 92 251 99 hintmask 10111000
          83 501 rmoveto
          4 -351 rlineto
          hintmask 01111000
          -4 -150 rlineto
          hintmask 10111000
          -3 52 91 -2 39 hhcurveto
          168 94 97 177 151 -84 85 -154 hvcurveto
          -8 -435 rmoveto
          -18 -54 4 3 -32 hvcurveto
          -2 82 4 262 rlineto
          3 31 55 1 17 hhcurveto
          98 48 -53 -125 -122 -55 -55 -92 hvcurveto
          endchar
        </CharString>
        <CharString name="d.sups">
          -182 331 63 196 60 -6 -20 hstemhm
          28 79 119.5 79.5 hintmask 11011000
          309 801 rmoveto
          -85 -5 rlineto
          hintmask 10111000
          1 -152 rlineto
          hintmask 11011000
          3 -16 -14 3 -12 hhcurveto
          -95 -60 -58 -109 -95 49 -57 78 hvcurveto
          27 2 25 18 20 24 rrcurveto
          4 hlineto
          -34 9 16 -11 28 hhcurveto
          19 17 5 10 15 hvcurveto
          10 47 -6 5 rlineto
          -4 -7 -7 -1 -4 hhcurveto
          -11 -4 7 17 hvcurveto
          -125 174 rmoveto
          15 15 -3 -4 14 hvcurveto
          3 -158 rlineto
          -20 -18 -20 -11 -20 hhcurveto
          -39 -24 32 68 68 25 28 49 hvcurveto
          endchar
        </CharString>
        <CharString name="dagger">
          -50 -73 -21 25 -21 427 70 178 -20 25 -20 hstemhm
          208 71 hintmask 01101100
          444 337 rmoveto
          6 63 -8 7 rlineto
          -163 hlineto
          hintmask 10110100
          1 178 -6 5 -66 -5 rlineto
          -178 -161 vlineto
          -6 -62 7 -8 rlineto
          160 -423 hlineto
          7 -8 rlineto
          hintmask 01101100
          64 4 rlineto
          378 vlineto
          49 vlineto
          endchar
        </CharString>
        <CharString name="daggerdbl">
          -50 -73 -21 25 -21 167 70 198 69 171 -20 25 -20 hstemhm
          208 71 hintmask 01110110
          442 147 rmoveto
          -163 141 hlineto
          57 165 vlineto
          6 62 -8 7 rlineto
          -163 hlineto
          hintmask 10111010
          1 171 -6 5 -66 -5 rlineto
          -171 -161 vlineto
          -6 -61 7 -8 rlineto
          160 -198 -161 hlineto
          -6 -62 7 -8 rlineto
          160 -163 hlineto
          7 -8 rlineto
          hintmask 01110110
          64 4 rlineto
          167 165 vlineto
          6 63 rlineto
          endchar
        </CharString>
        <CharString name="dcaron">
          27 -5 75 -49 -21 425 80 195 -20 hstemhm
          85 92 252 99 hintmask 10111100
          281 563 rmoveto
          45 51 44 47 41 39 -27 40 rcurveline
          -11 hlineto
          -39 -35 -35 -32 -31 -33 -30 33 -35 32 -40 35 rrcurveto
          -10 hlineto
          -27 -40 44 -42 44 -48 41 -47 rlinecurve
          -172 -62 rmoveto
          4 -351 rlineto
          hintmask 01111100
          -4 -150 rlineto
          hintmask 10111100
          -3 52 92 -2 38 hhcurveto
          169 94 97 177 151 -85 85 -154 hvcurveto
          -8 -435 rmoveto
          -18 -54 4 3 -32 hvcurveto
          -2 82 4 262 rlineto
          3 31 55 1 17 hhcurveto
          98 49 -53 -125 -122 -55 -55 -93 hvcurveto
          endchar
        </CharString>
        <CharString name="dcroat">
          27 -5 75 -49 -21 425 80 114 66 hstemhm
          85 92 252 99 hintmask 10111100
          128 619 rmoveto
          282 hlineto
          5 59 -7 7 rlineto
          -282 hlineto
          -5 -58 rlineto
          -38 -126 rmoveto
          4 -351 rlineto
          hintmask 01111100
          -4 -150 rlineto
          hintmask 10111100
          -3 52 92 -2 38 hhcurveto
          169 94 97 177 151 -85 85 -154 hvcurveto
          -8 -435 rmoveto
          -18 -54 4 3 -32 hvcurveto
          -2 82 4 262 rlineto
          3 31 55 1 17 hhcurveto
          98 49 -53 -125 -122 -55 -55 -93 hvcurveto
          endchar
        </CharString>
        <CharString name="degree">
          -247 397 46 160 47 hstem
          19 46 162 47 vstem
          147 650 rmoveto
          -72 -56 -56 -71 -71 56 -55 72 71 56 55 71 71 -56 56 -71 hvcurveto
          -1 -47 rmoveto
          45 36 -36 -44 -44 -36 -36 -45 -44 -37 36 44 44 37 36 44 hvcurveto
          endchar
        </CharString>
        <CharString name="dieresis">
          559 106 hstem
          61 104 60 104 vstem
          115 665 rmoveto
          -33 -21 -21 -33 -33 18 -19 33 33 20 21 34 32 -18 19 -32 hvcurveto
          164 hmoveto
          -33 -21 -21 -33 -33 18 -19 33 33 20 21 34 32 -18 19 -32 hvcurveto
          endchar
        </CharString>
        <CharString name="dieresis.i">
          559 106 hstem
          73 104 34 104 vstem
          127 665 rmoveto
          -33 -21 -21 -33 -33 18 -19 33 33 20 21 34 32 -18 19 -32 hvcurveto
          138 hmoveto
          -33 -21 -21 -33 -33 18 -19 33 33 20 21 34 32 -18 19 -32 hvcurveto
          endchar
        </CharString>
        <CharString name="dieresisacute">
          541 101 hstem
          62 100 64 100 vstem
          296 810 rmoveto
          -9 5 -74 -28 -68 -22 -72 -21 rlinecurve
          9 -47 10 -5 71 13 68 14 76 18 rlinecurve
          5 9 rlineto
          -198 -104 rmoveto
          -32 -20 -21 -31 -31 18 -18 30 32 20 21 31 31 -18 18 -30 hvcurveto
          164 hmoveto
          -32 -20 -21 -31 -31 18 -18 30 32 20 21 31 31 -18 18 -30 hvcurveto
          endchar
        </CharString>
        <CharString name="dieresiscaron">
          541 101 hstem
          62 100 64 100 vstem
          311 799 rmoveto
          -11 hlineto
          -36 -22 -35 -21 -34 -22 -35 22 -35 21 -36 22 rrcurveto
          -11 hlineto
          -19 -42 44 -31 42 -33 38 -32 rlinecurve
          24 hlineto
          38 32 41 33 45 31 rrcurveto
          -217 -115 rmoveto
          -32 -20 -21 -31 -31 18 -18 30 32 20 21 31 31 -18 18 -30 hvcurveto
          164 hmoveto
          -32 -20 -21 -31 -31 18 -18 30 32 20 21 31 31 -18 18 -30 hvcurveto
          endchar
        </CharString>
        <CharString name="dieresisgrave">
          541 101 hstem
          62 100 64 100 vstem
          88 810 rmoveto
          -15 -64 6 -9 75 -18 69 -14 69 -13 rlinecurve
          10 5 10 47 -72 21 -68 22 -74 28 rlinecurve
          16 -173 rmoveto
          -32 -20 -21 -31 -31 18 -18 30 32 20 21 31 31 -18 18 -30 hvcurveto
          164 hmoveto
          -32 -20 -21 -31 -31 18 -18 30 32 20 21 31 31 -18 18 -30 hvcurveto
          endchar
        </CharString>
        <CharString name="dieresismacron">
          541 101 62 8 -8 67 hstemhm
          62 100 64 100 hintmask 00000000
          hintmask 10111000
          335 763 rmoveto
          -7 8 rlineto
          -267 hlineto
          hintmask 11011000
          -6 -59 8 -8 rlineto
          266 hlineto
          -215 -62 rmoveto
          -32 -20 -21 -31 -31 18 -18 30 32 20 21 31 31 -18 18 -30 hvcurveto
          164 hmoveto
          -32 -20 -21 -31 -31 18 -18 30 32 20 21 31 31 -18 18 -30 hvcurveto
          endchar
        </CharString>
        <CharString name="divide">
          -60 41 104 83 70 88 104 hstem
          206 102 vstem
          259 490 rmoveto
          -33 -20 -21 -32 -32 18 -19 32 32 20 21 33 31 -18 19 -31 hvcurveto
          202 -199 rmoveto
          -8 7 rlineto
          -411 hlineto
          -6 -63 7 -7 rlineto
          412 hlineto
          -196 -83 rmoveto
          -33 -20 -22 -32 -32 18 -18 32 32 20 21 33 31 -18 19 -31 hvcurveto
          endchar
        </CharString>
        <CharString name="divisionslash">
          -254 -114 9 774 10 hstem
          13 283 vstem
          296 669 rmoveto
          -8 10 rlineto
          -70 hlineto
          -205 -784 7 -9 rlineto
          70 hlineto
          endchar
        </CharString>
        <CharString name="dollar">
          -99 -132 9 139 -21 22 -21 507 -20 21 -20 150 9 hstemhm
          57 84 28.5 58.5 -43 58 -40 59 -44 60 25 84 hintmask 0000000000000000
          hintmask 1010111001010000
          387 144 rmoveto
          78 -67 34 -64 27 vhcurveto
          12 152 rlineto
          hintmask 1010111000100000
          25 -6 26 -12 26 -20 14 3 rcurveline
          14 80 -33 13 -35 8 -32 3 rlinecurve
          10 130 -10 9 rlineto
          -50 hlineto
          hintmask 1011011000100000
          -10 -140 rlineto
          -97 -10 -59 -60 -74 vvcurveto
          -80 69 -33 65 -27 vhcurveto
          hintmask 1100111010000000
          -12 -158 -38 6 -44 19 -32 31 rlinecurve
          -11 -5 -11 -86 rlineto
          hintmask 1100111100000000
          42 -18 47 -10 42 -3 -9 -118 rcurveline
          8 -9 rlineto
          50 hlineto
          hintmask 1010111100000000
          10 128 rlineto
          hintmask 1010111001010000
          101 13 53 65 70 vvcurveto
          hintmask 1010111001000000
          -246 227 rmoveto
          28 23 30 44 8 vhcurveto
          -10 -129 rlineto
          -33 16 -24 18 29 vvcurveto
          hintmask 1010111010010000
          107 -178 rmoveto
          32 -16 23 -19 -29 vvcurveto
          -30 -25 -28 -40 -10 vhcurveto
          endchar
        </CharString>
        <CharString name="dotaccent">
          -291 562 113 hstem
          68 111 vstem
          126 675 rmoveto
          -36 -22 -23 -35 -34 20 -21 35 34 22 23 36 34 -19 20 -34 hvcurveto
          endchar
        </CharString>
        <CharString name="dotbelowcomb">
          -540 -176 113 hstem
          61 111 vstem
          119 -63 rmoveto
          -36 -22 -23 -35 -34 19 -21 35 35 22 23 36 34 -20 20 -33 hvcurveto
          endchar
        </CharString>
        <CharString name="dotlessi">
          -273 21 -21 501 -20 hstem
          85 92.5 vstem
          175 159 rmoveto
          5 342 rlineto
          -97 hlineto
          4 -351 -4 -150 rlineto
          96 hlineto
          endchar
        </CharString>
        <CharString name="dotlessj">
          -240 428.5 72.5 hstem
          121 89 vstem
          214 501 rmoveto
          -186 hlineto
          -7 -67 7 -6 91 1 2 -274 rlineto
          -62 vlineto
          -54 -23 -32 -61 -32 vhcurveto
          -9 vlineto
          35 -49 rlineto
          104 46 34 47 84 vvcurveto
          71 vlineto
          endchar
        </CharString>
        <CharString name="down">
          -125 73 289 hstem
          63 289 vstem
          208 73 rmoveto
          144 289 rlineto
          -289 hlineto
          endchar
        </CharString>
        <CharString name="e">
          -96 0 76.5 140 77 131 76.5 -8 8 hstemhm
          85 93 hintmask 11101000
          405 80 rmoveto
          -135 -4 -93 1 -2 82 1 57 89 1 94 -3 6 74 -5 8 -87 -3 -96 1 2 130 100 1 127 -5 rlineto
          hintmask 11011000
          7 73 -6 8 rlineto
          hintmask 11101000
          -324 hlineto
          4 -351 -4 -150 rlineto
          321 hlineto
          8 73 rlineto
          endchar
        </CharString>
        <CharString name="e.sups">
          -224 328 64 86 42.5 71.5 58 hstem
          28 79 115 73 vstem
          172 650 rmoveto
          -89 -55 -61 -101 -99 55 -61 96 33 36 8 12 30 hvcurveto
          8 61 -6 5 rlineto
          -15 -32 -34 -7 -28 hhcurveto
          -51 -24 30 56 -4 hvcurveto
          180 hlineto
          6 10 rlineto
          1 11 1 16 9 vvcurveto
          78 -44 48 -79 vhcurveto
          -64 -130 rmoveto
          47 6 20 25 35 hhcurveto
          31 22 -21 -37 -4 0 -2 -1 -7 hvcurveto
          endchar
        </CharString>
        <CharString name="eacute">
          -96 0 76.5 140 77 131 76.5 -8 8 hstemhm
          85 93 hintmask 11101000
          188 560 rmoveto
          10 -1 60 39 58 39 63 46 rlinecurve
          2 10 -38 54 -10 1 -58 -55 -54 -45 -59 -48 rlinecurve
          244 -520 rmoveto
          -135 -4 -94 1 -2 82 1 57 89 1 94 -3 7 74 -6 8 -87 -3 -96 1 2 130 100 1 127 -5 rlineto
          hintmask 11011000
          7 73 -6 8 rlineto
          hintmask 11101000
          -324 hlineto
          4 -351 -4 -150 rlineto
          322 hlineto
          7 73 rlineto
          endchar
        </CharString>
        <CharString name="ebreve">
          -96 0 76.5 140 77 131 76.5 -8 8 67 72 hstemhm
          85 93 hintmask 11101100
          243 568 rmoveto
          78 44 49 70 17 hvcurveto
          -25 36 rlineto
          -15 hlineto
          -55 -14 -33 -28 -49 hhcurveto
          -48 -34 28 55 -14 hvcurveto
          -15 hlineto
          -26 -36 rlineto
          -68 16 41 -51 77 hhcurveto
          163 -488 rmoveto
          -135 -4 -94 1 -2 82 1 57 89 1 94 -3 7 74 -6 8 -87 -3 -96 1 2 130 100 1 127 -5 rlineto
          hintmask 11011100
          7 73 -6 8 rlineto
          hintmask 11101100
          -324 hlineto
          4 -351 -4 -150 rlineto
          322 hlineto
          7 73 rlineto
          endchar
        </CharString>
</ttFont>
